<svg width="64" height="64" viewBox="0 5 55 55" fill="none" xmlns="http://www.w3.org/2000/svg">
  <path fill-rule="evenodd" clip-rule="evenodd" d="M25.4146 15.2006C21.0214 16.3989 16.5221 18.1986 12.4976 20.7367H12.4469C3.81256 26.0694 1.16647 31.9503 0.355128 35.1075C0.327468 35.2003 0.309029 35.2976 0.28598 35.3905C0.235271 35.616 0.18917 35.8282 0.156901 36.0228C0.143071 36.1024 0.124632 36.182 0.110803 36.266C-0.00905519 36.9956 0.00016387 37.4112 0.00016387 37.4112L0.027824 37.3759C-0.0689842 42.0011 3.22711 47.2674 11.5941 48.3375C21.2012 49.58 31.0848 47.7494 38.6405 43.363C31.1632 46.4936 23.1005 47.7582 15.6647 46.6528C0.806901 44.4507 3.32852 31.7956 15.8352 23.3234C30.9604 13.0737 54.434 11.4244 54.6922 25.5476C55.5681 14.6788 41.6185 10.7921 25.4238 15.2006" fill="#EC174F"/>
</svg>
