<svg width="632" height="286" viewBox="0 0 632 286" fill="none" xmlns="http://www.w3.org/2000/svg">
<g clip-path="url(#clip0_795_22351)">
<rect width="632" height="286" rx="16" fill="#91082C"/>
<path d="M238.345 160.542C231.748 160.542 225.707 159.471 220.223 157.329C214.825 155.187 210.455 151.931 207.114 147.561C203.858 143.192 202.144 137.622 201.973 130.853H219.581C219.581 133.595 220.309 136.08 221.766 138.308C223.308 140.535 225.493 142.292 228.32 143.577C231.148 144.862 234.489 145.505 238.345 145.505C243.829 145.505 248.027 144.263 250.941 141.778C253.94 139.293 255.439 136.208 255.439 132.524C255.439 129.611 254.582 127.169 252.868 125.198C251.155 123.227 248.756 121.728 245.671 120.7C242.587 119.672 238.988 119.157 234.875 119.157H227.421V104.377H234.875C239.93 104.377 244.215 103.477 247.728 101.678C251.326 99.7931 253.126 96.9227 253.126 93.067C253.126 89.8111 251.755 87.2834 249.013 85.4841C246.271 83.599 242.629 82.6565 238.088 82.6565C233.119 82.6565 229.22 83.8561 226.392 86.2552C223.651 88.6543 222.151 91.5247 221.894 94.8663H204.286C204.543 89.1256 206.086 84.2417 208.913 80.2146C211.826 76.1018 215.768 72.9744 220.737 70.8323C225.793 68.6045 231.576 67.4907 238.088 67.4907C245.114 67.4907 251.026 68.6045 255.825 70.8323C260.708 72.9744 264.393 75.8876 266.878 79.5719C269.362 83.2563 270.605 87.2834 270.605 91.6532C270.605 96.8799 268.977 101.207 265.721 104.634C262.551 108.062 258.823 110.375 254.539 111.575C260.109 112.517 264.607 114.916 268.034 118.772C271.462 122.628 273.175 127.469 273.175 133.295C273.175 138.265 271.804 142.806 269.063 146.919C266.406 151.031 262.508 154.33 257.367 156.815C252.226 159.3 245.885 160.542 238.345 160.542ZM319.366 160.542C311.569 160.542 304.843 158.614 299.187 154.759C293.618 150.903 289.334 145.505 286.335 138.565C283.422 131.539 281.965 123.356 281.965 114.016C281.965 104.677 283.422 96.5372 286.335 89.5968C289.334 82.5708 293.618 77.13 299.187 73.2742C304.843 69.4185 311.569 67.4907 319.366 67.4907C327.249 67.4907 333.975 69.4185 339.544 73.2742C345.113 77.13 349.355 82.5708 352.268 89.5968C355.267 96.5372 356.766 104.677 356.766 114.016C356.766 123.356 355.267 131.539 352.268 138.565C349.355 145.505 345.113 150.903 339.544 154.759C333.975 158.614 327.249 160.542 319.366 160.542ZM319.366 144.348C326.22 144.348 331.147 141.821 334.146 136.765C337.231 131.624 338.773 124.041 338.773 114.016C338.773 103.992 337.231 96.4515 334.146 91.3962C331.147 86.2552 326.22 83.6847 319.366 83.6847C312.597 83.6847 307.67 86.2552 304.585 91.3962C301.501 96.4515 299.959 103.992 299.959 114.016C299.959 124.041 301.501 131.624 304.585 136.765C307.67 141.821 312.597 144.348 319.366 144.348ZM388.948 144.091V83.9418H404.114V144.091H388.948ZM367.356 121.471V106.562H425.706V121.471H367.356Z" fill="white"/>
<g opacity="0.43" filter="url(#filter0_f_795_22351)" style="mix-blend-mode:screen">
<path d="M316.5 90C317.254 94.1752 317.318 99.0871 316.5 104.651C317.639 112.397 320.489 121.407 325.57 131.453C356.381 192.36 611.557 244.269 623.493 305.478C624.826 312.312 625.5 319.796 625.5 328H7.5C7.5 319.796 8.1739 312.312 9.50661 305.478C21.4433 244.269 276.619 192.36 307.43 131.453C312.511 121.407 315.361 112.397 316.5 104.651C315.682 99.0871 315.746 94.1752 316.5 90Z" fill="url(#paint0_linear_795_22351)"/>
</g>
<g opacity="0.43" filter="url(#filter1_f_795_22351)" style="mix-blend-mode:screen">
<ellipse cx="315.5" cy="284" rx="292" ry="89" fill="white" fill-opacity="0.7"/>
</g>
<g filter="url(#filter2_f_795_22351)">
<path d="M92.3857 217C92.3857 230.744 81.244 241.886 67.5 241.886C81.244 241.886 92.3857 253.027 92.3857 266.771C92.3857 253.027 103.527 241.886 117.271 241.886C103.527 241.886 92.3857 230.744 92.3857 217Z" fill="#E0AABA"/>
</g>
<g filter="url(#filter3_f_795_22351)">
<path d="M111.486 133.695C111.486 140.039 106.343 145.181 100 145.181C106.343 145.181 111.486 150.323 111.486 156.667C111.486 150.323 116.628 145.181 122.971 145.181C116.628 145.181 111.486 140.039 111.486 133.695Z" fill="#E0AABA"/>
</g>
<g filter="url(#filter4_f_795_22351)">
<path d="M67.875 79C67.875 85.8345 62.3345 91.375 55.5 91.375C62.3345 91.375 67.875 96.9155 67.875 103.75C67.875 96.9155 73.4155 91.375 80.25 91.375C73.4155 91.375 67.875 85.8345 67.875 79Z" fill="#E0AABA"/>
</g>
<g filter="url(#filter5_f_795_22351)">
<path d="M564.25 195C564.25 202.042 569.958 207.75 577 207.75C569.958 207.75 564.25 213.458 564.25 220.5C564.25 213.458 558.542 207.75 551.5 207.75C558.542 207.75 564.25 202.042 564.25 195Z" fill="#E0AABA"/>
</g>
<g filter="url(#filter6_f_795_22351)">
<path d="M506.5 33C506.5 42.3888 514.111 50 523.5 50C514.111 50 506.5 57.6112 506.5 67C506.5 57.6112 498.889 50 489.5 50C498.889 50 506.5 42.3888 506.5 33Z" fill="#E0AABA"/>
</g>
<g filter="url(#filter7_f_795_22351)">
<path d="M393.469 47.6261C388.755 60.1407 395.183 74.1477 407.828 78.9117C395.183 74.1477 381.11 80.4309 376.396 92.9455C381.11 80.4309 374.682 66.4239 362.037 61.66C374.682 66.4239 388.755 60.1407 393.469 47.6261Z" fill="#E0AABA"/>
</g>
<g filter="url(#filter8_f_795_22351)">
<path d="M129.875 21C129.875 27.8345 124.335 33.375 117.5 33.375C124.335 33.375 129.875 38.9155 129.875 45.75C129.875 38.9155 135.415 33.375 142.25 33.375C135.415 33.375 129.875 27.8345 129.875 21Z" fill="#E0AABA"/>
</g>
<g filter="url(#filter9_f_795_22351)">
<path d="M590.25 136C590.25 143.042 595.958 148.75 603 148.75C595.958 148.75 590.25 154.458 590.25 161.5C590.25 154.458 584.542 148.75 577.5 148.75C584.542 148.75 590.25 143.042 590.25 136Z" fill="#E0AABA"/>
</g>
<path d="M157.397 208V199.808L149.845 185.6H153.813L159.765 197.472H158.645L164.533 185.6H168.469L160.917 199.808V208H157.397ZM170.568 208V185.6H184.84V188.448H174.088V195.264H183.88V198.08H174.088V205.152H184.84V208H170.568ZM186.026 208L194.218 185.6H198.122L206.314 208H202.602L195.402 187.616H196.906L189.706 208H186.026ZM189.802 202.592L190.794 199.776H201.546L202.538 202.592H189.802ZM208.229 208V185.6H217.349C219.119 185.6 220.581 185.899 221.733 186.496C222.885 187.093 223.738 187.904 224.293 188.928C224.847 189.931 225.125 191.083 225.125 192.384C225.125 193.472 224.879 194.475 224.389 195.392C223.919 196.288 223.237 197.035 222.341 197.632C223.279 198.165 223.973 198.891 224.421 199.808C224.89 200.725 225.146 201.792 225.189 203.008L225.445 208H222.021L221.701 203.168C221.658 202.229 221.487 201.461 221.189 200.864C220.911 200.267 220.463 199.829 219.845 199.552C219.226 199.275 218.373 199.136 217.285 199.136H211.749V208H208.229ZM211.749 196.288H217.125C218.661 196.288 219.781 195.925 220.485 195.2C221.189 194.475 221.541 193.536 221.541 192.384C221.541 191.168 221.189 190.219 220.485 189.536C219.802 188.832 218.671 188.48 217.093 188.48H211.749V196.288ZM236.025 208.384C234.937 208.384 233.881 208.245 232.857 207.968C231.833 207.669 230.905 207.211 230.073 206.592C229.241 205.973 228.559 205.184 228.025 204.224C227.492 203.264 227.172 202.123 227.065 200.8H230.393C230.543 201.909 230.895 202.805 231.449 203.488C232.004 204.149 232.687 204.629 233.497 204.928C234.308 205.205 235.161 205.344 236.057 205.344C236.953 205.344 237.764 205.216 238.489 204.96C239.215 204.683 239.791 204.277 240.217 203.744C240.644 203.189 240.857 202.507 240.857 201.696C240.857 200.949 240.644 200.288 240.217 199.712C239.812 199.136 238.991 198.741 237.753 198.528L233.593 197.76C231.887 197.44 230.521 196.736 229.497 195.648C228.473 194.56 227.961 193.269 227.961 191.776C227.961 190.389 228.313 189.216 229.017 188.256C229.743 187.275 230.692 186.528 231.865 186.016C233.06 185.483 234.361 185.216 235.769 185.216C237.241 185.216 238.553 185.472 239.705 185.984C240.879 186.496 241.828 187.264 242.553 188.288C243.3 189.291 243.748 190.581 243.897 192.16H240.505C240.377 191.2 240.089 190.432 239.641 189.856C239.193 189.28 238.639 188.864 237.977 188.608C237.316 188.352 236.591 188.224 235.801 188.224C235.076 188.224 234.361 188.341 233.657 188.576C232.953 188.811 232.377 189.184 231.929 189.696C231.503 190.187 231.289 190.837 231.289 191.648C231.289 192.395 231.567 193.045 232.121 193.6C232.676 194.133 233.487 194.496 234.553 194.688L238.425 195.424C240.281 195.765 241.711 196.437 242.713 197.44C243.737 198.443 244.249 199.829 244.249 201.6C244.249 202.731 244.015 203.723 243.545 204.576C243.076 205.408 242.447 206.112 241.657 206.688C240.868 207.243 239.983 207.669 239.001 207.968C238.041 208.245 237.049 208.384 236.025 208.384ZM266.267 208.384C264.049 208.384 262.107 207.893 260.443 206.912C258.779 205.931 257.478 204.576 256.539 202.848C255.601 201.12 255.131 199.104 255.131 196.8C255.131 194.517 255.59 192.512 256.507 190.784C257.446 189.035 258.747 187.669 260.411 186.688C262.097 185.707 264.049 185.216 266.267 185.216C268.507 185.216 270.459 185.707 272.123 186.688C273.787 187.669 275.078 189.035 275.995 190.784C276.934 192.512 277.403 194.517 277.403 196.8C277.403 199.104 276.934 201.12 275.995 202.848C275.078 204.576 273.787 205.931 272.123 206.912C270.459 207.893 268.507 208.384 266.267 208.384ZM266.267 205.248C267.803 205.248 269.126 204.917 270.235 204.256C271.366 203.573 272.241 202.603 272.859 201.344C273.499 200.064 273.819 198.549 273.819 196.8C273.819 195.051 273.499 193.547 272.859 192.288C272.241 191.029 271.366 190.069 270.235 189.408C269.126 188.725 267.803 188.384 266.267 188.384C264.774 188.384 263.451 188.725 262.299 189.408C261.169 190.069 260.283 191.029 259.643 192.288C259.025 193.547 258.715 195.051 258.715 196.8C258.715 198.549 259.025 200.064 259.643 201.344C260.283 202.603 261.169 203.573 262.299 204.256C263.451 204.917 264.774 205.248 266.267 205.248ZM279.7 208V185.6H293.844V188.448H283.22V195.36H292.02V198.176H283.22V208H279.7ZM305.047 208V185.6H308.567V208H305.047ZM311.907 208V185.6H315.427L326.531 202.272V185.6H330.051V208H326.531L315.427 191.36V208H311.907ZM333.392 208V185.6H336.912L348.016 202.272V185.6H351.536V208H348.016L336.912 191.36V208H333.392ZM365.053 208.384C362.834 208.384 360.893 207.893 359.229 206.912C357.565 205.931 356.263 204.576 355.325 202.848C354.386 201.12 353.917 199.104 353.917 196.8C353.917 194.517 354.375 192.512 355.293 190.784C356.231 189.035 357.533 187.669 359.197 186.688C360.882 185.707 362.834 185.216 365.053 185.216C367.293 185.216 369.245 185.707 370.909 186.688C372.573 187.669 373.863 189.035 374.781 190.784C375.719 192.512 376.189 194.517 376.189 196.8C376.189 199.104 375.719 201.12 374.781 202.848C373.863 204.576 372.573 205.931 370.909 206.912C369.245 207.893 367.293 208.384 365.053 208.384ZM365.053 205.248C366.589 205.248 367.911 204.917 369.021 204.256C370.151 203.573 371.026 202.603 371.645 201.344C372.285 200.064 372.605 198.549 372.605 196.8C372.605 195.051 372.285 193.547 371.645 192.288C371.026 191.029 370.151 190.069 369.021 189.408C367.911 188.725 366.589 188.384 365.053 188.384C363.559 188.384 362.237 188.725 361.085 189.408C359.954 190.069 359.069 191.029 358.429 192.288C357.81 193.547 357.501 195.051 357.501 196.8C357.501 198.549 357.81 200.064 358.429 201.344C359.069 202.603 359.954 203.573 361.085 204.256C362.237 204.917 363.559 205.248 365.053 205.248ZM384.032 208L375.744 185.6H379.52L386.144 204.352L392.832 185.6H396.544L388.256 208H384.032ZM393.784 208L401.976 185.6H405.88L414.072 208H410.36L403.16 187.616H404.664L397.464 208H393.784ZM397.56 202.592L398.552 199.776H409.304L410.296 202.592H397.56ZM418.964 208V188.448H412.34V185.6H429.076V188.448H422.484V208H418.964ZM431.442 208V185.6H434.962V208H431.442ZM448.478 208.384C446.259 208.384 444.318 207.893 442.654 206.912C440.99 205.931 439.688 204.576 438.75 202.848C437.811 201.12 437.342 199.104 437.342 196.8C437.342 194.517 437.8 192.512 438.718 190.784C439.656 189.035 440.958 187.669 442.622 186.688C444.307 185.707 446.259 185.216 448.478 185.216C450.718 185.216 452.67 185.707 454.334 186.688C455.998 187.669 457.288 189.035 458.206 190.784C459.144 192.512 459.614 194.517 459.614 196.8C459.614 199.104 459.144 201.12 458.206 202.848C457.288 204.576 455.998 205.931 454.334 206.912C452.67 207.893 450.718 208.384 448.478 208.384ZM448.478 205.248C450.014 205.248 451.336 204.917 452.446 204.256C453.576 203.573 454.451 202.603 455.07 201.344C455.71 200.064 456.03 198.549 456.03 196.8C456.03 195.051 455.71 193.547 455.07 192.288C454.451 191.029 453.576 190.069 452.446 189.408C451.336 188.725 450.014 188.384 448.478 188.384C446.984 188.384 445.662 188.725 444.51 189.408C443.379 190.069 442.494 191.029 441.854 192.288C441.235 193.547 440.926 195.051 440.926 196.8C440.926 198.549 441.235 200.064 441.854 201.344C442.494 202.603 443.379 203.573 444.51 204.256C445.662 204.917 446.984 205.248 448.478 205.248ZM461.974 208V185.6H465.494L476.598 202.272V185.6H480.118V208H476.598L465.494 191.36V208H461.974Z" fill="white"/>
</g>
<defs>
<filter id="filter0_f_795_22351" x="-92.5" y="-10" width="818" height="438" filterUnits="userSpaceOnUse" color-interpolation-filters="sRGB">
<feFlood flood-opacity="0" result="BackgroundImageFix"/>
<feBlend mode="normal" in="SourceGraphic" in2="BackgroundImageFix" result="shape"/>
<feGaussianBlur stdDeviation="0" result="effect1_foregroundBlur_795_22351"/>
</filter>
<filter id="filter1_f_795_22351" x="-233.6" y="-62.1" width="1098.2" height="692.2" filterUnits="userSpaceOnUse" color-interpolation-filters="sRGB">
<feFlood flood-opacity="0" result="BackgroundImageFix"/>
<feBlend mode="normal" in="SourceGraphic" in2="BackgroundImageFix" result="shape"/>
<feGaussianBlur stdDeviation="128.55" result="effect1_foregroundBlur_795_22351"/>
</filter>
<filter id="filter2_f_795_22351" x="55.5" y="205" width="73.7715" height="73.7715" filterUnits="userSpaceOnUse" color-interpolation-filters="sRGB">
<feFlood flood-opacity="0" result="BackgroundImageFix"/>
<feBlend mode="normal" in="SourceGraphic" in2="BackgroundImageFix" result="shape"/>
<feGaussianBlur stdDeviation="6" result="effect1_foregroundBlur_795_22351"/>
</filter>
<filter id="filter3_f_795_22351" x="81" y="114.695" width="60.9707" height="60.9707" filterUnits="userSpaceOnUse" color-interpolation-filters="sRGB">
<feFlood flood-opacity="0" result="BackgroundImageFix"/>
<feBlend mode="normal" in="SourceGraphic" in2="BackgroundImageFix" result="shape"/>
<feGaussianBlur stdDeviation="9.5" result="effect1_foregroundBlur_795_22351"/>
</filter>
<filter id="filter4_f_795_22351" x="48.5" y="72" width="38.75" height="38.75" filterUnits="userSpaceOnUse" color-interpolation-filters="sRGB">
<feFlood flood-opacity="0" result="BackgroundImageFix"/>
<feBlend mode="normal" in="SourceGraphic" in2="BackgroundImageFix" result="shape"/>
<feGaussianBlur stdDeviation="3.5" result="effect1_foregroundBlur_795_22351"/>
</filter>
<filter id="filter5_f_795_22351" x="539.5" y="183" width="49.5" height="49.5" filterUnits="userSpaceOnUse" color-interpolation-filters="sRGB">
<feFlood flood-opacity="0" result="BackgroundImageFix"/>
<feBlend mode="normal" in="SourceGraphic" in2="BackgroundImageFix" result="shape"/>
<feGaussianBlur stdDeviation="6" result="effect1_foregroundBlur_795_22351"/>
</filter>
<filter id="filter6_f_795_22351" x="477.5" y="21" width="58" height="58" filterUnits="userSpaceOnUse" color-interpolation-filters="sRGB">
<feFlood flood-opacity="0" result="BackgroundImageFix"/>
<feBlend mode="normal" in="SourceGraphic" in2="BackgroundImageFix" result="shape"/>
<feGaussianBlur stdDeviation="6" result="effect1_foregroundBlur_795_22351"/>
</filter>
<filter id="filter7_f_795_22351" x="352.037" y="37.627" width="65.791" height="65.3184" filterUnits="userSpaceOnUse" color-interpolation-filters="sRGB">
<feFlood flood-opacity="0" result="BackgroundImageFix"/>
<feBlend mode="normal" in="SourceGraphic" in2="BackgroundImageFix" result="shape"/>
<feGaussianBlur stdDeviation="5" result="effect1_foregroundBlur_795_22351"/>
</filter>
<filter id="filter8_f_795_22351" x="109.5" y="13" width="40.75" height="40.75" filterUnits="userSpaceOnUse" color-interpolation-filters="sRGB">
<feFlood flood-opacity="0" result="BackgroundImageFix"/>
<feBlend mode="normal" in="SourceGraphic" in2="BackgroundImageFix" result="shape"/>
<feGaussianBlur stdDeviation="4" result="effect1_foregroundBlur_795_22351"/>
</filter>
<filter id="filter9_f_795_22351" x="565.5" y="124" width="49.5" height="49.5" filterUnits="userSpaceOnUse" color-interpolation-filters="sRGB">
<feFlood flood-opacity="0" result="BackgroundImageFix"/>
<feBlend mode="normal" in="SourceGraphic" in2="BackgroundImageFix" result="shape"/>
<feGaussianBlur stdDeviation="6" result="effect1_foregroundBlur_795_22351"/>
</filter>
<linearGradient id="paint0_linear_795_22351" x1="316.5" y1="90" x2="316.5" y2="328" gradientUnits="userSpaceOnUse">
<stop stop-color="#FDF7F8" stop-opacity="0.5"/>
<stop offset="1" stop-color="#AB0B35"/>
</linearGradient>
<clipPath id="clip0_795_22351">
<rect width="632" height="286" rx="16" fill="white"/>
</clipPath>
</defs>
</svg>
