<svg width="143" height="64" viewBox="0 0 143 64" fill="none" xmlns="http://www.w3.org/2000/svg">
<g clip-path="url(#clip0_795_22241)">
<path fill-rule="evenodd" clip-rule="evenodd" d="M18.3691 10.7725L27.151 10.7637C27.1787 17.843 27.151 24.9488 27.1649 32.0325C27.2294 35.5168 31.0187 36.839 36.6382 37.1043C30.295 37.3342 27.4046 39.2002 27.1879 42.2954L27.2017 54.221L18.4383 54.2431C18.4291 50.2281 18.4152 46.2308 18.4152 42.2247C18.6918 39.2002 21.467 37.6437 27.3907 37.2811C20.25 36.5515 18.383 34.6325 18.3968 31.9661L18.3691 10.7725Z" fill="#003DA6"/>
<path fill-rule="evenodd" clip-rule="evenodd" d="M83.7365 30.0032C84.3265 30.0032 84.6677 30.3038 84.5248 30.6797C84.3496 31.0423 83.7733 31.3385 83.1741 31.3341C82.6209 31.343 82.2567 31.0423 82.4272 30.6797C82.5563 30.3038 83.1602 30.0032 83.7365 30.0032ZM80.3666 40.7393H81.5145L83.4276 33.1249H82.2613L80.3666 40.7393ZM124.17 32.8154H123.018L122.676 34.1287C121.575 33.178 120.09 32.5988 117.896 32.7314C115.43 32.8287 113.498 33.6467 112.175 35.327C111.202 36.7552 111.092 38.1083 111.839 39.4039C112.954 40.558 114.466 41.0134 116.246 40.9869C118.057 40.9869 119.731 40.4607 121.321 39.6073L121.031 40.7348L122.197 40.7525L124.17 32.8198V32.8154ZM122.045 36.742C122.363 35.4287 121.81 34.4338 120.464 33.8943C118.643 33.2178 116.522 33.2753 114.406 34.5753C113.143 35.3712 112.341 36.6314 112.599 37.9756C112.903 39.3685 114.111 40.0141 115.868 40.1733C117.301 40.2706 118.634 40.0052 119.929 39.3729C121.123 38.6876 121.754 37.8872 122.045 36.742ZM132.168 36.2113L141.19 36.1937C141.171 34.4692 139.779 33.4212 137.497 33.4079C134.842 33.4345 132.546 34.7301 132.168 36.2069M131.915 37.0205C135.386 37.0161 138.825 37.0028 142.278 37.0028C142.891 34.6195 141.167 32.7093 137.742 32.6872C134.579 32.6562 132.523 33.7661 131.242 35.6409C130.495 36.9719 130.297 38.2542 131.306 39.5056C132.528 40.6729 134.003 41.009 135.584 40.9648C138.47 40.8233 140.166 39.9257 141.43 38.7539C141.111 38.6566 140.816 38.5461 140.512 38.4488C139.194 39.4923 137.705 40.2838 135.584 40.2219C132.887 40.0052 131.468 39.059 131.915 37.025M66.9195 37.0338C67.2468 35.6984 66.6798 34.6903 65.3337 34.1287C63.5082 33.4477 61.3646 33.5141 59.2486 34.8318C57.9624 35.6454 57.1788 36.9188 57.4461 38.294C57.7412 39.6957 58.949 40.3723 60.7284 40.5403C62.1621 40.6331 63.5036 40.3723 64.7943 39.7178C66.0021 39.0236 66.6383 38.21 66.9195 37.0338ZM69.0447 33.0409H67.9014L67.5695 34.3852C66.4631 33.4079 64.9649 32.8022 62.7383 32.9436C60.2674 33.0365 58.3266 33.8766 57.0082 35.5835C56.0355 37.0515 55.9156 38.4178 56.6624 39.7444C57.7965 40.9338 59.3085 41.3981 61.088 41.3583C62.9181 41.3583 64.6099 40.8321 66.1911 39.9212L65.9053 41.1018L67.0762 41.1195L69.0355 33.0454L69.0447 33.0409ZM54.9752 38.4311C51.0798 40.4474 47.2859 41.0753 43.4458 39.3906C41.1731 38.3471 40.0068 36.7641 40.6522 34.394C41.6433 31.4447 45.6724 29.0613 50.7203 28.7783C53.1543 28.7606 55.2011 29.3797 56.8561 30.6089C56.9344 30.2508 57.0128 29.844 57.0727 29.4725C54.8415 28.1151 51.9742 27.5977 48.1848 28.2477C44.9118 28.911 42.1643 30.2021 40.2972 32.528C38.8497 34.7212 38.4072 36.9233 40.9565 39.1695C44.9671 41.9508 49.66 41.7872 54.7447 39.5188C54.8185 39.1607 54.8922 38.7937 54.9752 38.4311ZM70.3954 33.6954L73.5808 41.1947L80.2836 33.6246H79.1081L73.9819 39.4083L71.5202 33.6821L70.3954 33.6909V33.6954ZM85.0549 40.7348H86.3595L87.4935 36.4943C88.4155 33.8811 90.3932 33.2266 93.1176 33.3239C94.5237 33.4698 95.2105 34.0845 94.8556 35.7559C94.413 37.4141 93.9751 39.0722 93.5233 40.7393H94.874L96.3077 35.4818C96.6995 33.3947 95.3903 32.5368 93.4542 32.4617C91.3474 32.3865 89.6418 32.9083 88.2081 33.8369L88.4893 32.7579H87.1985L85.0549 40.7304V40.7348ZM97.9212 40.7172H99.0598L100.489 35.1457L101.061 34.8539L109.34 40.7083L110.944 40.7172L102.19 34.2746L113.143 28.4953H111.276L100.775 34.0712L102.19 28.5042L101.042 28.4953L97.9212 40.7127V40.7172ZM125.788 40.6818L127.3 32.6828L128.485 32.6739L128.282 33.7573C129.319 32.6916 130.61 32.4926 132.058 32.8817L131.412 33.7219C129.439 33.3947 128.218 34.0226 127.904 35.8178L126.899 40.6906L125.784 40.6774L125.788 40.6818Z" fill="#003DA6"/>
<path fill-rule="evenodd" clip-rule="evenodd" d="M25.4146 15.2006C21.0214 16.3989 16.5221 18.1986 12.4976 20.7367H12.4469C3.81256 26.0694 1.16647 31.9503 0.355128 35.1075C0.327468 35.2003 0.309029 35.2976 0.28598 35.3905C0.235271 35.616 0.18917 35.8282 0.156901 36.0228C0.143071 36.1024 0.124632 36.182 0.110803 36.266C-0.00905519 36.9956 0.00016387 37.4112 0.00016387 37.4112L0.027824 37.3759C-0.0689842 42.0011 3.22711 47.2674 11.5941 48.3375C21.2012 49.58 31.0848 47.7494 38.6405 43.363C31.1632 46.4936 23.1005 47.7582 15.6647 46.6528C0.806901 44.4507 3.32852 31.7956 15.8352 23.3234C30.9604 13.0737 54.434 11.4244 54.6922 25.5476C55.5681 14.6788 41.6185 10.7921 25.4238 15.2006" fill="#EC174F"/>
<path fill-rule="evenodd" clip-rule="evenodd" d="M48.8623 45.541H50.1393L50.8492 50.8781L53.9102 45.541H55.1733L53.7765 51.8553H52.9283L53.7535 48.1278C53.7765 47.9995 53.8318 47.7829 53.901 47.4866C53.9747 47.1903 54.0485 46.872 54.1223 46.5271L51.0659 51.8553H50.1854L49.4709 46.5271C49.3452 47.0574 49.2533 47.595 49.1389 48.1278L48.3138 51.8553H47.4609L48.8577 45.541H48.8623Z" fill="#003DA6"/>
<path fill-rule="evenodd" clip-rule="evenodd" d="M58.2112 49.0655C58.4002 49.0434 58.5431 48.9683 58.6353 48.8444C58.686 48.7781 58.7275 48.6764 58.7552 48.5482C58.8105 48.2873 58.7552 48.0927 58.5892 47.9778C58.4187 47.8584 58.1513 47.8009 57.7871 47.8009C57.3676 47.8009 57.0449 47.907 56.819 48.1281C56.6946 48.2475 56.5885 48.4288 56.5102 48.6632H55.7587C55.897 48.0972 56.1782 47.6992 56.5931 47.4781C57.0126 47.257 57.4644 47.1465 57.9531 47.1465C58.5201 47.1465 58.9534 47.2526 59.2577 47.456C59.5619 47.6594 59.668 47.9822 59.5711 48.42L58.9857 51.073C58.9672 51.1526 58.9719 51.219 58.9903 51.2676C59.0133 51.3162 59.0825 51.3428 59.1931 51.3428C59.2254 51.3428 59.2715 51.3428 59.3176 51.3383C59.3637 51.3383 59.4144 51.3295 59.4651 51.3206L59.336 51.8911C59.2023 51.9264 59.1055 51.9441 59.0364 51.9574C58.9672 51.9662 58.8797 51.9707 58.7644 51.9707C58.4878 51.9707 58.308 51.8734 58.225 51.6832C58.1789 51.5815 58.1651 51.44 58.179 51.2587C57.9669 51.4666 57.6903 51.6434 57.3492 51.7982C57.008 51.9485 56.6531 52.0237 56.2843 52.0237C55.8371 52.0237 55.5052 51.8955 55.2793 51.6346C55.0534 51.3737 54.9843 51.0509 55.0719 50.6618C55.1687 50.2329 55.3807 49.9013 55.7126 49.6669C56.0399 49.4326 56.4364 49.2866 56.902 49.2336L58.2204 49.0788L58.2112 49.0655ZM56.6116 51.3516C56.8974 51.3516 57.1832 51.2897 57.4782 51.1615C57.9715 50.9536 58.2711 50.6087 58.3772 50.1356L58.5109 49.5121C58.4002 49.574 58.2619 49.6227 58.1006 49.6625C57.9346 49.7023 57.7779 49.7288 57.6211 49.7465L57.1233 49.8084C56.819 49.8438 56.5885 49.9057 56.4226 49.9853C56.146 50.1223 55.9754 50.3346 55.9063 50.6309C55.8556 50.8519 55.9017 51.0288 56.04 51.157C56.1829 51.2853 56.3719 51.3516 56.6024 51.3516" fill="#003DA6"/>
<path fill-rule="evenodd" clip-rule="evenodd" d="M61.5042 45.541H62.2787L61.4627 49.2067L63.9705 47.2478H64.9985L62.7812 48.9723L64.0858 51.8553H63.0532L62.0666 49.5339L61.2599 50.1264L60.8819 51.8553H60.1074L61.5042 45.541Z" fill="#003DA6"/>
<path fill-rule="evenodd" clip-rule="evenodd" d="M65.729 47.2699H66.5496L65.5354 51.8553H64.7148L65.729 47.2699ZM66.1163 45.541H66.9368L66.7386 46.4165H65.918L66.1163 45.541Z" fill="#003DA6"/>
<path fill-rule="evenodd" clip-rule="evenodd" d="M67.7702 47.2482H68.5354L68.3925 47.9026C68.6784 47.6329 68.9642 47.4383 69.2408 47.3234C69.522 47.2084 69.817 47.1465 70.1259 47.1465C70.8081 47.1465 71.2138 47.372 71.3521 47.8319C71.4305 48.0795 71.4212 48.4376 71.3152 48.9019L70.6606 51.8557H69.8401L70.4854 48.955C70.5454 48.672 70.5546 48.4465 70.5039 48.2785C70.4209 47.991 70.195 47.8495 69.817 47.8495C69.6234 47.8495 69.462 47.8672 69.333 47.907C69.0979 47.9689 68.872 48.0972 68.6645 48.2873C68.494 48.4421 68.3741 48.5968 68.3003 48.756C68.222 48.9196 68.1528 49.1496 68.0837 49.4502L67.5489 51.8601H66.7422L67.7564 47.2526L67.7702 47.2482Z" fill="#003DA6"/>
<path fill-rule="evenodd" clip-rule="evenodd" d="M75.5139 47.4352C75.643 47.5369 75.7675 47.6828 75.8827 47.873L76.0118 47.2937H76.754L75.8274 51.4812C75.6983 52.0648 75.5093 52.5291 75.2558 52.8652C74.781 53.4887 74.0803 53.8026 73.149 53.8026C72.6327 53.8026 72.2225 53.6921 71.9182 53.471C71.6139 53.2499 71.4941 52.905 71.554 52.4274H72.3746C72.37 52.6352 72.4115 52.7944 72.5037 52.905C72.6466 53.0774 72.9139 53.1614 73.3058 53.1614C73.9281 53.1614 74.3753 52.9492 74.6611 52.5335C74.8317 52.2859 74.9792 51.8482 75.1083 51.2159C74.8962 51.4502 74.6657 51.6227 74.4122 51.7376C74.1586 51.8526 73.8451 51.9101 73.4717 51.9101C72.9508 51.9101 72.5359 51.7332 72.2225 51.3795C71.9136 51.0257 71.8491 50.442 72.0288 49.624C72.1994 48.8502 72.5267 48.2488 73.0154 47.8199C73.504 47.3866 74.0249 47.1699 74.5781 47.1699C74.9561 47.1699 75.265 47.2584 75.5047 47.4352M74.5735 47.8509C74.0065 47.8509 73.5639 48.1073 73.2412 48.6158C73.0661 48.89 72.9324 49.2437 72.8402 49.6859C72.7249 50.2033 72.7434 50.5968 72.9047 50.871C73.0661 51.1407 73.3288 51.2778 73.7022 51.2778C74.2831 51.2778 74.7441 51.0301 75.0898 50.5261C75.2834 50.2386 75.4217 49.9114 75.5047 49.5312C75.6338 48.9607 75.6015 48.5363 75.4171 48.2621C75.2327 47.9879 74.9515 47.8509 74.5689 47.8509" fill="#003DA6"/>
<path fill-rule="evenodd" clip-rule="evenodd" d="M81.0088 45.541H81.8985L80.6677 51.1036H83.9961L83.8301 51.8553H79.6074L81.0088 45.541Z" fill="#003DA6"/>
<path fill-rule="evenodd" clip-rule="evenodd" d="M85.6138 47.2699H86.4344L85.4202 51.8553H84.5996L85.6138 47.2699ZM86.001 45.541H86.8216L86.6234 46.4165H85.8028L85.9964 45.541H86.001Z" fill="#003DA6"/>
<path fill-rule="evenodd" clip-rule="evenodd" d="M88.055 47.25L88.5067 50.9997L90.678 47.25H91.5585L88.7326 51.8575H87.8706L87.1191 47.25H88.055Z" fill="#003DA6"/>
<path fill-rule="evenodd" clip-rule="evenodd" d="M95.8088 47.9719C95.9194 48.2063 95.9702 48.476 95.9517 48.7811C95.9517 48.9934 95.901 49.3294 95.7996 49.7937H92.2822C92.1946 50.2624 92.2223 50.6383 92.379 50.9168C92.5358 51.1998 92.8354 51.3413 93.2826 51.3413C93.7067 51.3413 94.0709 51.2087 94.3797 50.9434C94.5549 50.7886 94.6978 50.6117 94.8038 50.4039H95.5967C95.5368 50.5719 95.4262 50.7621 95.2602 50.9699C95.0989 51.1777 94.9283 51.3502 94.7531 51.4784C94.4581 51.7083 94.1216 51.8631 93.739 51.9427C93.5361 51.9869 93.3102 52.009 93.0613 52.009C92.4666 52.009 92.0056 51.8012 91.6829 51.3855C91.3602 50.9699 91.2819 50.3862 91.4478 49.6345C91.6092 48.8961 91.9549 48.2947 92.4712 47.8304C92.9921 47.3706 93.5914 47.1406 94.2645 47.1406C94.6056 47.1406 94.9191 47.2158 95.2049 47.3706C95.4907 47.5209 95.6889 47.7199 95.8042 47.9675M95.0989 49.1791C95.1404 48.843 95.1265 48.5733 95.0482 48.3743C94.9099 48.0029 94.5826 47.8127 94.0663 47.8127C93.6929 47.8127 93.3563 47.941 93.0475 48.1974C92.7386 48.4539 92.5312 48.7811 92.4297 49.1746H95.0989V49.1791Z" fill="#003DA6"/>
<path fill-rule="evenodd" clip-rule="evenodd" d="M97.1368 50.4094C97.0999 50.6658 97.1229 50.8648 97.2059 51.0019C97.3488 51.2539 97.6761 51.3777 98.1786 51.3777C98.4783 51.3777 98.7549 51.3158 99.0084 51.192C99.2666 51.0682 99.4233 50.8736 99.4786 50.6172C99.5247 50.4182 99.4694 50.2679 99.308 50.1662C99.202 50.1043 98.99 50.0291 98.6627 49.9495L98.0588 49.7947C97.6715 49.6974 97.3949 49.5869 97.229 49.4675C96.9247 49.2553 96.8141 48.9679 96.9017 48.5964C96.9985 48.1587 97.2382 47.8093 97.6208 47.5396C98.008 47.2699 98.4783 47.1328 99.0315 47.1328C99.7552 47.1328 100.23 47.3362 100.461 47.743C100.603 47.9995 100.64 48.2781 100.567 48.5743H99.8059C99.829 48.4019 99.8013 48.2427 99.7183 48.0968C99.58 47.8934 99.2804 47.7917 98.8194 47.7917C98.5151 47.7917 98.2708 47.8447 98.091 47.9597C97.9112 48.0747 97.8006 48.2206 97.7545 48.4019C97.7084 48.6008 97.7775 48.7645 97.9573 48.8838C98.0634 48.9546 98.2247 49.0209 98.446 49.074L98.9531 49.1978C99.5017 49.3349 99.8612 49.4631 100.032 49.5913C100.299 49.7903 100.387 50.0998 100.295 50.5243C100.202 50.9356 99.9673 51.2893 99.5754 51.5856C99.1882 51.8818 98.658 52.0322 97.9988 52.0322C97.2843 52.0322 96.8141 51.8774 96.5836 51.5634C96.3577 51.2539 96.2839 50.8692 96.3623 50.4094H97.1414H97.1368Z" fill="#003DA6"/>
<path fill-rule="evenodd" clip-rule="evenodd" d="M105.002 45.541H105.906L105.325 48.1499H108.75L109.331 45.541H110.225L108.829 51.8553H107.93L108.584 48.9016H105.159L104.504 51.8553H103.605L105.002 45.541Z" fill="#003DA6"/>
<path fill-rule="evenodd" clip-rule="evenodd" d="M113.283 49.0655C113.477 49.0434 113.62 48.9683 113.712 48.8444C113.763 48.7781 113.8 48.6764 113.832 48.5482C113.887 48.2873 113.832 48.0927 113.666 47.9778C113.496 47.8584 113.228 47.8009 112.864 47.8009C112.444 47.8009 112.117 47.907 111.896 48.1281C111.771 48.2475 111.665 48.4288 111.587 48.6632H110.836C110.974 48.0972 111.255 47.6992 111.675 47.4781C112.094 47.257 112.546 47.1465 113.035 47.1465C113.602 47.1465 114.035 47.2526 114.339 47.456C114.643 47.6594 114.749 47.9822 114.653 48.42L114.063 51.073C114.049 51.1526 114.049 51.219 114.072 51.2676C114.095 51.3162 114.159 51.3428 114.27 51.3428C114.307 51.3428 114.348 51.3428 114.39 51.3383C114.441 51.3383 114.487 51.3295 114.542 51.3206L114.413 51.8911C114.284 51.9264 114.182 51.9441 114.113 51.9574C114.049 51.9662 113.957 51.9707 113.841 51.9707C113.565 51.9707 113.38 51.8734 113.297 51.6832C113.251 51.5815 113.237 51.44 113.251 51.2587C113.039 51.4666 112.763 51.6434 112.421 51.7982C112.085 51.9485 111.73 52.0237 111.357 52.0237C110.909 52.0237 110.573 51.8955 110.352 51.6346C110.126 51.3737 110.057 51.0509 110.144 50.6618C110.241 50.2329 110.453 49.9013 110.785 49.6669C111.112 49.4326 111.509 49.2866 111.974 49.2336L113.293 49.0788L113.283 49.0655ZM111.684 51.3516C111.97 51.3516 112.255 51.2897 112.551 51.1615C113.044 50.9536 113.343 50.6087 113.454 50.1356L113.588 49.5121C113.477 49.574 113.339 49.6227 113.177 49.6625C113.016 49.7023 112.855 49.7288 112.698 49.7465L112.196 49.8084C111.896 49.8438 111.661 49.9057 111.495 49.9853C111.218 50.1223 111.043 50.3346 110.979 50.6309C110.928 50.8519 110.979 51.0288 111.117 51.157C111.26 51.2853 111.444 51.3516 111.679 51.3516" fill="#003DA6"/>
<path fill-rule="evenodd" clip-rule="evenodd" d="M116.154 47.2713H116.942L116.808 47.8815C117.016 47.6737 117.228 47.5101 117.444 47.3951C117.758 47.2227 118.094 47.1387 118.463 47.1387C119.007 47.1387 119.422 47.3376 119.712 47.74C120.003 48.138 120.067 48.7128 119.901 49.4513C119.68 50.455 119.247 51.1713 118.606 51.6003C118.2 51.8744 117.767 52.0071 117.306 52.0071C116.946 52.0071 116.661 51.9275 116.444 51.7815C116.319 51.6975 116.195 51.5472 116.066 51.3394L115.545 53.6918H114.738L116.158 47.2713H116.154ZM119.058 49.5264C119.141 49.1594 119.155 48.8455 119.099 48.5802C119.002 48.0717 118.68 47.8196 118.122 47.8196C117.564 47.8196 117.122 48.0894 116.799 48.6244C116.624 48.9118 116.485 49.2744 116.389 49.7166C116.31 50.0747 116.301 50.3754 116.356 50.623C116.458 51.1006 116.785 51.3394 117.338 51.3394C117.716 51.3394 118.062 51.1846 118.38 50.8839C118.698 50.5788 118.924 50.1278 119.053 49.5264" fill="#003DA6"/>
<path fill-rule="evenodd" clip-rule="evenodd" d="M121.26 47.2713H122.043L121.91 47.8815C122.117 47.6737 122.329 47.5101 122.546 47.3951C122.855 47.2227 123.196 47.1387 123.56 47.1387C124.104 47.1387 124.524 47.3376 124.809 47.74C125.1 48.138 125.164 48.7128 124.998 49.4513C124.777 50.455 124.344 51.1713 123.708 51.6003C123.297 51.8744 122.869 52.0071 122.408 52.0071C122.048 52.0071 121.762 51.9275 121.546 51.7815C121.421 51.6975 121.292 51.5472 121.168 51.3394L120.647 53.6918H119.84L121.26 47.2713ZM124.164 49.5264C124.242 49.1594 124.256 48.8455 124.205 48.5802C124.113 48.0717 123.786 47.8196 123.228 47.8196C122.67 47.8196 122.228 48.0894 121.9 48.6244C121.73 48.9118 121.592 49.2744 121.495 49.7166C121.416 50.0747 121.407 50.3754 121.463 50.623C121.569 51.1006 121.896 51.3394 122.449 51.3394C122.822 51.3394 123.173 51.1846 123.486 50.8839C123.804 50.5788 124.03 50.1278 124.164 49.5264Z" fill="#003DA6"/>
<path fill-rule="evenodd" clip-rule="evenodd" d="M126.429 47.2699H127.25L126.24 51.8553H125.42L126.434 47.2699H126.429ZM126.812 45.541H127.637L127.439 46.4165H126.619L126.817 45.541H126.812Z" fill="#003DA6"/>
<path fill-rule="evenodd" clip-rule="evenodd" d="M132.029 47.9719C132.139 48.2063 132.185 48.476 132.172 48.7811C132.172 48.9934 132.126 49.3294 132.02 49.7937H128.507C128.415 50.2624 128.447 50.6383 128.604 50.9168C128.76 51.1998 129.06 51.3413 129.512 51.3413C129.931 51.3413 130.295 51.2087 130.604 50.9434C130.779 50.7886 130.927 50.6117 131.028 50.4039H131.821C131.761 50.5719 131.651 50.7621 131.489 50.9699C131.328 51.1777 131.153 51.3502 130.982 51.4784C130.687 51.7083 130.346 51.8631 129.968 51.9427C129.765 51.9869 129.539 52.009 129.29 52.009C128.696 52.009 128.23 51.8012 127.912 51.3855C127.589 50.9699 127.511 50.3862 127.682 49.6345C127.848 48.8961 128.189 48.2947 128.705 47.8304C129.226 47.3706 129.825 47.1406 130.498 47.1406C130.839 47.1406 131.153 47.2158 131.439 47.3706C131.729 47.5209 131.927 47.7199 132.038 47.9675M131.337 49.1791C131.379 48.843 131.36 48.5733 131.287 48.3743C131.148 48.0029 130.821 47.8127 130.309 47.8127C129.936 47.8127 129.599 47.941 129.29 48.1974C128.982 48.4539 128.774 48.7811 128.673 49.1746H131.337V49.1791Z" fill="#003DA6"/>
<path fill-rule="evenodd" clip-rule="evenodd" d="M133.596 47.2482H134.361L134.186 48.0441C134.283 47.8893 134.476 47.7036 134.771 47.4781C135.066 47.257 135.37 47.1465 135.693 47.1465C135.712 47.1465 135.735 47.1465 135.767 47.1465C135.804 47.1465 135.864 47.1553 135.951 47.1642L135.767 47.9822C135.721 47.9734 135.675 47.9645 135.638 47.9645C135.596 47.9645 135.555 47.9645 135.504 47.9645C135.099 47.9645 134.757 48.0883 134.485 48.3404C134.213 48.588 134.038 48.8798 133.964 49.2026L133.379 51.8513H132.572L133.591 47.2438L133.596 47.2482Z" fill="#003DA6"/>
</g>
<defs>
<clipPath id="clip0_795_22241">
<rect width="142.4" height="64" rx="5.40845" fill="white"/>
</clipPath>
</defs>
</svg>
