<svg width="308" height="437" viewBox="0 0 308 437" fill="none" xmlns="http://www.w3.org/2000/svg">
<rect width="308" height="437" rx="16" fill="#F6F8FB"/>
<path d="M46.608 123.864C42.864 123.864 39.696 123.168 37.104 121.776C34.512 120.384 32.496 118.56 31.056 116.304C29.664 114.048 28.824 111.648 28.536 109.104H37.896C38.376 111.168 39.36 112.776 40.848 113.928C42.384 115.032 44.328 115.584 46.68 115.584C50.568 115.584 53.52 113.808 55.536 110.256C57.552 106.656 58.344 101.232 57.912 93.984L58.848 97.656C58.128 99.048 57.072 100.32 55.68 101.472C54.336 102.624 52.752 103.536 50.928 104.208C49.104 104.88 47.088 105.216 44.88 105.216C41.808 105.216 38.952 104.544 36.312 103.2C33.672 101.856 31.536 99.96 29.904 97.512C28.272 95.064 27.456 92.16 27.456 88.8C27.456 85.728 28.248 82.896 29.832 80.304C31.416 77.712 33.624 75.648 36.456 74.112C39.288 72.528 42.552 71.736 46.248 71.736C50.28 71.736 53.664 72.456 56.4 73.896C59.184 75.288 61.416 77.16 63.096 79.512C64.776 81.864 65.976 84.504 66.696 87.432C67.464 90.312 67.848 93.24 67.848 96.216C67.848 101.832 67.008 106.728 65.328 110.904C63.648 115.032 61.224 118.224 58.056 120.48C54.888 122.736 51.072 123.864 46.608 123.864ZM46.896 96.72C49.008 96.72 50.808 96.408 52.296 95.784C53.784 95.112 54.912 94.176 55.68 92.976C56.496 91.776 56.904 90.336 56.904 88.656C56.904 86.928 56.496 85.44 55.68 84.192C54.864 82.944 53.688 82.008 52.152 81.384C50.664 80.712 48.864 80.376 46.752 80.376C44.736 80.376 43.008 80.712 41.568 81.384C40.128 82.008 39.024 82.92 38.256 84.12C37.488 85.32 37.104 86.784 37.104 88.512C37.104 90.24 37.488 91.728 38.256 92.976C39.072 94.176 40.2 95.112 41.64 95.784C43.128 96.408 44.88 96.72 46.896 96.72ZM88.7561 119.328V86.424H76.0121V79.08L85.7321 78.36C86.6441 78.264 87.3641 77.976 87.8921 77.496C88.4681 77.016 88.7561 76.32 88.7561 75.408V72.6H98.8361V119.328H88.7561ZM74.2121 123V114.792H113.092V123H74.2121ZM126.584 123L154.736 72.6H164.528L136.376 123H126.584ZM128.816 97.728C126.464 97.728 124.328 97.224 122.408 96.216C120.536 95.16 119.024 93.672 117.872 91.752C116.768 89.784 116.216 87.456 116.216 84.768C116.216 82.032 116.768 79.704 117.872 77.784C119.024 75.816 120.56 74.328 122.48 73.32C124.4 72.264 126.536 71.736 128.888 71.736C131.24 71.736 133.352 72.264 135.224 73.32C137.144 74.328 138.656 75.816 139.76 77.784C140.864 79.704 141.416 82.032 141.416 84.768C141.416 87.456 140.864 89.784 139.76 91.752C138.656 93.672 137.144 95.16 135.224 96.216C133.352 97.224 131.216 97.728 128.816 97.728ZM128.816 90.888C130.208 90.888 131.336 90.36 132.2 89.304C133.112 88.248 133.568 86.736 133.568 84.768C133.568 82.704 133.112 81.144 132.2 80.088C131.336 79.032 130.208 78.504 128.816 78.504C127.472 78.504 126.344 79.032 125.432 80.088C124.52 81.144 124.064 82.704 124.064 84.768C124.064 86.736 124.52 88.248 125.432 89.304C126.344 90.36 127.472 90.888 128.816 90.888ZM162.584 123.864C160.232 123.864 158.096 123.36 156.176 122.352C154.304 121.296 152.792 119.808 151.64 117.888C150.536 115.92 149.984 113.592 149.984 110.904C149.984 108.216 150.536 105.912 151.64 103.992C152.792 102.024 154.304 100.536 156.176 99.528C158.096 98.472 160.232 97.944 162.584 97.944C164.984 97.944 167.12 98.472 168.992 99.528C170.912 100.536 172.424 102.024 173.528 103.992C174.632 105.912 175.184 108.216 175.184 110.904C175.184 113.592 174.608 115.92 173.456 117.888C172.352 119.808 170.84 121.296 168.92 122.352C167.048 123.36 164.936 123.864 162.584 123.864ZM162.512 117.024C163.904 117.024 165.056 116.496 165.968 115.44C166.88 114.384 167.336 112.872 167.336 110.904C167.336 108.84 166.88 107.304 165.968 106.296C165.104 105.24 163.976 104.712 162.584 104.712C161.24 104.712 160.112 105.24 159.2 106.296C158.288 107.304 157.832 108.84 157.832 110.904C157.832 112.872 158.264 114.384 159.128 115.44C160.04 116.496 161.168 117.024 162.512 117.024Z" fill="url(#paint0_linear_795_22403)"/>
<path d="M37.284 188.432C34.74 188.432 32.544 187.892 30.696 186.812C28.872 185.708 27.468 184.184 26.484 182.24C25.5 180.272 25.008 178.004 25.008 175.436C25.008 172.868 25.5 170.6 26.484 168.632C27.468 166.664 28.872 165.128 30.696 164.024C32.544 162.92 34.74 162.368 37.284 162.368C40.356 162.368 42.876 163.136 44.844 164.672C46.812 166.208 48.024 168.368 48.48 171.152H42.936C42.648 169.808 42.012 168.776 41.028 168.056C40.068 167.312 38.796 166.94 37.212 166.94C35.724 166.94 34.452 167.288 33.396 167.984C32.34 168.656 31.524 169.628 30.948 170.9C30.396 172.172 30.12 173.684 30.12 175.436C30.12 177.188 30.396 178.7 30.948 179.972C31.524 181.22 32.34 182.192 33.396 182.888C34.452 183.56 35.724 183.896 37.212 183.896C38.796 183.896 40.068 183.56 41.028 182.888C41.988 182.192 42.612 181.208 42.9 179.936H48.444C47.988 182.6 46.776 184.688 44.808 186.2C42.864 187.688 40.356 188.432 37.284 188.432ZM58.6089 188.432C56.8089 188.432 55.1769 188.036 53.7129 187.244C52.2729 186.452 51.1209 185.348 50.2569 183.932C49.4169 182.516 48.9969 180.896 48.9969 179.072C48.9969 177.224 49.4169 175.604 50.2569 174.212C51.1209 172.796 52.2849 171.692 53.7489 170.9C55.2129 170.108 56.8329 169.712 58.6089 169.712C60.4089 169.712 62.0289 170.108 63.4689 170.9C64.9329 171.692 66.0849 172.796 66.9249 174.212C67.7889 175.604 68.2209 177.224 68.2209 179.072C68.2209 180.896 67.7889 182.516 66.9249 183.932C66.0849 185.348 64.9329 186.452 63.4689 187.244C62.0289 188.036 60.4089 188.432 58.6089 188.432ZM58.6089 184.076C59.4249 184.076 60.1689 183.896 60.8409 183.536C61.5129 183.152 62.0409 182.588 62.4249 181.844C62.8329 181.1 63.0369 180.176 63.0369 179.072C63.0369 177.968 62.8329 177.044 62.4249 176.3C62.0169 175.556 61.4769 175.004 60.8049 174.644C60.1569 174.26 59.4369 174.068 58.6449 174.068C57.8289 174.068 57.0849 174.26 56.4129 174.644C55.7409 175.004 55.2009 175.556 54.7929 176.3C54.3849 177.02 54.1809 177.944 54.1809 179.072C54.1809 180.176 54.3729 181.1 54.7569 181.844C55.1649 182.588 55.7049 183.152 56.3769 183.536C57.0489 183.896 57.7929 184.076 58.6089 184.076ZM69.5591 188V170.144H74.5991V172.772C75.1751 171.836 75.9551 171.092 76.9391 170.54C77.9471 169.988 79.1231 169.712 80.4671 169.712C82.7231 169.712 84.4511 170.432 85.6511 171.872C86.8511 173.288 87.4511 175.34 87.4511 178.028V188H82.4111V178.496C82.4111 177.032 82.1111 175.916 81.5111 175.148C80.9351 174.356 80.0111 173.96 78.7391 173.96C77.5391 173.96 76.5431 174.392 75.7511 175.256C74.9831 176.096 74.5991 177.272 74.5991 178.784V188H69.5591ZM96.7914 188.432C94.3914 188.432 92.4234 187.868 90.8874 186.74C89.3514 185.612 88.4874 184.136 88.2954 182.312H93.4434C93.6114 183.008 94.0194 183.572 94.6674 184.004C95.3154 184.412 96.0834 184.616 96.9714 184.616C97.9554 184.616 98.6994 184.448 99.2034 184.112C99.7314 183.752 99.9954 183.32 99.9954 182.816C99.9954 182.408 99.8034 182.084 99.4194 181.844C99.0354 181.58 98.3754 181.4 97.4394 181.304C97.1034 181.256 96.6354 181.184 96.0354 181.088C95.4594 180.992 94.9914 180.908 94.6314 180.836C93.6234 180.644 92.6994 180.332 91.8594 179.9C91.0434 179.444 90.3954 178.856 89.9154 178.136C89.4354 177.392 89.1954 176.492 89.1954 175.436C89.1954 173.828 89.7954 172.472 90.9954 171.368C92.1954 170.264 93.9594 169.712 96.2874 169.712C98.6394 169.712 100.487 170.228 101.831 171.26C103.199 172.292 103.967 173.72 104.135 175.544H99.2754C99.2034 174.896 98.8794 174.404 98.3034 174.068C97.7274 173.732 97.0674 173.564 96.3234 173.564C95.4114 173.564 94.7274 173.72 94.2714 174.032C93.8154 174.344 93.5874 174.728 93.5874 175.184C93.5874 175.928 94.3314 176.432 95.8194 176.696C96.0354 176.72 96.3354 176.768 96.7194 176.84C97.1274 176.888 97.5354 176.948 97.9434 177.02C98.3754 177.068 98.7114 177.116 98.9514 177.164C99.6714 177.26 100.367 177.428 101.039 177.668C101.735 177.884 102.347 178.184 102.875 178.568C103.427 178.952 103.859 179.456 104.171 180.08C104.483 180.704 104.639 181.472 104.639 182.384C104.639 183.584 104.339 184.64 103.739 185.552C103.139 186.464 102.251 187.172 101.075 187.676C99.9234 188.18 98.4954 188.432 96.7914 188.432ZM112.176 188.432C110.112 188.432 108.492 187.724 107.316 186.308C106.14 184.868 105.552 182.804 105.552 180.116V170.144H110.556V179.648C110.556 181.112 110.832 182.24 111.384 183.032C111.936 183.8 112.764 184.184 113.868 184.184C115.068 184.184 115.992 183.764 116.64 182.924C117.312 182.06 117.648 180.872 117.648 179.36V170.144H122.688V188H117.648V185.444C117.12 186.356 116.4 187.088 115.488 187.64C114.6 188.168 113.496 188.432 112.176 188.432ZM124.563 188V170.144H129.603V172.268C130.179 171.476 130.923 170.852 131.835 170.396C132.771 169.94 133.839 169.712 135.039 169.712C136.383 169.712 137.535 169.976 138.495 170.504C139.479 171.032 140.259 171.8 140.835 172.808C141.507 171.848 142.383 171.092 143.463 170.54C144.543 169.988 145.743 169.712 147.063 169.712C149.439 169.712 151.239 170.432 152.463 171.872C153.711 173.288 154.335 175.34 154.335 178.028V188H149.331V178.496C149.331 177.032 149.055 175.916 148.503 175.148C147.951 174.356 147.075 173.96 145.875 173.96C144.699 173.96 143.751 174.392 143.031 175.256C142.335 176.096 141.987 177.272 141.987 178.784V188H136.983V178.496C136.983 177.032 136.695 175.916 136.119 175.148C135.543 174.356 134.655 173.96 133.455 173.96C132.303 173.96 131.367 174.392 130.647 175.256C129.951 176.096 129.603 177.272 129.603 178.784V188H124.563ZM165.078 188.432C163.23 188.432 161.598 188.048 160.182 187.28C158.766 186.488 157.662 185.408 156.87 184.04C156.078 182.648 155.682 181.052 155.682 179.252C155.682 177.404 156.066 175.76 156.834 174.32C157.626 172.88 158.73 171.752 160.146 170.936C161.562 170.12 163.206 169.712 165.078 169.712C166.854 169.712 168.426 170.096 169.794 170.864C171.162 171.632 172.23 172.688 172.998 174.032C173.766 175.352 174.15 176.864 174.15 178.568C174.15 178.808 174.15 179.084 174.15 179.396C174.15 179.684 174.126 179.984 174.078 180.296H159.282V177.272H169.038C168.966 176.216 168.558 175.376 167.814 174.752C167.094 174.104 166.194 173.78 165.114 173.78C164.298 173.78 163.542 173.96 162.846 174.32C162.174 174.68 161.634 175.232 161.226 175.976C160.842 176.696 160.65 177.62 160.65 178.748V179.792C160.65 180.704 160.83 181.508 161.19 182.204C161.574 182.876 162.09 183.404 162.738 183.788C163.41 184.148 164.178 184.328 165.042 184.328C165.882 184.328 166.59 184.148 167.166 183.788C167.742 183.404 168.186 182.912 168.498 182.312H173.646C173.31 183.464 172.734 184.508 171.918 185.444C171.126 186.356 170.142 187.088 168.966 187.64C167.814 188.168 166.518 188.432 165.078 188.432ZM175.541 188V170.144H180.581V172.844C181.061 171.956 181.661 171.26 182.381 170.756C183.101 170.228 183.917 169.964 184.829 169.964H187.025V174.428H184.325C183.437 174.428 182.717 174.656 182.165 175.112C181.613 175.568 181.205 176.252 180.941 177.164C180.701 178.052 180.581 179.144 180.581 180.44V188H175.541ZM35.124 242.432C33.972 242.432 32.82 242.276 31.668 241.964C30.516 241.628 29.448 241.112 28.464 240.416C27.504 239.696 26.7 238.772 26.052 237.644C25.404 236.492 25.008 235.112 24.864 233.504H29.472C29.688 234.728 30.096 235.676 30.696 236.348C31.32 236.996 32.04 237.452 32.856 237.716C33.672 237.98 34.464 238.112 35.232 238.112C36.12 238.112 36.9 237.968 37.572 237.68C38.268 237.392 38.808 236.996 39.192 236.492C39.6 235.988 39.804 235.424 39.804 234.8C39.804 234.104 39.612 233.48 39.228 232.928C38.844 232.376 37.992 231.98 36.672 231.74L32.604 230.984C30.468 230.576 28.812 229.736 27.636 228.464C26.46 227.168 25.872 225.644 25.872 223.892C25.872 222.308 26.268 220.964 27.06 219.86C27.852 218.732 28.92 217.868 30.264 217.268C31.608 216.668 33.096 216.368 34.728 216.368C36.432 216.368 37.956 216.656 39.3 217.232C40.668 217.808 41.772 218.708 42.612 219.932C43.476 221.132 43.992 222.692 44.16 224.612H39.48C39.312 223.532 38.988 222.716 38.508 222.164C38.028 221.588 37.464 221.192 36.816 220.976C36.168 220.76 35.52 220.652 34.872 220.652C34.272 220.652 33.624 220.748 32.928 220.94C32.256 221.132 31.68 221.456 31.2 221.912C30.744 222.368 30.516 223.004 30.516 223.82C30.516 224.492 30.756 225.092 31.236 225.62C31.74 226.148 32.592 226.52 33.792 226.736L37.536 227.42C39.672 227.804 41.364 228.56 42.612 229.688C43.86 230.792 44.484 232.448 44.484 234.656C44.484 235.904 44.208 237.008 43.656 237.968C43.128 238.928 42.408 239.744 41.496 240.416C40.608 241.064 39.612 241.568 38.508 241.928C37.404 242.264 36.276 242.432 35.124 242.432ZM52.0735 242.432C50.7535 242.432 49.6135 242.192 48.6535 241.712C47.6935 241.232 46.9495 240.584 46.4215 239.768C45.9175 238.952 45.6655 238.052 45.6655 237.068C45.6655 235.22 46.3255 233.792 47.6455 232.784C48.9895 231.752 50.7415 231.236 52.9015 231.236C53.9335 231.236 54.8095 231.308 55.5295 231.452C56.2735 231.596 56.8735 231.74 57.3295 231.884V231.02C57.3295 229.844 56.9815 228.992 56.2855 228.464C55.6135 227.936 54.7495 227.672 53.6935 227.672C52.9735 227.672 52.3255 227.816 51.7495 228.104C51.1735 228.392 50.8015 228.92 50.6335 229.688H45.9175C46.0615 228.416 46.4815 227.336 47.1775 226.448C47.8975 225.56 48.8215 224.888 49.9495 224.432C51.0775 223.952 52.3255 223.712 53.6935 223.712C56.3815 223.712 58.4935 224.348 60.0295 225.62C61.5895 226.868 62.3695 228.668 62.3695 231.02V234.728C62.3695 235.64 62.4175 236.324 62.5135 236.78C62.6335 237.212 62.8135 237.488 63.0535 237.608C63.2935 237.728 63.6055 237.788 63.9895 237.788H64.1335V242H63.0175C61.7215 242 60.6415 241.844 59.7775 241.532C58.9135 241.196 58.2775 240.56 57.8695 239.624C57.2455 240.44 56.4415 241.112 55.4575 241.64C54.4735 242.168 53.3455 242.432 52.0735 242.432ZM53.2615 238.616C53.9575 238.616 54.5455 238.472 55.0255 238.184C55.5295 237.872 55.9495 237.452 56.2855 236.924C56.6215 236.372 56.8735 235.76 57.0415 235.088C56.5615 234.944 55.9975 234.812 55.3495 234.692C54.7255 234.548 54.0895 234.476 53.4415 234.476C52.6975 234.476 52.0615 234.668 51.5335 235.052C51.0055 235.412 50.7415 235.94 50.7415 236.636C50.7415 237.212 50.9695 237.692 51.4255 238.076C51.8815 238.436 52.4935 238.616 53.2615 238.616ZM72.0926 242C70.8446 242 69.7886 241.856 68.9246 241.568C68.0846 241.28 67.4486 240.728 67.0166 239.912C66.5846 239.072 66.3686 237.872 66.3686 236.312V228.356H63.3086V224.144H66.3686V219.248H71.4086V224.144H75.8006V228.356H71.4086V235.7C71.4086 236.252 71.4686 236.672 71.5886 236.96C71.7086 237.248 71.9246 237.452 72.2366 237.572C72.5726 237.668 73.0166 237.716 73.5686 237.716H75.6926V242H72.0926ZM76.5735 242V224.144H81.6135V242H76.5735ZM76.7895 221.3V216.62H81.4695V221.3H76.7895ZM91.1144 242.432C88.7144 242.432 86.7464 241.868 85.2104 240.74C83.6744 239.612 82.8104 238.136 82.6184 236.312H87.7664C87.9344 237.008 88.3424 237.572 88.9904 238.004C89.6384 238.412 90.4064 238.616 91.2944 238.616C92.2784 238.616 93.0224 238.448 93.5264 238.112C94.0544 237.752 94.3184 237.32 94.3184 236.816C94.3184 236.408 94.1264 236.084 93.7424 235.844C93.3584 235.58 92.6984 235.4 91.7624 235.304C91.4264 235.256 90.9584 235.184 90.3584 235.088C89.7824 234.992 89.3144 234.908 88.9544 234.836C87.9464 234.644 87.0224 234.332 86.1824 233.9C85.3664 233.444 84.7184 232.856 84.2384 232.136C83.7584 231.392 83.5184 230.492 83.5184 229.436C83.5184 227.828 84.1184 226.472 85.3184 225.368C86.5184 224.264 88.2824 223.712 90.6104 223.712C92.9624 223.712 94.8104 224.228 96.1544 225.26C97.5224 226.292 98.2904 227.72 98.4584 229.544H93.5984C93.5264 228.896 93.2024 228.404 92.6264 228.068C92.0504 227.732 91.3904 227.564 90.6464 227.564C89.7344 227.564 89.0504 227.72 88.5944 228.032C88.1384 228.344 87.9104 228.728 87.9104 229.184C87.9104 229.928 88.6544 230.432 90.1424 230.696C90.3584 230.72 90.6584 230.768 91.0424 230.84C91.4504 230.888 91.8584 230.948 92.2664 231.02C92.6984 231.068 93.0344 231.116 93.2744 231.164C93.9944 231.26 94.6904 231.428 95.3624 231.668C96.0584 231.884 96.6704 232.184 97.1984 232.568C97.7504 232.952 98.1824 233.456 98.4944 234.08C98.8064 234.704 98.9624 235.472 98.9624 236.384C98.9624 237.584 98.6624 238.64 98.0624 239.552C97.4624 240.464 96.5744 241.172 95.3984 241.676C94.2464 242.18 92.8184 242.432 91.1144 242.432ZM101.391 242V222.056C101.391 220.304 101.583 219.008 101.967 218.168C102.375 217.304 103.023 216.74 103.911 216.476C104.823 216.212 106.023 216.08 107.511 216.08H109.779V220.364H108.519C107.679 220.364 107.115 220.496 106.827 220.76C106.563 221.024 106.431 221.552 106.431 222.344V242H101.391ZM98.9793 228.356V224.144H109.779V228.356H98.9793ZM116.677 242.432C115.357 242.432 114.217 242.192 113.257 241.712C112.297 241.232 111.553 240.584 111.025 239.768C110.521 238.952 110.269 238.052 110.269 237.068C110.269 235.22 110.929 233.792 112.249 232.784C113.593 231.752 115.345 231.236 117.505 231.236C118.537 231.236 119.413 231.308 120.133 231.452C120.877 231.596 121.477 231.74 121.933 231.884V231.02C121.933 229.844 121.585 228.992 120.889 228.464C120.217 227.936 119.353 227.672 118.297 227.672C117.577 227.672 116.929 227.816 116.353 228.104C115.777 228.392 115.405 228.92 115.237 229.688H110.521C110.665 228.416 111.085 227.336 111.781 226.448C112.501 225.56 113.425 224.888 114.553 224.432C115.681 223.952 116.929 223.712 118.297 223.712C120.985 223.712 123.097 224.348 124.633 225.62C126.193 226.868 126.973 228.668 126.973 231.02V234.728C126.973 235.64 127.021 236.324 127.117 236.78C127.237 237.212 127.417 237.488 127.657 237.608C127.897 237.728 128.209 237.788 128.593 237.788H128.737V242H127.621C126.325 242 125.245 241.844 124.381 241.532C123.517 241.196 122.881 240.56 122.473 239.624C121.849 240.44 121.045 241.112 120.061 241.64C119.077 242.168 117.949 242.432 116.677 242.432ZM117.865 238.616C118.561 238.616 119.149 238.472 119.629 238.184C120.133 237.872 120.553 237.452 120.889 236.924C121.225 236.372 121.477 235.76 121.645 235.088C121.165 234.944 120.601 234.812 119.953 234.692C119.329 234.548 118.693 234.476 118.045 234.476C117.301 234.476 116.665 234.668 116.137 235.052C115.609 235.412 115.345 235.94 115.345 236.636C115.345 237.212 115.573 237.692 116.029 238.076C116.485 238.436 117.097 238.616 117.865 238.616ZM138.342 242.432C136.494 242.432 134.862 242.036 133.446 241.244C132.03 240.428 130.914 239.324 130.098 237.932C129.306 236.516 128.91 234.896 128.91 233.072C128.91 231.248 129.306 229.64 130.098 228.248C130.914 226.832 132.03 225.728 133.446 224.936C134.862 224.12 136.494 223.712 138.342 223.712C140.646 223.712 142.59 224.324 144.174 225.548C145.758 226.748 146.778 228.416 147.234 230.552H141.906C141.69 229.784 141.258 229.172 140.61 228.716C139.962 228.26 139.194 228.032 138.306 228.032C137.514 228.032 136.794 228.236 136.146 228.644C135.498 229.052 134.982 229.628 134.598 230.372C134.238 231.116 134.058 232.016 134.058 233.072C134.058 234.104 134.238 235.004 134.598 235.772C134.982 236.54 135.498 237.128 136.146 237.536C136.794 237.944 137.514 238.148 138.306 238.148C139.194 238.148 139.962 237.932 140.61 237.5C141.258 237.044 141.69 236.408 141.906 235.592H147.234C146.802 237.656 145.782 239.312 144.174 240.56C142.59 241.808 140.646 242.432 138.342 242.432ZM155.769 242C154.521 242 153.465 241.856 152.601 241.568C151.761 241.28 151.125 240.728 150.693 239.912C150.261 239.072 150.045 237.872 150.045 236.312V228.356H146.985V224.144H150.045V219.248H155.085V224.144H159.477V228.356H155.085V235.7C155.085 236.252 155.145 236.672 155.265 236.96C155.385 237.248 155.601 237.452 155.913 237.572C156.249 237.668 156.693 237.716 157.245 237.716H159.369V242H155.769ZM160.25 242V224.144H165.29V242H160.25ZM160.466 221.3V216.62H165.146V221.3H160.466ZM176.231 242.432C174.431 242.432 172.799 242.036 171.335 241.244C169.895 240.452 168.743 239.348 167.879 237.932C167.039 236.516 166.619 234.896 166.619 233.072C166.619 231.224 167.039 229.604 167.879 228.212C168.743 226.796 169.907 225.692 171.371 224.9C172.835 224.108 174.455 223.712 176.231 223.712C178.031 223.712 179.651 224.108 181.091 224.9C182.555 225.692 183.707 226.796 184.547 228.212C185.411 229.604 185.843 231.224 185.843 233.072C185.843 234.896 185.411 236.516 184.547 237.932C183.707 239.348 182.555 240.452 181.091 241.244C179.651 242.036 178.031 242.432 176.231 242.432ZM176.231 238.076C177.047 238.076 177.791 237.896 178.463 237.536C179.135 237.152 179.663 236.588 180.047 235.844C180.455 235.1 180.659 234.176 180.659 233.072C180.659 231.968 180.455 231.044 180.047 230.3C179.639 229.556 179.099 229.004 178.427 228.644C177.779 228.26 177.059 228.068 176.267 228.068C175.451 228.068 174.707 228.26 174.035 228.644C173.363 229.004 172.823 229.556 172.415 230.3C172.007 231.02 171.803 231.944 171.803 233.072C171.803 234.176 171.995 235.1 172.379 235.844C172.787 236.588 173.327 237.152 173.999 237.536C174.671 237.896 175.415 238.076 176.231 238.076ZM187.181 242V224.144H192.221V226.772C192.797 225.836 193.577 225.092 194.561 224.54C195.569 223.988 196.745 223.712 198.089 223.712C200.345 223.712 202.073 224.432 203.273 225.872C204.473 227.288 205.073 229.34 205.073 232.028V242H200.033V232.496C200.033 231.032 199.733 229.916 199.133 229.148C198.557 228.356 197.633 227.96 196.361 227.96C195.161 227.96 194.165 228.392 193.373 229.256C192.605 230.096 192.221 231.272 192.221 232.784V242H187.181ZM35.124 296.432C33.972 296.432 32.82 296.276 31.668 295.964C30.516 295.628 29.448 295.112 28.464 294.416C27.504 293.696 26.7 292.772 26.052 291.644C25.404 290.492 25.008 289.112 24.864 287.504H29.472C29.688 288.728 30.096 289.676 30.696 290.348C31.32 290.996 32.04 291.452 32.856 291.716C33.672 291.98 34.464 292.112 35.232 292.112C36.12 292.112 36.9 291.968 37.572 291.68C38.268 291.392 38.808 290.996 39.192 290.492C39.6 289.988 39.804 289.424 39.804 288.8C39.804 288.104 39.612 287.48 39.228 286.928C38.844 286.376 37.992 285.98 36.672 285.74L32.604 284.984C30.468 284.576 28.812 283.736 27.636 282.464C26.46 281.168 25.872 279.644 25.872 277.892C25.872 276.308 26.268 274.964 27.06 273.86C27.852 272.732 28.92 271.868 30.264 271.268C31.608 270.668 33.096 270.368 34.728 270.368C36.432 270.368 37.956 270.656 39.3 271.232C40.668 271.808 41.772 272.708 42.612 273.932C43.476 275.132 43.992 276.692 44.16 278.612H39.48C39.312 277.532 38.988 276.716 38.508 276.164C38.028 275.588 37.464 275.192 36.816 274.976C36.168 274.76 35.52 274.652 34.872 274.652C34.272 274.652 33.624 274.748 32.928 274.94C32.256 275.132 31.68 275.456 31.2 275.912C30.744 276.368 30.516 277.004 30.516 277.82C30.516 278.492 30.756 279.092 31.236 279.62C31.74 280.148 32.592 280.52 33.792 280.736L37.536 281.42C39.672 281.804 41.364 282.56 42.612 283.688C43.86 284.792 44.484 286.448 44.484 288.656C44.484 289.904 44.208 291.008 43.656 291.968C43.128 292.928 42.408 293.744 41.496 294.416C40.608 295.064 39.612 295.568 38.508 295.928C37.404 296.264 36.276 296.432 35.124 296.432ZM54.7358 296.432C52.8878 296.432 51.2558 296.036 49.8398 295.244C48.4238 294.428 47.3078 293.324 46.4918 291.932C45.6998 290.516 45.3038 288.896 45.3038 287.072C45.3038 285.248 45.6998 283.64 46.4918 282.248C47.3078 280.832 48.4238 279.728 49.8398 278.936C51.2558 278.12 52.8878 277.712 54.7358 277.712C57.0398 277.712 58.9838 278.324 60.5678 279.548C62.1518 280.748 63.1718 282.416 63.6278 284.552H58.2998C58.0838 283.784 57.6518 283.172 57.0038 282.716C56.3558 282.26 55.5878 282.032 54.6998 282.032C53.9078 282.032 53.1878 282.236 52.5398 282.644C51.8918 283.052 51.3758 283.628 50.9918 284.372C50.6318 285.116 50.4518 286.016 50.4518 287.072C50.4518 288.104 50.6318 289.004 50.9918 289.772C51.3758 290.54 51.8918 291.128 52.5398 291.536C53.1878 291.944 53.9078 292.148 54.6998 292.148C55.5878 292.148 56.3558 291.932 57.0038 291.5C57.6518 291.044 58.0838 290.408 58.2998 289.592H63.6278C63.1958 291.656 62.1758 293.312 60.5678 294.56C58.9838 295.808 57.0398 296.432 54.7358 296.432ZM73.9905 296.432C72.1905 296.432 70.5585 296.036 69.0945 295.244C67.6545 294.452 66.5025 293.348 65.6385 291.932C64.7985 290.516 64.3785 288.896 64.3785 287.072C64.3785 285.224 64.7985 283.604 65.6385 282.212C66.5025 280.796 67.6665 279.692 69.1305 278.9C70.5945 278.108 72.2145 277.712 73.9905 277.712C75.7905 277.712 77.4105 278.108 78.8505 278.9C80.3145 279.692 81.4665 280.796 82.3065 282.212C83.1705 283.604 83.6025 285.224 83.6025 287.072C83.6025 288.896 83.1705 290.516 82.3065 291.932C81.4665 293.348 80.3145 294.452 78.8505 295.244C77.4105 296.036 75.7905 296.432 73.9905 296.432ZM73.9905 292.076C74.8065 292.076 75.5505 291.896 76.2225 291.536C76.8945 291.152 77.4225 290.588 77.8065 289.844C78.2145 289.1 78.4185 288.176 78.4185 287.072C78.4185 285.968 78.2145 285.044 77.8065 284.3C77.3985 283.556 76.8585 283.004 76.1865 282.644C75.5385 282.26 74.8185 282.068 74.0265 282.068C73.2105 282.068 72.4665 282.26 71.7945 282.644C71.1225 283.004 70.5825 283.556 70.1745 284.3C69.7665 285.02 69.5625 285.944 69.5625 287.072C69.5625 288.176 69.7545 289.1 70.1385 289.844C70.5465 290.588 71.0865 291.152 71.7585 291.536C72.4305 291.896 73.1745 292.076 73.9905 292.076ZM84.9407 296V278.144H89.9807V280.844C90.4607 279.956 91.0607 279.26 91.7807 278.756C92.5007 278.228 93.3167 277.964 94.2287 277.964H96.4247V282.428H93.7247C92.8367 282.428 92.1167 282.656 91.5647 283.112C91.0127 283.568 90.6047 284.252 90.3407 285.164C90.1007 286.052 89.9807 287.144 89.9807 288.44V296H84.9407ZM104.995 296.432C103.147 296.432 101.515 296.048 100.099 295.28C98.6827 294.488 97.5787 293.408 96.7867 292.04C95.9947 290.648 95.5987 289.052 95.5987 287.252C95.5987 285.404 95.9827 283.76 96.7507 282.32C97.5427 280.88 98.6467 279.752 100.063 278.936C101.479 278.12 103.123 277.712 104.995 277.712C106.771 277.712 108.343 278.096 109.711 278.864C111.079 279.632 112.147 280.688 112.915 282.032C113.683 283.352 114.067 284.864 114.067 286.568C114.067 286.808 114.067 287.084 114.067 287.396C114.067 287.684 114.043 287.984 113.995 288.296H99.1987V285.272H108.955C108.883 284.216 108.475 283.376 107.731 282.752C107.011 282.104 106.111 281.78 105.031 281.78C104.215 281.78 103.459 281.96 102.763 282.32C102.091 282.68 101.551 283.232 101.143 283.976C100.759 284.696 100.567 285.62 100.567 286.748V287.792C100.567 288.704 100.747 289.508 101.107 290.204C101.491 290.876 102.007 291.404 102.655 291.788C103.327 292.148 104.095 292.328 104.959 292.328C105.799 292.328 106.507 292.148 107.083 291.788C107.659 291.404 108.103 290.912 108.415 290.312H113.563C113.227 291.464 112.651 292.508 111.835 293.444C111.043 294.356 110.059 295.088 108.883 295.64C107.731 296.168 106.435 296.432 104.995 296.432Z" fill="url(#paint1_linear_795_22403)"/>
<g clip-path="url(#clip0_795_22403)">
<path d="M50.4799 369.083C50.7392 368.46 51.6223 368.46 51.8816 369.083L55.018 376.624C55.1273 376.887 55.3745 377.067 55.6582 377.09L63.7993 377.742C64.4723 377.796 64.7452 378.636 64.2325 379.075L58.0298 384.389C57.8136 384.574 57.7192 384.864 57.7853 385.141L59.6803 393.085C59.8369 393.742 59.1225 394.261 58.5463 393.909L51.5764 389.652C51.3335 389.504 51.028 389.504 50.7851 389.652L43.8151 393.909C43.2389 394.261 42.5245 393.742 42.6812 393.085L44.5762 385.141C44.6422 384.864 44.5478 384.574 44.3316 384.389L38.129 379.075C37.6162 378.636 37.8891 377.796 38.5621 377.742L46.7032 377.09C46.987 377.067 47.2341 376.887 47.3434 376.624L50.4799 369.083Z" fill="#F5F5F5"/>
<g clip-path="url(#clip1_795_22403)">
<path d="M50.4799 369.083C50.7392 368.46 51.6223 368.46 51.8816 369.083L55.018 376.624C55.1273 376.887 55.3745 377.067 55.6582 377.09L63.7993 377.742C64.4723 377.796 64.7452 378.636 64.2325 379.075L58.0298 384.389C57.8136 384.574 57.7192 384.864 57.7853 385.141L59.6803 393.085C59.8369 393.742 59.1225 394.261 58.5463 393.909L51.5764 389.652C51.3335 389.504 51.028 389.504 50.7851 389.652L43.8151 393.909C43.2389 394.261 42.5245 393.742 42.6812 393.085L44.5762 385.141C44.6422 384.864 44.5478 384.574 44.3316 384.389L38.129 379.075C37.6162 378.636 37.8891 377.796 38.5621 377.742L46.7032 377.09C46.987 377.067 47.2341 376.887 47.3434 376.624L50.4799 369.083Z" fill="url(#paint2_linear_795_22403)"/>
</g>
</g>
<g clip-path="url(#clip2_795_22403)">
<path d="M101.89 369.083C102.149 368.46 103.032 368.46 103.292 369.083L106.428 376.624C106.537 376.887 106.785 377.067 107.068 377.09L115.209 377.742C115.882 377.796 116.155 378.636 115.643 379.075L109.44 384.389C109.224 384.574 109.129 384.864 109.195 385.141L111.09 393.085C111.247 393.742 110.533 394.261 109.956 393.909L102.987 389.652C102.744 389.504 102.438 389.504 102.195 389.652L95.2253 393.909C94.6491 394.261 93.9347 393.742 94.0913 393.085L95.9863 385.141C96.0524 384.864 95.958 384.574 95.7418 384.389L89.5391 379.075C89.0264 378.636 89.2993 377.796 89.9723 377.742L98.1134 377.09C98.3971 377.067 98.6443 376.887 98.7536 376.624L101.89 369.083Z" fill="#F5F5F5"/>
<g clip-path="url(#clip3_795_22403)">
<path d="M101.89 369.083C102.149 368.46 103.032 368.46 103.292 369.083L106.428 376.624C106.537 376.887 106.785 377.067 107.068 377.09L115.209 377.742C115.882 377.796 116.155 378.636 115.643 379.075L109.44 384.389C109.224 384.574 109.129 384.864 109.195 385.141L111.09 393.085C111.247 393.742 110.533 394.261 109.956 393.909L102.987 389.652C102.744 389.504 102.438 389.504 102.195 389.652L95.2253 393.909C94.6491 394.261 93.9347 393.742 94.0913 393.085L95.9863 385.141C96.0524 384.864 95.958 384.574 95.7418 384.389L89.5391 379.075C89.0264 378.636 89.2993 377.796 89.9723 377.742L98.1134 377.09C98.3971 377.067 98.6443 376.887 98.7536 376.624L101.89 369.083Z" fill="url(#paint3_linear_795_22403)"/>
</g>
</g>
<g clip-path="url(#clip4_795_22403)">
<path d="M153.298 369.083C153.558 368.46 154.441 368.46 154.7 369.083L157.836 376.624C157.946 376.887 158.193 377.067 158.477 377.09L166.618 377.742C167.291 377.796 167.564 378.636 167.051 379.075L160.848 384.389C160.632 384.574 160.538 384.864 160.604 385.141L162.499 393.085C162.655 393.742 161.941 394.261 161.365 393.909L154.395 389.652C154.152 389.504 153.846 389.504 153.603 389.652L146.633 393.909C146.057 394.261 145.343 393.742 145.5 393.085L147.395 385.141C147.461 384.864 147.366 384.574 147.15 384.389L140.947 379.075C140.435 378.636 140.707 377.796 141.38 377.742L149.522 377.09C149.805 377.067 150.052 376.887 150.162 376.624L153.298 369.083Z" fill="#F5F5F5"/>
<g clip-path="url(#clip5_795_22403)">
<path d="M153.298 369.083C153.558 368.46 154.441 368.46 154.7 369.083L157.836 376.624C157.946 376.887 158.193 377.067 158.477 377.09L166.618 377.742C167.291 377.796 167.564 378.636 167.051 379.075L160.848 384.389C160.632 384.574 160.538 384.864 160.604 385.141L162.499 393.085C162.655 393.742 161.941 394.261 161.365 393.909L154.395 389.652C154.152 389.504 153.846 389.504 153.603 389.652L146.633 393.909C146.057 394.261 145.343 393.742 145.5 393.085L147.395 385.141C147.461 384.864 147.366 384.574 147.15 384.389L140.947 379.075C140.435 378.636 140.707 377.796 141.38 377.742L149.522 377.09C149.805 377.067 150.052 376.887 150.162 376.624L153.298 369.083Z" fill="url(#paint4_linear_795_22403)"/>
</g>
</g>
<g clip-path="url(#clip6_795_22403)">
<path d="M204.708 369.083C204.968 368.46 205.851 368.46 206.11 369.083L209.247 376.624C209.356 376.887 209.603 377.067 209.887 377.09L218.028 377.742C218.701 377.796 218.974 378.636 218.461 379.075L212.258 384.389C212.042 384.574 211.948 384.864 212.014 385.141L213.909 393.085C214.065 393.742 213.351 394.261 212.775 393.909L205.805 389.652C205.562 389.504 205.256 389.504 205.014 389.652L198.044 393.909C197.467 394.261 196.753 393.742 196.91 393.085L198.805 385.141C198.871 384.864 198.776 384.574 198.56 384.389L192.357 379.075C191.845 378.636 192.118 377.796 192.791 377.742L200.932 377.09C201.215 377.067 201.463 376.887 201.572 376.624L204.708 369.083Z" fill="#F5F5F5"/>
<g clip-path="url(#clip7_795_22403)">
<path d="M204.708 369.083C204.968 368.46 205.851 368.46 206.11 369.083L209.247 376.624C209.356 376.887 209.603 377.067 209.887 377.09L218.028 377.742C218.701 377.796 218.974 378.636 218.461 379.075L212.258 384.389C212.042 384.574 211.948 384.864 212.014 385.141L213.909 393.085C214.065 393.742 213.351 394.261 212.775 393.909L205.805 389.652C205.562 389.504 205.256 389.504 205.014 389.652L198.044 393.909C197.467 394.261 196.753 393.742 196.91 393.085L198.805 385.141C198.871 384.864 198.776 384.574 198.56 384.389L192.357 379.075C191.845 378.636 192.118 377.796 192.791 377.742L200.932 377.09C201.215 377.067 201.463 376.887 201.572 376.624L204.708 369.083Z" fill="url(#paint5_linear_795_22403)"/>
</g>
</g>
<g clip-path="url(#clip8_795_22403)">
<path d="M256.119 369.083C256.378 368.46 257.261 368.46 257.52 369.083L260.657 376.624C260.766 376.887 261.013 377.067 261.297 377.09L269.438 377.742C270.111 377.796 270.384 378.636 269.871 379.075L263.668 384.389C263.452 384.574 263.358 384.864 263.424 385.141L265.319 393.085C265.476 393.742 264.761 394.261 264.185 393.909L257.215 389.652C256.972 389.504 256.667 389.504 256.424 389.652L249.454 393.909C248.878 394.261 248.163 393.742 248.32 393.085L250.215 385.141C250.281 384.864 250.186 384.574 249.97 384.389L243.768 379.075C243.255 378.636 243.528 377.796 244.201 377.742L252.342 377.09C252.626 377.067 252.873 376.887 252.982 376.624L256.119 369.083Z" fill="#C8DAF7"/>
<g clip-path="url(#clip9_795_22403)">
<path d="M256.119 369.083C256.378 368.46 257.261 368.46 257.52 369.083L260.657 376.624C260.766 376.887 261.013 377.067 261.297 377.09L269.438 377.742C270.111 377.796 270.384 378.636 269.871 379.075L263.668 384.389C263.452 384.574 263.358 384.864 263.424 385.141L265.319 393.085C265.476 393.742 264.761 394.261 264.185 393.909L257.215 389.652C256.972 389.504 256.667 389.504 256.424 389.652L249.454 393.909C248.878 394.261 248.163 393.742 248.32 393.085L250.215 385.141C250.281 384.864 250.186 384.574 249.97 384.389L243.768 379.075C243.255 378.636 243.528 377.796 244.201 377.742L252.342 377.09C252.626 377.067 252.873 376.887 252.982 376.624L256.119 369.083Z" fill="url(#paint6_linear_795_22403)"/>
</g>
</g>
<defs>
<linearGradient id="paint0_linear_795_22403" x1="24" y1="49.7849" x2="183.684" y2="62.5402" gradientUnits="userSpaceOnUse">
<stop offset="0.54933" stop-color="#1A3038"/>
<stop offset="1" stop-color="#003DA6"/>
</linearGradient>
<linearGradient id="paint1_linear_795_22403" x1="24" y1="161.665" x2="294.534" y2="187.96" gradientUnits="userSpaceOnUse">
<stop offset="0.54933" stop-color="#1A3038"/>
<stop offset="1" stop-color="#003DA6"/>
</linearGradient>
<linearGradient id="paint2_linear_795_22403" x1="36" y1="382.579" x2="66.3614" y2="382.579" gradientUnits="userSpaceOnUse">
<stop stop-color="#1A3038"/>
<stop offset="1" stop-color="#003DA6"/>
</linearGradient>
<linearGradient id="paint3_linear_795_22403" x1="87.4102" y1="382.579" x2="117.772" y2="382.579" gradientUnits="userSpaceOnUse">
<stop stop-color="#1A3038"/>
<stop offset="1" stop-color="#003DA6"/>
</linearGradient>
<linearGradient id="paint4_linear_795_22403" x1="138.818" y1="382.579" x2="169.18" y2="382.579" gradientUnits="userSpaceOnUse">
<stop stop-color="#1A3038"/>
<stop offset="1" stop-color="#003DA6"/>
</linearGradient>
<linearGradient id="paint5_linear_795_22403" x1="190.229" y1="382.579" x2="220.59" y2="382.579" gradientUnits="userSpaceOnUse">
<stop stop-color="#1A3038"/>
<stop offset="1" stop-color="#003DA6"/>
</linearGradient>
<linearGradient id="paint6_linear_795_22403" x1="241.639" y1="382.579" x2="272" y2="382.579" gradientUnits="userSpaceOnUse">
<stop stop-color="#1A3038"/>
<stop offset="1" stop-color="#003DA6"/>
</linearGradient>
<clipPath id="clip0_795_22403">
<rect width="30.3614" height="30.3614" fill="white" transform="translate(36 366.639)"/>
</clipPath>
<clipPath id="clip1_795_22403">
<rect width="30.3614" height="30.3614" fill="white" transform="translate(36 366.639)"/>
</clipPath>
<clipPath id="clip2_795_22403">
<rect width="30.3614" height="30.3614" fill="white" transform="translate(87.4102 366.639)"/>
</clipPath>
<clipPath id="clip3_795_22403">
<rect width="30.3614" height="30.3614" fill="white" transform="translate(87.4102 366.639)"/>
</clipPath>
<clipPath id="clip4_795_22403">
<rect width="30.3614" height="30.3614" fill="white" transform="translate(138.818 366.639)"/>
</clipPath>
<clipPath id="clip5_795_22403">
<rect width="30.3614" height="30.3614" fill="white" transform="translate(138.818 366.639)"/>
</clipPath>
<clipPath id="clip6_795_22403">
<rect width="30.3614" height="30.3614" fill="white" transform="translate(190.229 366.639)"/>
</clipPath>
<clipPath id="clip7_795_22403">
<rect width="30.3614" height="30.3614" fill="white" transform="translate(190.229 366.639)"/>
</clipPath>
<clipPath id="clip8_795_22403">
<rect width="30.3614" height="30.3614" fill="white" transform="translate(241.639 366.639)"/>
</clipPath>
<clipPath id="clip9_795_22403">
<rect width="19.7349" height="30.3614" fill="white" transform="translate(241.639 366.639)"/>
</clipPath>
</defs>
</svg>
