<svg width="632" height="135" viewBox="0 0 632 135" fill="none" xmlns="http://www.w3.org/2000/svg">
<path d="M0 16C0 7.16345 7.16344 0 16 0H616C624.837 0 632 7.16344 632 16V119C632 127.837 624.837 135 616 135H16C7.16346 135 0 127.837 0 119V16Z" fill="#F6F8FB"/>
<path d="M36.912 81.052V59.116H28.416V54.22L34.896 53.74C35.504 53.676 35.984 53.484 36.336 53.164C36.72 52.844 36.912 52.38 36.912 51.772V49.9H43.632V81.052H36.912ZM27.216 83.5V78.028H53.136V83.5H27.216ZM55.5068 83.5V75.82H63.7628V83.5H55.5068ZM67.3931 83.5V80.812C67.3931 78.028 67.7771 75.756 68.5451 73.996C69.3451 72.236 70.5131 70.78 72.0491 69.628C73.5851 68.476 75.4571 67.42 77.6651 66.46L78.7211 65.98C80.7371 65.052 82.3531 64.14 83.5691 63.244C84.7851 62.316 85.3931 61.116 85.3931 59.644C85.3931 58.844 85.2011 58.092 84.8171 57.388C84.4331 56.684 83.8411 56.108 83.0411 55.66C82.2731 55.212 81.2811 54.988 80.0651 54.988C78.8491 54.988 77.7931 55.244 76.8971 55.756C76.0011 56.236 75.3131 56.892 74.8331 57.724C74.3851 58.556 74.1611 59.5 74.1611 60.556H67.6811C67.7451 58.028 68.3531 55.932 69.5051 54.268C70.6571 52.604 72.1771 51.372 74.0651 50.572C75.9851 49.74 78.0811 49.324 80.3531 49.324C82.8491 49.324 84.9451 49.772 86.6411 50.668C88.3691 51.532 89.6811 52.716 90.5771 54.22C91.4731 55.724 91.9211 57.404 91.9211 59.26C91.9211 61.5 91.1691 63.58 89.6651 65.5C88.1931 67.388 85.6811 69.18 82.1291 70.876L80.2091 71.788C78.7691 72.46 77.6171 73.132 76.7531 73.804C75.9211 74.444 75.3291 75.1 74.9771 75.772C74.6251 76.444 74.4491 77.196 74.4491 78.028H92.2571V83.5H67.3931ZM96.5479 83.5V49.9H104.612L116.276 78.028L113.444 78.412L125.06 49.9H133.076V83.5H126.356V55.084L128.612 56.764L117.524 83.5H112.148L101.012 56.764L103.268 55.084V83.5H96.5479ZM145.722 77.932V55.468H151.386V77.932H145.722ZM137.658 69.484V63.916H159.45V69.484H137.658Z" fill="url(#paint0_linear_795_22368)"/>
<path d="M180.128 75.5V58.7H183.488V72.884H190.832V75.5H180.128ZM191.9 75.5V63.596H195.26V75.5H191.9ZM192.044 61.7V58.58H195.164V61.7H192.044ZM200.226 75.5L195.882 63.596H199.41L202.29 72.332L205.146 63.596H208.65L204.306 75.5H200.226ZM214.281 75.788C213.049 75.788 211.961 75.532 211.017 75.02C210.073 74.492 209.337 73.772 208.809 72.86C208.281 71.932 208.017 70.868 208.017 69.668C208.017 68.436 208.273 67.34 208.785 66.38C209.313 65.42 210.049 64.668 210.993 64.124C211.937 63.58 213.033 63.308 214.281 63.308C215.465 63.308 216.513 63.564 217.425 64.076C218.337 64.588 219.049 65.292 219.561 66.188C220.073 67.068 220.329 68.076 220.329 69.212C220.329 69.372 220.329 69.556 220.329 69.764C220.329 69.956 220.313 70.156 220.281 70.364H210.417V68.348H216.921C216.873 67.644 216.601 67.084 216.105 66.668C215.625 66.236 215.025 66.02 214.305 66.02C213.761 66.02 213.257 66.14 212.793 66.38C212.345 66.62 211.985 66.988 211.713 67.484C211.457 67.964 211.329 68.58 211.329 69.332V70.028C211.329 70.636 211.449 71.172 211.689 71.636C211.945 72.084 212.289 72.436 212.721 72.692C213.169 72.932 213.681 73.052 214.257 73.052C214.817 73.052 215.289 72.932 215.673 72.692C216.057 72.436 216.353 72.108 216.561 71.708H219.993C219.769 72.476 219.385 73.172 218.841 73.796C218.313 74.404 217.657 74.892 216.873 75.26C216.105 75.612 215.241 75.788 214.281 75.788ZM225.618 75.788C224.018 75.788 222.706 75.412 221.682 74.66C220.658 73.908 220.082 72.924 219.954 71.708H223.386C223.498 72.172 223.77 72.548 224.202 72.836C224.634 73.108 225.146 73.244 225.738 73.244C226.394 73.244 226.89 73.132 227.226 72.908C227.578 72.668 227.754 72.38 227.754 72.044C227.754 71.772 227.626 71.556 227.37 71.396C227.114 71.22 226.674 71.1 226.05 71.036C225.826 71.004 225.514 70.956 225.114 70.892C224.73 70.828 224.418 70.772 224.178 70.724C223.506 70.596 222.89 70.388 222.33 70.1C221.786 69.796 221.354 69.404 221.034 68.924C220.714 68.428 220.554 67.828 220.554 67.124C220.554 66.052 220.954 65.148 221.754 64.412C222.554 63.676 223.73 63.308 225.282 63.308C226.85 63.308 228.082 63.652 228.978 64.34C229.89 65.028 230.402 65.98 230.514 67.196H227.274C227.226 66.764 227.01 66.436 226.626 66.212C226.242 65.988 225.802 65.876 225.306 65.876C224.698 65.876 224.242 65.98 223.938 66.188C223.634 66.396 223.482 66.652 223.482 66.956C223.482 67.452 223.978 67.788 224.97 67.964C225.114 67.98 225.314 68.012 225.57 68.06C225.842 68.092 226.114 68.132 226.386 68.18C226.674 68.212 226.898 68.244 227.058 68.276C227.538 68.34 228.002 68.452 228.45 68.612C228.914 68.756 229.322 68.956 229.674 69.212C230.042 69.468 230.33 69.804 230.538 70.22C230.746 70.636 230.85 71.148 230.85 71.756C230.85 72.556 230.65 73.26 230.25 73.868C229.85 74.476 229.258 74.948 228.474 75.284C227.706 75.62 226.754 75.788 225.618 75.788ZM238.812 75.5V63.596H242.172V75.5H238.812ZM238.956 61.7V58.58H242.076V61.7H238.956ZM243.418 75.5V63.596H246.778V65.012C247.162 64.484 247.658 64.068 248.266 63.764C248.89 63.46 249.602 63.308 250.402 63.308C251.298 63.308 252.066 63.484 252.706 63.836C253.362 64.188 253.882 64.7 254.266 65.372C254.714 64.732 255.298 64.228 256.018 63.86C256.738 63.492 257.538 63.308 258.418 63.308C260.002 63.308 261.202 63.788 262.018 64.748C262.85 65.692 263.266 67.06 263.266 68.852V75.5H259.93V69.164C259.93 68.188 259.746 67.444 259.378 66.932C259.01 66.404 258.426 66.14 257.626 66.14C256.842 66.14 256.21 66.428 255.73 67.004C255.266 67.564 255.034 68.348 255.034 69.356V75.5H251.698V69.164C251.698 68.188 251.506 67.444 251.122 66.932C250.738 66.404 250.146 66.14 249.346 66.14C248.578 66.14 247.954 66.428 247.474 67.004C247.01 67.564 246.778 68.348 246.778 69.356V75.5H243.418ZM264.572 80.78V63.596H267.932V65.228C268.316 64.716 268.812 64.268 269.42 63.884C270.044 63.5 270.844 63.308 271.82 63.308C272.924 63.308 273.916 63.58 274.796 64.124C275.676 64.668 276.372 65.412 276.884 66.356C277.396 67.3 277.652 68.372 277.652 69.572C277.652 70.756 277.396 71.82 276.884 72.764C276.372 73.708 275.676 74.452 274.796 74.996C273.916 75.524 272.924 75.788 271.82 75.788C270.94 75.788 270.172 75.628 269.516 75.308C268.876 74.988 268.348 74.54 267.932 73.964V80.78H264.572ZM271.028 72.86C271.652 72.86 272.204 72.716 272.684 72.428C273.18 72.14 273.564 71.748 273.836 71.252C274.108 70.756 274.244 70.196 274.244 69.572C274.244 68.932 274.108 68.364 273.836 67.868C273.564 67.356 273.18 66.956 272.684 66.668C272.204 66.38 271.652 66.236 271.028 66.236C270.404 66.236 269.852 66.38 269.372 66.668C268.892 66.956 268.516 67.348 268.244 67.844C267.972 68.34 267.836 68.908 267.836 69.548C267.836 70.188 267.972 70.756 268.244 71.252C268.516 71.748 268.892 72.14 269.372 72.428C269.852 72.716 270.404 72.86 271.028 72.86ZM282.399 75.788C281.519 75.788 280.759 75.628 280.119 75.308C279.479 74.988 278.983 74.556 278.631 74.012C278.295 73.468 278.127 72.868 278.127 72.212C278.127 70.98 278.567 70.028 279.447 69.356C280.343 68.668 281.511 68.324 282.951 68.324C283.639 68.324 284.223 68.372 284.703 68.468C285.199 68.564 285.599 68.66 285.903 68.756V68.18C285.903 67.396 285.671 66.828 285.207 66.476C284.759 66.124 284.183 65.948 283.479 65.948C282.999 65.948 282.567 66.044 282.183 66.236C281.799 66.428 281.551 66.78 281.439 67.292H278.295C278.391 66.444 278.671 65.724 279.135 65.132C279.615 64.54 280.231 64.092 280.983 63.788C281.735 63.468 282.567 63.308 283.479 63.308C285.271 63.308 286.679 63.732 287.703 64.58C288.743 65.412 289.263 66.612 289.263 68.18V70.652C289.263 71.26 289.295 71.716 289.359 72.02C289.439 72.308 289.559 72.492 289.719 72.572C289.879 72.652 290.087 72.692 290.343 72.692H290.439V75.5H289.695C288.831 75.5 288.111 75.396 287.535 75.188C286.959 74.964 286.535 74.54 286.263 73.916C285.847 74.46 285.311 74.908 284.655 75.26C283.999 75.612 283.247 75.788 282.399 75.788ZM283.191 73.244C283.655 73.244 284.047 73.148 284.367 72.956C284.703 72.748 284.983 72.468 285.207 72.116C285.431 71.748 285.599 71.34 285.711 70.892C285.391 70.796 285.015 70.708 284.583 70.628C284.167 70.532 283.743 70.484 283.311 70.484C282.815 70.484 282.391 70.612 282.039 70.868C281.687 71.108 281.511 71.46 281.511 71.924C281.511 72.308 281.663 72.628 281.967 72.884C282.271 73.124 282.679 73.244 283.191 73.244ZM296.842 75.788C295.61 75.788 294.522 75.524 293.578 74.996C292.634 74.452 291.89 73.716 291.346 72.788C290.818 71.844 290.554 70.764 290.554 69.548C290.554 68.332 290.818 67.26 291.346 66.332C291.89 65.388 292.634 64.652 293.578 64.124C294.522 63.58 295.61 63.308 296.842 63.308C298.378 63.308 299.674 63.716 300.73 64.532C301.786 65.332 302.466 66.444 302.77 67.868H299.218C299.074 67.356 298.786 66.948 298.354 66.644C297.922 66.34 297.41 66.188 296.818 66.188C296.29 66.188 295.81 66.324 295.378 66.596C294.946 66.868 294.602 67.252 294.346 67.748C294.106 68.244 293.986 68.844 293.986 69.548C293.986 70.236 294.106 70.836 294.346 71.348C294.602 71.86 294.946 72.252 295.378 72.524C295.81 72.796 296.29 72.932 296.818 72.932C297.41 72.932 297.922 72.788 298.354 72.5C298.786 72.196 299.074 71.772 299.218 71.228H302.77C302.482 72.604 301.802 73.708 300.73 74.54C299.674 75.372 298.378 75.788 296.842 75.788ZM308.461 75.5C307.629 75.5 306.925 75.404 306.349 75.212C305.789 75.02 305.365 74.652 305.077 74.108C304.789 73.548 304.645 72.748 304.645 71.708V66.404H302.605V63.596H304.645V60.332H308.005V63.596H310.933V66.404H308.005V71.3C308.005 71.668 308.045 71.948 308.125 72.14C308.205 72.332 308.349 72.468 308.557 72.548C308.781 72.612 309.077 72.644 309.445 72.644H310.861V75.5H308.461ZM316.883 75.788C315.651 75.788 314.563 75.532 313.619 75.02C312.675 74.492 311.939 73.772 311.411 72.86C310.883 71.932 310.619 70.868 310.619 69.668C310.619 68.436 310.875 67.34 311.387 66.38C311.915 65.42 312.651 64.668 313.595 64.124C314.539 63.58 315.635 63.308 316.883 63.308C318.067 63.308 319.115 63.564 320.027 64.076C320.939 64.588 321.651 65.292 322.163 66.188C322.675 67.068 322.931 68.076 322.931 69.212C322.931 69.372 322.931 69.556 322.931 69.764C322.931 69.956 322.915 70.156 322.883 70.364H313.019V68.348H319.523C319.475 67.644 319.203 67.084 318.707 66.668C318.227 66.236 317.627 66.02 316.907 66.02C316.363 66.02 315.859 66.14 315.395 66.38C314.947 66.62 314.587 66.988 314.315 67.484C314.059 67.964 313.931 68.58 313.931 69.332V70.028C313.931 70.636 314.051 71.172 314.291 71.636C314.547 72.084 314.891 72.436 315.323 72.692C315.771 72.932 316.283 73.052 316.859 73.052C317.419 73.052 317.891 72.932 318.275 72.692C318.659 72.436 318.955 72.108 319.163 71.708H322.595C322.371 72.476 321.987 73.172 321.443 73.796C320.915 74.404 320.259 74.892 319.475 75.26C318.707 75.612 317.843 75.788 316.883 75.788ZM329.306 75.788C328.202 75.788 327.202 75.516 326.306 74.972C325.426 74.428 324.73 73.684 324.218 72.74C323.706 71.78 323.45 70.708 323.45 69.524C323.45 68.324 323.706 67.26 324.218 66.332C324.73 65.388 325.426 64.652 326.306 64.124C327.202 63.58 328.202 63.308 329.306 63.308C330.186 63.308 330.946 63.468 331.586 63.788C332.242 64.108 332.77 64.556 333.17 65.132V58.22H336.53V75.5H333.17V73.868C332.802 74.38 332.306 74.828 331.682 75.212C331.074 75.596 330.282 75.788 329.306 75.788ZM330.074 72.86C330.698 72.86 331.25 72.716 331.73 72.428C332.21 72.14 332.586 71.748 332.858 71.252C333.13 70.74 333.266 70.172 333.266 69.548C333.266 68.908 333.13 68.34 332.858 67.844C332.586 67.348 332.21 66.956 331.73 66.668C331.25 66.38 330.698 66.236 330.074 66.236C329.466 66.236 328.914 66.38 328.418 66.668C327.938 66.956 327.562 67.348 327.29 67.844C327.018 68.324 326.882 68.884 326.882 69.524C326.882 70.164 327.018 70.74 327.29 71.252C327.562 71.748 327.938 72.14 328.418 72.428C328.914 72.716 329.466 72.86 330.074 72.86ZM349.759 75.5C348.927 75.5 348.223 75.404 347.647 75.212C347.087 75.02 346.663 74.652 346.375 74.108C346.087 73.548 345.943 72.748 345.943 71.708V66.404H343.903V63.596H345.943V60.332H349.303V63.596H352.231V66.404H349.303V71.3C349.303 71.668 349.343 71.948 349.423 72.14C349.503 72.332 349.647 72.468 349.855 72.548C350.079 72.612 350.375 72.644 350.743 72.644H352.159V75.5H349.759ZM352.747 75.5V58.22H356.107V65.348C356.491 64.724 357.019 64.228 357.691 63.86C358.379 63.492 359.163 63.308 360.043 63.308C361.531 63.308 362.675 63.788 363.475 64.748C364.275 65.692 364.675 67.06 364.675 68.852V75.5H361.339V69.164C361.339 68.188 361.147 67.444 360.763 66.932C360.379 66.404 359.763 66.14 358.915 66.14C358.099 66.14 357.427 66.428 356.899 67.004C356.371 67.564 356.107 68.348 356.107 69.356V75.5H352.747ZM365.931 75.5V63.596H369.291V65.396C369.611 64.804 370.011 64.34 370.491 64.004C370.971 63.652 371.515 63.476 372.123 63.476H373.587V66.452H371.787C371.195 66.452 370.715 66.604 370.347 66.908C369.979 67.212 369.707 67.668 369.531 68.276C369.371 68.868 369.291 69.596 369.291 70.46V75.5H365.931ZM379.444 75.788C378.244 75.788 377.156 75.524 376.18 74.996C375.22 74.468 374.452 73.732 373.876 72.788C373.316 71.844 373.036 70.764 373.036 69.548C373.036 68.316 373.316 67.236 373.876 66.308C374.452 65.364 375.228 64.628 376.204 64.1C377.18 63.572 378.26 63.308 379.444 63.308C380.644 63.308 381.724 63.572 382.684 64.1C383.66 64.628 384.428 65.364 384.988 66.308C385.564 67.236 385.852 68.316 385.852 69.548C385.852 70.764 385.564 71.844 384.988 72.788C384.428 73.732 383.66 74.468 382.684 74.996C381.724 75.524 380.644 75.788 379.444 75.788ZM379.444 72.884C379.988 72.884 380.484 72.764 380.932 72.524C381.38 72.268 381.732 71.892 381.988 71.396C382.26 70.9 382.396 70.284 382.396 69.548C382.396 68.812 382.26 68.196 381.988 67.7C381.716 67.204 381.356 66.836 380.908 66.596C380.476 66.34 379.996 66.212 379.468 66.212C378.924 66.212 378.428 66.34 377.98 66.596C377.532 66.836 377.172 67.204 376.9 67.7C376.628 68.18 376.492 68.796 376.492 69.548C376.492 70.284 376.62 70.9 376.876 71.396C377.148 71.892 377.508 72.268 377.956 72.524C378.404 72.764 378.9 72.884 379.444 72.884ZM390.92 75.788C389.544 75.788 388.464 75.316 387.68 74.372C386.896 73.412 386.504 72.036 386.504 70.244V63.596H389.84V69.932C389.84 70.908 390.024 71.66 390.392 72.188C390.76 72.7 391.312 72.956 392.048 72.956C392.848 72.956 393.464 72.676 393.896 72.116C394.344 71.54 394.568 70.748 394.568 69.74V63.596H397.928V75.5H394.568V73.796C394.216 74.404 393.736 74.892 393.128 75.26C392.536 75.612 391.8 75.788 390.92 75.788ZM405.522 81.068C404.514 81.068 403.538 80.9 402.594 80.564C401.666 80.244 400.874 79.724 400.218 79.004C399.562 78.284 399.17 77.348 399.042 76.196H402.378C402.506 76.804 402.85 77.284 403.41 77.636C403.986 77.988 404.666 78.164 405.45 78.164C406.01 78.164 406.53 78.044 407.01 77.804C407.49 77.58 407.874 77.228 408.162 76.748C408.45 76.284 408.594 75.684 408.594 74.948V73.508C408.354 73.876 408.05 74.212 407.682 74.516C407.314 74.82 406.874 75.068 406.362 75.26C405.866 75.436 405.29 75.524 404.634 75.524C403.498 75.524 402.474 75.26 401.562 74.732C400.666 74.188 399.954 73.452 399.426 72.524C398.914 71.596 398.658 70.556 398.658 69.404C398.658 68.252 398.914 67.22 399.426 66.308C399.954 65.38 400.666 64.652 401.562 64.124C402.474 63.58 403.498 63.308 404.634 63.308C405.514 63.308 406.29 63.484 406.962 63.836C407.65 64.188 408.194 64.628 408.594 65.156V63.596H411.954V74.756C411.954 76.148 411.658 77.308 411.066 78.236C410.474 79.18 409.69 79.884 408.714 80.348C407.738 80.828 406.674 81.068 405.522 81.068ZM405.33 72.62C405.986 72.62 406.554 72.476 407.034 72.188C407.514 71.9 407.89 71.516 408.162 71.036C408.434 70.556 408.57 70.02 408.57 69.428C408.57 68.82 408.434 68.276 408.162 67.796C407.89 67.316 407.514 66.94 407.034 66.668C406.554 66.38 405.986 66.236 405.33 66.236C404.69 66.236 404.122 66.38 403.626 66.668C403.146 66.94 402.77 67.316 402.498 67.796C402.226 68.26 402.09 68.796 402.09 69.404C402.09 69.996 402.226 70.54 402.498 71.036C402.77 71.516 403.146 71.9 403.626 72.188C404.122 72.476 404.69 72.62 405.33 72.62ZM413.229 75.5V58.22H416.589V65.348C416.973 64.724 417.501 64.228 418.173 63.86C418.861 63.492 419.645 63.308 420.525 63.308C422.013 63.308 423.157 63.788 423.957 64.748C424.757 65.692 425.157 67.06 425.157 68.852V75.5H421.821V69.164C421.821 68.188 421.629 67.444 421.245 66.932C420.861 66.404 420.245 66.14 419.397 66.14C418.581 66.14 417.909 66.428 417.381 67.004C416.853 67.564 416.589 68.348 416.589 69.356V75.5H413.229ZM441.285 75.788C439.589 75.788 438.125 75.428 436.893 74.708C435.677 73.972 434.741 72.956 434.085 71.66C433.429 70.348 433.101 68.836 433.101 67.124C433.101 65.412 433.429 63.9 434.085 62.588C434.741 61.276 435.677 60.252 436.893 59.516C438.125 58.78 439.589 58.412 441.285 58.412C443.333 58.412 445.013 58.924 446.325 59.948C447.637 60.972 448.445 62.412 448.749 64.268H445.053C444.861 63.372 444.437 62.684 443.781 62.204C443.141 61.708 442.293 61.46 441.237 61.46C440.245 61.46 439.397 61.692 438.693 62.156C437.989 62.604 437.445 63.252 437.061 64.1C436.693 64.948 436.509 65.956 436.509 67.124C436.509 68.292 436.693 69.3 437.061 70.148C437.445 70.98 437.989 71.628 438.693 72.092C439.397 72.54 440.245 72.764 441.237 72.764C442.293 72.764 443.141 72.54 443.781 72.092C444.421 71.628 444.837 70.972 445.029 70.124H448.725C448.421 71.9 447.613 73.292 446.301 74.3C445.005 75.292 443.333 75.788 441.285 75.788ZM456.287 75.788C455.519 75.788 454.751 75.684 453.983 75.476C453.215 75.252 452.503 74.908 451.847 74.444C451.207 73.964 450.671 73.348 450.239 72.596C449.807 71.828 449.543 70.908 449.447 69.836H452.519C452.663 70.652 452.935 71.284 453.335 71.732C453.751 72.164 454.231 72.468 454.775 72.644C455.319 72.82 455.847 72.908 456.359 72.908C456.951 72.908 457.471 72.812 457.919 72.62C458.383 72.428 458.743 72.164 458.999 71.828C459.271 71.492 459.407 71.116 459.407 70.7C459.407 70.236 459.279 69.82 459.023 69.452C458.767 69.084 458.199 68.82 457.319 68.66L454.607 68.156C453.183 67.884 452.079 67.324 451.295 66.476C450.511 65.612 450.119 64.596 450.119 63.428C450.119 62.372 450.383 61.476 450.911 60.74C451.439 59.988 452.151 59.412 453.047 59.012C453.943 58.612 454.935 58.412 456.023 58.412C457.159 58.412 458.175 58.604 459.071 58.988C459.983 59.372 460.719 59.972 461.279 60.788C461.855 61.588 462.199 62.628 462.311 63.908H459.191C459.079 63.188 458.863 62.644 458.543 62.276C458.223 61.892 457.847 61.628 457.415 61.484C456.983 61.34 456.551 61.268 456.119 61.268C455.719 61.268 455.287 61.332 454.823 61.46C454.375 61.588 453.991 61.804 453.671 62.108C453.367 62.412 453.215 62.836 453.215 63.38C453.215 63.828 453.375 64.228 453.695 64.58C454.031 64.932 454.599 65.18 455.399 65.324L457.895 65.78C459.319 66.036 460.447 66.54 461.279 67.292C462.111 68.028 462.527 69.132 462.527 70.604C462.527 71.436 462.343 72.172 461.975 72.812C461.623 73.452 461.143 73.996 460.535 74.444C459.943 74.876 459.279 75.212 458.543 75.452C457.807 75.676 457.055 75.788 456.287 75.788ZM464.097 75.5V58.7H471.225C472.585 58.7 473.705 58.932 474.585 59.396C475.481 59.844 476.145 60.468 476.577 61.268C477.025 62.052 477.249 62.94 477.249 63.932C477.249 64.7 477.081 65.412 476.745 66.068C476.409 66.708 475.961 67.26 475.401 67.724C476.009 68.14 476.473 68.676 476.793 69.332C477.129 69.988 477.313 70.74 477.345 71.588L477.537 75.5H474.249L473.985 71.588C473.953 71.028 473.841 70.572 473.649 70.22C473.473 69.852 473.193 69.58 472.809 69.404C472.425 69.228 471.905 69.14 471.249 69.14H467.457V75.5H464.097ZM467.457 66.428H471.009C472.001 66.428 472.721 66.204 473.169 65.756C473.617 65.308 473.841 64.7 473.841 63.932C473.841 63.148 473.617 62.54 473.169 62.108C472.721 61.66 472.001 61.436 471.009 61.436H467.457V66.428ZM485.632 80.78V63.596H488.992V65.228C489.376 64.716 489.872 64.268 490.48 63.884C491.104 63.5 491.904 63.308 492.88 63.308C493.984 63.308 494.976 63.58 495.856 64.124C496.736 64.668 497.432 65.412 497.944 66.356C498.456 67.3 498.712 68.372 498.712 69.572C498.712 70.756 498.456 71.82 497.944 72.764C497.432 73.708 496.736 74.452 495.856 74.996C494.976 75.524 493.984 75.788 492.88 75.788C492 75.788 491.232 75.628 490.576 75.308C489.936 74.988 489.408 74.54 488.992 73.964V80.78H485.632ZM492.088 72.86C492.712 72.86 493.264 72.716 493.744 72.428C494.24 72.14 494.624 71.748 494.896 71.252C495.168 70.756 495.304 70.196 495.304 69.572C495.304 68.932 495.168 68.364 494.896 67.868C494.624 67.356 494.24 66.956 493.744 66.668C493.264 66.38 492.712 66.236 492.088 66.236C491.464 66.236 490.912 66.38 490.432 66.668C489.952 66.956 489.576 67.348 489.304 67.844C489.032 68.34 488.896 68.908 488.896 69.548C488.896 70.188 489.032 70.756 489.304 71.252C489.576 71.748 489.952 72.14 490.432 72.428C490.912 72.716 491.464 72.86 492.088 72.86ZM499.541 75.5V63.596H502.901V65.396C503.221 64.804 503.621 64.34 504.101 64.004C504.581 63.652 505.125 63.476 505.733 63.476H507.197V66.452H505.397C504.805 66.452 504.325 66.604 503.957 66.908C503.589 67.212 503.317 67.668 503.141 68.276C502.981 68.868 502.901 69.596 502.901 70.46V75.5H499.541ZM513.054 75.788C511.854 75.788 510.766 75.524 509.79 74.996C508.83 74.468 508.062 73.732 507.486 72.788C506.926 71.844 506.646 70.764 506.646 69.548C506.646 68.316 506.926 67.236 507.486 66.308C508.062 65.364 508.838 64.628 509.814 64.1C510.79 63.572 511.87 63.308 513.054 63.308C514.254 63.308 515.334 63.572 516.294 64.1C517.27 64.628 518.038 65.364 518.598 66.308C519.174 67.236 519.462 68.316 519.462 69.548C519.462 70.764 519.174 71.844 518.598 72.788C518.038 73.732 517.27 74.468 516.294 74.996C515.334 75.524 514.254 75.788 513.054 75.788ZM513.054 72.884C513.598 72.884 514.094 72.764 514.542 72.524C514.99 72.268 515.342 71.892 515.598 71.396C515.87 70.9 516.006 70.284 516.006 69.548C516.006 68.812 515.87 68.196 515.598 67.7C515.326 67.204 514.966 66.836 514.518 66.596C514.086 66.34 513.606 66.212 513.078 66.212C512.534 66.212 512.038 66.34 511.59 66.596C511.142 66.836 510.782 67.204 510.51 67.7C510.238 68.18 510.102 68.796 510.102 69.548C510.102 70.284 510.23 70.9 510.486 71.396C510.758 71.892 511.118 72.268 511.566 72.524C512.014 72.764 512.51 72.884 513.054 72.884ZM527.051 81.068C526.043 81.068 525.067 80.9 524.123 80.564C523.195 80.244 522.403 79.724 521.747 79.004C521.091 78.284 520.699 77.348 520.571 76.196H523.907C524.035 76.804 524.379 77.284 524.939 77.636C525.515 77.988 526.195 78.164 526.979 78.164C527.539 78.164 528.059 78.044 528.539 77.804C529.019 77.58 529.403 77.228 529.691 76.748C529.979 76.284 530.123 75.684 530.123 74.948V73.508C529.883 73.876 529.579 74.212 529.211 74.516C528.843 74.82 528.403 75.068 527.891 75.26C527.395 75.436 526.819 75.524 526.163 75.524C525.027 75.524 524.003 75.26 523.091 74.732C522.195 74.188 521.483 73.452 520.955 72.524C520.443 71.596 520.187 70.556 520.187 69.404C520.187 68.252 520.443 67.22 520.955 66.308C521.483 65.38 522.195 64.652 523.091 64.124C524.003 63.58 525.027 63.308 526.163 63.308C527.043 63.308 527.819 63.484 528.491 63.836C529.179 64.188 529.723 64.628 530.123 65.156V63.596H533.483V74.756C533.483 76.148 533.187 77.308 532.595 78.236C532.003 79.18 531.219 79.884 530.243 80.348C529.267 80.828 528.203 81.068 527.051 81.068ZM526.859 72.62C527.515 72.62 528.083 72.476 528.563 72.188C529.043 71.9 529.419 71.516 529.691 71.036C529.963 70.556 530.099 70.02 530.099 69.428C530.099 68.82 529.963 68.276 529.691 67.796C529.419 67.316 529.043 66.94 528.563 66.668C528.083 66.38 527.515 66.236 526.859 66.236C526.219 66.236 525.651 66.38 525.155 66.668C524.675 66.94 524.299 67.316 524.027 67.796C523.755 68.26 523.619 68.796 523.619 69.404C523.619 69.996 523.755 70.54 524.027 71.036C524.299 71.516 524.675 71.9 525.155 72.188C525.651 72.476 526.219 72.62 526.859 72.62ZM534.757 75.5V63.596H538.117V65.396C538.437 64.804 538.837 64.34 539.317 64.004C539.797 63.652 540.341 63.476 540.949 63.476H542.413V66.452H540.613C540.021 66.452 539.541 66.604 539.173 66.908C538.805 67.212 538.533 67.668 538.357 68.276C538.197 68.868 538.117 69.596 538.117 70.46V75.5H534.757ZM547.031 75.788C546.151 75.788 545.391 75.628 544.751 75.308C544.111 74.988 543.615 74.556 543.263 74.012C542.927 73.468 542.759 72.868 542.759 72.212C542.759 70.98 543.199 70.028 544.079 69.356C544.975 68.668 546.143 68.324 547.583 68.324C548.271 68.324 548.855 68.372 549.335 68.468C549.831 68.564 550.231 68.66 550.535 68.756V68.18C550.535 67.396 550.303 66.828 549.839 66.476C549.391 66.124 548.815 65.948 548.111 65.948C547.631 65.948 547.199 66.044 546.815 66.236C546.431 66.428 546.183 66.78 546.071 67.292H542.927C543.023 66.444 543.303 65.724 543.767 65.132C544.247 64.54 544.863 64.092 545.615 63.788C546.367 63.468 547.199 63.308 548.111 63.308C549.903 63.308 551.311 63.732 552.335 64.58C553.375 65.412 553.895 66.612 553.895 68.18V70.652C553.895 71.26 553.927 71.716 553.991 72.02C554.071 72.308 554.191 72.492 554.351 72.572C554.511 72.652 554.719 72.692 554.975 72.692H555.071V75.5H554.327C553.463 75.5 552.743 75.396 552.167 75.188C551.591 74.964 551.167 74.54 550.895 73.916C550.479 74.46 549.943 74.908 549.287 75.26C548.631 75.612 547.879 75.788 547.031 75.788ZM547.823 73.244C548.287 73.244 548.679 73.148 548.999 72.956C549.335 72.748 549.615 72.468 549.839 72.116C550.063 71.748 550.231 71.34 550.343 70.892C550.023 70.796 549.647 70.708 549.215 70.628C548.799 70.532 548.375 70.484 547.943 70.484C547.447 70.484 547.023 70.612 546.671 70.868C546.319 71.108 546.143 71.46 546.143 71.924C546.143 72.308 546.295 72.628 546.599 72.884C546.903 73.124 547.311 73.244 547.823 73.244ZM555.712 75.5V63.596H559.072V65.012C559.456 64.484 559.952 64.068 560.56 63.764C561.184 63.46 561.896 63.308 562.696 63.308C563.592 63.308 564.36 63.484 565 63.836C565.656 64.188 566.176 64.7 566.56 65.372C567.008 64.732 567.592 64.228 568.312 63.86C569.032 63.492 569.832 63.308 570.712 63.308C572.296 63.308 573.496 63.788 574.312 64.748C575.144 65.692 575.56 67.06 575.56 68.852V75.5H572.224V69.164C572.224 68.188 572.04 67.444 571.672 66.932C571.304 66.404 570.72 66.14 569.92 66.14C569.136 66.14 568.504 66.428 568.024 67.004C567.56 67.564 567.328 68.348 567.328 69.356V75.5H563.992V69.164C563.992 68.188 563.8 67.444 563.416 66.932C563.032 66.404 562.44 66.14 561.64 66.14C560.872 66.14 560.248 66.428 559.768 67.004C559.304 67.564 559.072 68.348 559.072 69.356V75.5H555.712ZM581.788 75.788C580.188 75.788 578.876 75.412 577.852 74.66C576.828 73.908 576.252 72.924 576.124 71.708H579.556C579.668 72.172 579.94 72.548 580.372 72.836C580.804 73.108 581.316 73.244 581.908 73.244C582.564 73.244 583.06 73.132 583.396 72.908C583.748 72.668 583.924 72.38 583.924 72.044C583.924 71.772 583.796 71.556 583.54 71.396C583.284 71.22 582.844 71.1 582.22 71.036C581.996 71.004 581.684 70.956 581.284 70.892C580.9 70.828 580.588 70.772 580.348 70.724C579.676 70.596 579.06 70.388 578.5 70.1C577.956 69.796 577.524 69.404 577.204 68.924C576.884 68.428 576.724 67.828 576.724 67.124C576.724 66.052 577.124 65.148 577.924 64.412C578.724 63.676 579.9 63.308 581.452 63.308C583.02 63.308 584.252 63.652 585.148 64.34C586.06 65.028 586.572 65.98 586.684 67.196H583.444C583.396 66.764 583.18 66.436 582.796 66.212C582.412 65.988 581.972 65.876 581.476 65.876C580.868 65.876 580.412 65.98 580.108 66.188C579.804 66.396 579.652 66.652 579.652 66.956C579.652 67.452 580.148 67.788 581.14 67.964C581.284 67.98 581.484 68.012 581.74 68.06C582.012 68.092 582.284 68.132 582.556 68.18C582.844 68.212 583.068 68.244 583.228 68.276C583.708 68.34 584.172 68.452 584.62 68.612C585.084 68.756 585.492 68.956 585.844 69.212C586.212 69.468 586.5 69.804 586.708 70.22C586.916 70.636 587.02 71.148 587.02 71.756C587.02 72.556 586.82 73.26 586.42 73.868C586.02 74.476 585.428 74.948 584.644 75.284C583.876 75.62 582.924 75.788 581.788 75.788Z" fill="url(#paint1_linear_795_22368)"/>
<defs>
<linearGradient id="paint0_linear_795_22368" x1="24" y1="38.4047" x2="167.917" y2="55.7118" gradientUnits="userSpaceOnUse">
<stop offset="0.54933" stop-color="#1A3038"/>
<stop offset="1" stop-color="#003DA6"/>
</linearGradient>
<linearGradient id="paint1_linear_795_22368" x1="179" y1="45.055" x2="544.898" y2="221.099" gradientUnits="userSpaceOnUse">
<stop offset="0.54933" stop-color="#1A3038"/>
<stop offset="1" stop-color="#003DA6"/>
</linearGradient>
</defs>
</svg>
