<svg width="308" height="135" viewBox="0 0 308 135" fill="none" xmlns="http://www.w3.org/2000/svg">
<path d="M0 16C0 7.16345 7.16344 0 16 0H292C300.837 0 308 7.16344 308 16V119C308 127.837 300.837 135 292 135H16C7.16345 135 0 127.837 0 119V16Z" fill="#F6F8FB"/>
<path d="M34.912 78.884C33.12 78.884 31.6053 78.5747 30.368 77.956C29.152 77.316 28.1707 76.4733 27.424 75.428C26.6773 74.3827 26.1333 73.22 25.792 71.94C25.472 70.6387 25.312 69.3267 25.312 68.004C25.312 65.4867 25.6853 63.3107 26.432 61.476C27.1787 59.6413 28.256 58.2227 29.664 57.22C31.072 56.2173 32.768 55.716 34.752 55.716C36.4373 55.716 37.8453 56.0253 38.976 56.644C40.128 57.2627 41.024 58.0733 41.664 59.076C42.304 60.0573 42.6773 61.124 42.784 62.276H38.624C38.4107 61.3373 37.9733 60.6227 37.312 60.132C36.6507 59.6413 35.7867 59.396 34.72 59.396C32.992 59.396 31.68 60.196 30.784 61.796C29.888 63.3747 29.536 65.7747 29.728 68.996L29.312 67.364C29.632 66.724 30.0907 66.1587 30.688 65.668C31.3067 65.156 32.0213 64.7507 32.832 64.452C33.664 64.1533 34.56 64.004 35.52 64.004C36.8853 64.004 38.1547 64.3027 39.328 64.9C40.5013 65.4973 41.4507 66.34 42.176 67.428C42.9013 68.516 43.264 69.8067 43.264 71.3C43.264 72.6653 42.912 73.924 42.208 75.076C41.504 76.228 40.5227 77.156 39.264 77.86C38.0053 78.5427 36.5547 78.884 34.912 78.884ZM34.688 75.044C35.584 75.044 36.352 74.9053 36.992 74.628C37.632 74.3293 38.1227 73.9133 38.464 73.38C38.8053 72.8253 38.976 72.1747 38.976 71.428C38.976 70.66 38.7947 70.0093 38.432 69.476C38.0907 68.9213 37.6 68.5053 36.96 68.228C36.32 67.9293 35.5413 67.78 34.624 67.78C33.7067 67.78 32.9067 67.9293 32.224 68.228C31.5627 68.5053 31.0507 68.9107 30.688 69.444C30.3467 69.9773 30.176 70.6173 30.176 71.364C30.176 72.132 30.3573 72.7933 30.72 73.348C31.0827 73.8813 31.5947 74.2973 32.256 74.596C32.9387 74.8947 33.7493 75.044 34.688 75.044ZM46.4125 78.5V76.708C46.4125 74.852 46.6685 73.3373 47.1805 72.164C47.7138 70.9907 48.4925 70.02 49.5165 69.252C50.5405 68.484 51.7885 67.78 53.2605 67.14L53.9645 66.82C55.3085 66.2013 56.3858 65.5933 57.1965 64.996C58.0072 64.3773 58.4125 63.5773 58.4125 62.596C58.4125 62.0627 58.2845 61.5613 58.0285 61.092C57.7725 60.6227 57.3778 60.2387 56.8445 59.94C56.3325 59.6413 55.6712 59.492 54.8605 59.492C54.0498 59.492 53.3458 59.6627 52.7485 60.004C52.1512 60.324 51.6925 60.7613 51.3725 61.316C51.0738 61.8707 50.9245 62.5 50.9245 63.204H46.6045C46.6472 61.5187 47.0525 60.1213 47.8205 59.012C48.5885 57.9027 49.6018 57.0813 50.8605 56.548C52.1405 55.9933 53.5378 55.716 55.0525 55.716C56.7165 55.716 58.1138 56.0147 59.2445 56.612C60.3965 57.188 61.2712 57.9773 61.8685 58.98C62.4658 59.9827 62.7645 61.1027 62.7645 62.34C62.7645 63.8333 62.2632 65.22 61.2605 66.5C60.2792 67.7587 58.6045 68.9533 56.2365 70.084L54.9565 70.692C53.9965 71.14 53.2285 71.588 52.6525 72.036C52.0978 72.4627 51.7032 72.9 51.4685 73.348C51.2338 73.796 51.1165 74.2973 51.1165 74.852H62.9885V78.5H46.4125ZM69.593 78.5L82.105 56.1H86.457L73.945 78.5H69.593ZM70.585 67.268C69.5397 67.268 68.5903 67.044 67.737 66.596C66.905 66.1267 66.233 65.4653 65.721 64.612C65.2303 63.7373 64.985 62.7027 64.985 61.508C64.985 60.292 65.2303 59.2573 65.721 58.404C66.233 57.5293 66.9157 56.868 67.769 56.42C68.6223 55.9507 69.5717 55.716 70.617 55.716C71.6623 55.716 72.601 55.9507 73.433 56.42C74.2863 56.868 74.9583 57.5293 75.449 58.404C75.9397 59.2573 76.185 60.292 76.185 61.508C76.185 62.7027 75.9397 63.7373 75.449 64.612C74.9583 65.4653 74.2863 66.1267 73.433 66.596C72.601 67.044 71.6517 67.268 70.585 67.268ZM70.585 64.228C71.2037 64.228 71.705 63.9933 72.089 63.524C72.4943 63.0547 72.697 62.3827 72.697 61.508C72.697 60.5907 72.4943 59.8973 72.089 59.428C71.705 58.9587 71.2037 58.724 70.585 58.724C69.9877 58.724 69.4863 58.9587 69.081 59.428C68.6757 59.8973 68.473 60.5907 68.473 61.508C68.473 62.3827 68.6757 63.0547 69.081 63.524C69.4863 63.9933 69.9877 64.228 70.585 64.228ZM85.593 78.884C84.5477 78.884 83.5983 78.66 82.745 78.212C81.913 77.7427 81.241 77.0813 80.729 76.228C80.2383 75.3533 79.993 74.3187 79.993 73.124C79.993 71.9293 80.2383 70.9053 80.729 70.052C81.241 69.1773 81.913 68.516 82.745 68.068C83.5983 67.5987 84.5477 67.364 85.593 67.364C86.6597 67.364 87.609 67.5987 88.441 68.068C89.2943 68.516 89.9663 69.1773 90.457 70.052C90.9477 70.9053 91.193 71.9293 91.193 73.124C91.193 74.3187 90.937 75.3533 90.425 76.228C89.9343 77.0813 89.2623 77.7427 88.409 78.212C87.577 78.66 86.6383 78.884 85.593 78.884ZM85.561 75.844C86.1797 75.844 86.6917 75.6093 87.097 75.14C87.5023 74.6707 87.705 73.9987 87.705 73.124C87.705 72.2067 87.5023 71.524 87.097 71.076C86.713 70.6067 86.2117 70.372 85.593 70.372C84.9957 70.372 84.4943 70.6067 84.089 71.076C83.6837 71.524 83.481 72.2067 83.481 73.124C83.481 73.9987 83.673 74.6707 84.057 75.14C84.4623 75.6093 84.9637 75.844 85.561 75.844Z" fill="url(#paint0_linear_795_22397)"/>
<path d="M109.32 60.668C108.349 60.668 107.491 60.4533 106.744 60.024C106.007 59.5947 105.428 59.002 105.008 58.246C104.597 57.4807 104.392 56.5987 104.392 55.6C104.392 54.6013 104.597 53.724 105.008 52.968C105.428 52.2027 106.007 51.6053 106.744 51.176C107.491 50.7467 108.349 50.532 109.32 50.532C110.3 50.532 111.159 50.7467 111.896 51.176C112.633 51.6053 113.207 52.2027 113.618 52.968C114.038 53.724 114.248 54.6013 114.248 55.6C114.248 56.5987 114.038 57.4807 113.618 58.246C113.207 59.002 112.633 59.5947 111.896 60.024C111.159 60.4533 110.3 60.668 109.32 60.668ZM109.334 58.904C109.931 58.904 110.445 58.7733 110.874 58.512C111.313 58.2413 111.653 57.8587 111.896 57.364C112.139 56.8693 112.26 56.2813 112.26 55.6C112.26 54.9187 112.139 54.3307 111.896 53.836C111.653 53.3413 111.313 52.9633 110.874 52.702C110.445 52.4313 109.931 52.296 109.334 52.296C108.737 52.296 108.219 52.4313 107.78 52.702C107.341 52.9633 107.001 53.3413 106.758 53.836C106.515 54.3307 106.394 54.9187 106.394 55.6C106.394 56.2813 106.515 56.8693 106.758 57.364C107.001 57.8587 107.341 58.2413 107.78 58.512C108.219 58.7733 108.737 58.904 109.334 58.904ZM115.379 60.5V52.744C115.379 52.0627 115.453 51.5587 115.603 51.232C115.761 50.896 116.013 50.6767 116.359 50.574C116.713 50.4713 117.18 50.42 117.759 50.42H118.641V52.086H118.151C117.824 52.086 117.605 52.1373 117.493 52.24C117.39 52.3427 117.339 52.548 117.339 52.856V60.5H115.379ZM114.441 55.194V53.556H118.641V55.194H114.441ZM123.297 63.58V53.556H125.257V54.508C125.481 54.2093 125.771 53.948 126.125 53.724C126.489 53.5 126.956 53.388 127.525 53.388C128.169 53.388 128.748 53.5467 129.261 53.864C129.775 54.1813 130.181 54.6153 130.479 55.166C130.778 55.7167 130.927 56.342 130.927 57.042C130.927 57.7327 130.778 58.3533 130.479 58.904C130.181 59.4547 129.775 59.8887 129.261 60.206C128.748 60.514 128.169 60.668 127.525 60.668C127.012 60.668 126.564 60.5747 126.181 60.388C125.808 60.2013 125.5 59.94 125.257 59.604V63.58H123.297ZM127.063 58.96C127.427 58.96 127.749 58.876 128.029 58.708C128.319 58.54 128.543 58.3113 128.701 58.022C128.86 57.7327 128.939 57.406 128.939 57.042C128.939 56.6687 128.86 56.3373 128.701 56.048C128.543 55.7493 128.319 55.516 128.029 55.348C127.749 55.18 127.427 55.096 127.063 55.096C126.699 55.096 126.377 55.18 126.097 55.348C125.817 55.516 125.598 55.7447 125.439 56.034C125.281 56.3233 125.201 56.6547 125.201 57.028C125.201 57.4013 125.281 57.7327 125.439 58.022C125.598 58.3113 125.817 58.54 126.097 58.708C126.377 58.876 126.699 58.96 127.063 58.96ZM131.411 60.5V53.556H133.371V54.606C133.558 54.2607 133.791 53.99 134.071 53.794C134.351 53.5887 134.669 53.486 135.023 53.486H135.877V55.222H134.827C134.482 55.222 134.202 55.3107 133.987 55.488C133.773 55.6653 133.614 55.9313 133.511 56.286C133.418 56.6313 133.371 57.056 133.371 57.56V60.5H131.411ZM139.294 60.668C138.594 60.668 137.959 60.514 137.39 60.206C136.83 59.898 136.382 59.4687 136.046 58.918C135.719 58.3673 135.556 57.7373 135.556 57.028C135.556 56.3093 135.719 55.6793 136.046 55.138C136.382 54.5873 136.835 54.158 137.404 53.85C137.973 53.542 138.603 53.388 139.294 53.388C139.994 53.388 140.624 53.542 141.184 53.85C141.753 54.158 142.201 54.5873 142.528 55.138C142.864 55.6793 143.032 56.3093 143.032 57.028C143.032 57.7373 142.864 58.3673 142.528 58.918C142.201 59.4687 141.753 59.898 141.184 60.206C140.624 60.514 139.994 60.668 139.294 60.668ZM139.294 58.974C139.611 58.974 139.901 58.904 140.162 58.764C140.423 58.6147 140.629 58.3953 140.778 58.106C140.937 57.8167 141.016 57.4573 141.016 57.028C141.016 56.5987 140.937 56.2393 140.778 55.95C140.619 55.6607 140.409 55.446 140.148 55.306C139.896 55.1567 139.616 55.082 139.308 55.082C138.991 55.082 138.701 55.1567 138.44 55.306C138.179 55.446 137.969 55.6607 137.81 55.95C137.651 56.23 137.572 56.5893 137.572 57.028C137.572 57.4573 137.647 57.8167 137.796 58.106C137.955 58.3953 138.165 58.6147 138.426 58.764C138.687 58.904 138.977 58.974 139.294 58.974ZM146.731 60.668C146.087 60.668 145.503 60.5093 144.981 60.192C144.467 59.8747 144.061 59.4407 143.763 58.89C143.464 58.33 143.315 57.7047 143.315 57.014C143.315 56.314 143.464 55.6933 143.763 55.152C144.061 54.6013 144.467 54.172 144.981 53.864C145.503 53.5467 146.087 53.388 146.731 53.388C147.244 53.388 147.687 53.4813 148.061 53.668C148.443 53.8547 148.751 54.116 148.985 54.452V50.42H150.945V60.5H148.985V59.548C148.77 59.8467 148.481 60.108 148.117 60.332C147.762 60.556 147.3 60.668 146.731 60.668ZM147.179 58.96C147.543 58.96 147.865 58.876 148.145 58.708C148.425 58.54 148.644 58.3113 148.803 58.022C148.961 57.7233 149.041 57.392 149.041 57.028C149.041 56.6547 148.961 56.3233 148.803 56.034C148.644 55.7447 148.425 55.516 148.145 55.348C147.865 55.18 147.543 55.096 147.179 55.096C146.824 55.096 146.502 55.18 146.213 55.348C145.933 55.516 145.713 55.7447 145.555 56.034C145.396 56.314 145.317 56.6407 145.317 57.014C145.317 57.3873 145.396 57.7233 145.555 58.022C145.713 58.3113 145.933 58.54 146.213 58.708C146.502 58.876 146.824 58.96 147.179 58.96ZM154.13 60.668C153.328 60.668 152.698 60.3927 152.24 59.842C151.783 59.282 151.554 58.4793 151.554 57.434V53.556H153.5V57.252C153.5 57.8213 153.608 58.26 153.822 58.568C154.037 58.8667 154.359 59.016 154.788 59.016C155.255 59.016 155.614 58.8527 155.866 58.526C156.128 58.19 156.258 57.728 156.258 57.14V53.556H158.218V60.5H156.258V59.506C156.053 59.8607 155.773 60.1453 155.418 60.36C155.073 60.5653 154.644 60.668 154.13 60.668ZM162.378 60.668C161.659 60.668 161.024 60.514 160.474 60.206C159.923 59.8887 159.489 59.4593 159.172 58.918C158.864 58.3673 158.71 57.7373 158.71 57.028C158.71 56.3187 158.864 55.6933 159.172 55.152C159.489 54.6013 159.923 54.172 160.474 53.864C161.024 53.5467 161.659 53.388 162.378 53.388C163.274 53.388 164.03 53.626 164.646 54.102C165.262 54.5687 165.658 55.2173 165.836 56.048H163.764C163.68 55.7493 163.512 55.5113 163.26 55.334C163.008 55.1567 162.709 55.068 162.364 55.068C162.056 55.068 161.776 55.1473 161.524 55.306C161.272 55.4647 161.071 55.6887 160.922 55.978C160.782 56.2673 160.712 56.6173 160.712 57.028C160.712 57.4293 160.782 57.7793 160.922 58.078C161.071 58.3767 161.272 58.6053 161.524 58.764C161.776 58.9227 162.056 59.002 162.364 59.002C162.709 59.002 163.008 58.918 163.26 58.75C163.512 58.5727 163.68 58.3253 163.764 58.008H165.836C165.668 58.8107 165.271 59.4547 164.646 59.94C164.03 60.4253 163.274 60.668 162.378 60.668ZM169.155 60.5C168.669 60.5 168.259 60.444 167.923 60.332C167.596 60.22 167.349 60.0053 167.181 59.688C167.013 59.3613 166.929 58.8947 166.929 58.288V55.194H165.739V53.556H166.929V51.652H168.889V53.556H170.597V55.194H168.889V58.05C168.889 58.2647 168.912 58.428 168.959 58.54C169.005 58.652 169.089 58.7313 169.211 58.778C169.341 58.8153 169.514 58.834 169.729 58.834H170.555V60.5H169.155ZM173.729 60.668C172.795 60.668 172.03 60.4487 171.433 60.01C170.835 59.5713 170.499 58.9973 170.425 58.288H172.427C172.492 58.5587 172.651 58.778 172.903 58.946C173.155 59.1047 173.453 59.184 173.799 59.184C174.181 59.184 174.471 59.1187 174.667 58.988C174.872 58.848 174.975 58.68 174.975 58.484C174.975 58.3253 174.9 58.1993 174.751 58.106C174.601 58.0033 174.345 57.9333 173.981 57.896C173.85 57.8773 173.668 57.8493 173.435 57.812C173.211 57.7747 173.029 57.742 172.889 57.714C172.497 57.6393 172.137 57.518 171.811 57.35C171.493 57.1727 171.241 56.944 171.055 56.664C170.868 56.3747 170.775 56.0247 170.775 55.614C170.775 54.9887 171.008 54.4613 171.475 54.032C171.941 53.6027 172.627 53.388 173.533 53.388C174.447 53.388 175.166 53.5887 175.689 53.99C176.221 54.3913 176.519 54.9467 176.585 55.656H174.695C174.667 55.404 174.541 55.2127 174.317 55.082C174.093 54.9513 173.836 54.886 173.547 54.886C173.192 54.886 172.926 54.9467 172.749 55.068C172.571 55.1893 172.483 55.3387 172.483 55.516C172.483 55.8053 172.772 56.0013 173.351 56.104C173.435 56.1133 173.551 56.132 173.701 56.16C173.859 56.1787 174.018 56.202 174.177 56.23C174.345 56.2487 174.475 56.2673 174.569 56.286C174.849 56.3233 175.119 56.3887 175.381 56.482C175.651 56.566 175.889 56.6827 176.095 56.832C176.309 56.9813 176.477 57.1773 176.599 57.42C176.72 57.6627 176.781 57.9613 176.781 58.316C176.781 58.7827 176.664 59.1933 176.431 59.548C176.197 59.9027 175.852 60.178 175.395 60.374C174.947 60.57 174.391 60.668 173.729 60.668ZM181.425 60.5V53.556H183.385V54.382C183.609 54.074 183.899 53.8313 184.253 53.654C184.617 53.4767 185.033 53.388 185.499 53.388C186.022 53.388 186.47 53.4907 186.843 53.696C187.226 53.9013 187.529 54.2 187.753 54.592C188.015 54.2187 188.355 53.9247 188.775 53.71C189.195 53.4953 189.662 53.388 190.175 53.388C191.099 53.388 191.799 53.668 192.275 54.228C192.761 54.7787 193.003 55.5767 193.003 56.622V60.5H191.057V56.804C191.057 56.2347 190.95 55.8007 190.735 55.502C190.521 55.194 190.18 55.04 189.713 55.04C189.256 55.04 188.887 55.208 188.607 55.544C188.337 55.8707 188.201 56.328 188.201 56.916V60.5H186.255V56.804C186.255 56.2347 186.143 55.8007 185.919 55.502C185.695 55.194 185.35 55.04 184.883 55.04C184.435 55.04 184.071 55.208 183.791 55.544C183.521 55.8707 183.385 56.328 183.385 56.916V60.5H181.425ZM196.159 60.668C195.646 60.668 195.202 60.5747 194.829 60.388C194.456 60.2013 194.166 59.9493 193.961 59.632C193.765 59.3147 193.667 58.9647 193.667 58.582C193.667 57.8633 193.924 57.308 194.437 56.916C194.96 56.5147 195.641 56.314 196.481 56.314C196.882 56.314 197.223 56.342 197.503 56.398C197.792 56.454 198.026 56.51 198.203 56.566V56.23C198.203 55.7727 198.068 55.4413 197.797 55.236C197.536 55.0307 197.2 54.928 196.789 54.928C196.509 54.928 196.257 54.984 196.033 55.096C195.809 55.208 195.664 55.4133 195.599 55.712H193.765C193.821 55.2173 193.984 54.7973 194.255 54.452C194.535 54.1067 194.894 53.8453 195.333 53.668C195.772 53.4813 196.257 53.388 196.789 53.388C197.834 53.388 198.656 53.6353 199.253 54.13C199.86 54.6153 200.163 55.3153 200.163 56.23V57.672C200.163 58.0267 200.182 58.2927 200.219 58.47C200.266 58.638 200.336 58.7453 200.429 58.792C200.522 58.8387 200.644 58.862 200.793 58.862H200.849V60.5H200.415C199.911 60.5 199.491 60.4393 199.155 60.318C198.819 60.1873 198.572 59.94 198.413 59.576C198.17 59.8933 197.858 60.1547 197.475 60.36C197.092 60.5653 196.654 60.668 196.159 60.668ZM196.621 59.184C196.892 59.184 197.12 59.128 197.307 59.016C197.503 58.8947 197.666 58.7313 197.797 58.526C197.928 58.3113 198.026 58.0733 198.091 57.812C197.904 57.756 197.685 57.7047 197.433 57.658C197.19 57.602 196.943 57.574 196.691 57.574C196.402 57.574 196.154 57.6487 195.949 57.798C195.744 57.938 195.641 58.1433 195.641 58.414C195.641 58.638 195.73 58.8247 195.907 58.974C196.084 59.114 196.322 59.184 196.621 59.184ZM204.332 60.668C203.688 60.668 203.105 60.5093 202.582 60.192C202.069 59.8747 201.663 59.4407 201.364 58.89C201.066 58.33 200.916 57.7047 200.916 57.014C200.916 56.314 201.066 55.6933 201.364 55.152C201.663 54.6013 202.069 54.172 202.582 53.864C203.105 53.5467 203.688 53.388 204.332 53.388C204.846 53.388 205.289 53.4813 205.662 53.668C206.045 53.8547 206.353 54.116 206.586 54.452V50.42H208.546V60.5H206.586V59.548C206.372 59.8467 206.082 60.108 205.718 60.332C205.364 60.556 204.902 60.668 204.332 60.668ZM204.78 58.96C205.144 58.96 205.466 58.876 205.746 58.708C206.026 58.54 206.246 58.3113 206.404 58.022C206.563 57.7233 206.642 57.392 206.642 57.028C206.642 56.6547 206.563 56.3233 206.404 56.034C206.246 55.7447 206.026 55.516 205.746 55.348C205.466 55.18 205.144 55.096 204.78 55.096C204.426 55.096 204.104 55.18 203.814 55.348C203.534 55.516 203.315 55.7447 203.156 56.034C202.998 56.314 202.918 56.6407 202.918 57.014C202.918 57.3873 202.998 57.7233 203.156 58.022C203.315 58.3113 203.534 58.54 203.814 58.708C204.104 58.876 204.426 58.96 204.78 58.96ZM212.74 60.668C212.022 60.668 211.387 60.5187 210.836 60.22C210.286 59.912 209.856 59.492 209.548 58.96C209.24 58.4187 209.086 57.798 209.086 57.098C209.086 56.3793 209.236 55.74 209.534 55.18C209.842 54.62 210.272 54.1813 210.822 53.864C211.373 53.5467 212.012 53.388 212.74 53.388C213.431 53.388 214.042 53.5373 214.574 53.836C215.106 54.1347 215.522 54.5453 215.82 55.068C216.119 55.5813 216.268 56.1693 216.268 56.832C216.268 56.9253 216.268 57.0327 216.268 57.154C216.268 57.266 216.259 57.3827 216.24 57.504H210.486V56.328H214.28C214.252 55.9173 214.094 55.5907 213.804 55.348C213.524 55.096 213.174 54.97 212.754 54.97C212.437 54.97 212.143 55.04 211.872 55.18C211.611 55.32 211.401 55.5347 211.242 55.824C211.093 56.104 211.018 56.4633 211.018 56.902V57.308C211.018 57.6627 211.088 57.9753 211.228 58.246C211.378 58.5073 211.578 58.7127 211.83 58.862C212.092 59.002 212.39 59.072 212.726 59.072C213.053 59.072 213.328 59.002 213.552 58.862C213.776 58.7127 213.949 58.5213 214.07 58.288H216.072C215.942 58.736 215.718 59.142 215.4 59.506C215.092 59.8607 214.71 60.1453 214.252 60.36C213.804 60.5653 213.3 60.668 212.74 60.668ZM222.502 60.5L220.458 53.556H222.39L223.762 59.394L223.286 59.38L224.868 53.556H227.038L228.634 59.38L228.144 59.394L229.516 53.556H231.462L229.418 60.5H227.388L225.68 54.508H226.226L224.532 60.5H222.502ZM231.603 60.5V53.556H233.563V60.5H231.603ZM231.687 52.45V50.63H233.507V52.45H231.687ZM237.243 60.5C236.758 60.5 236.347 60.444 236.011 60.332C235.685 60.22 235.437 60.0053 235.269 59.688C235.101 59.3613 235.017 58.8947 235.017 58.288V55.194H233.827V53.556H235.017V51.652H236.977V53.556H238.685V55.194H236.977V58.05C236.977 58.2647 237.001 58.428 237.047 58.54C237.094 58.652 237.178 58.7313 237.299 58.778C237.43 58.8153 237.603 58.834 237.817 58.834H238.643V60.5H237.243ZM238.986 60.5V50.42H240.946V54.578C241.17 54.214 241.478 53.9247 241.87 53.71C242.271 53.4953 242.729 53.388 243.242 53.388C244.11 53.388 244.777 53.668 245.244 54.228C245.711 54.7787 245.944 55.5767 245.944 56.622V60.5H243.998V56.804C243.998 56.2347 243.886 55.8007 243.662 55.502C243.438 55.194 243.079 55.04 242.584 55.04C242.108 55.04 241.716 55.208 241.408 55.544C241.1 55.8707 240.946 56.328 240.946 56.916V60.5H238.986ZM104.504 84.5V74.42H106.464V78.578C106.688 78.214 106.996 77.9247 107.388 77.71C107.789 77.4953 108.247 77.388 108.76 77.388C109.628 77.388 110.295 77.668 110.762 78.228C111.229 78.7787 111.462 79.5767 111.462 80.622V84.5H109.516V80.804C109.516 80.2347 109.404 79.8007 109.18 79.502C108.956 79.194 108.597 79.04 108.102 79.04C107.626 79.04 107.234 79.208 106.926 79.544C106.618 79.8707 106.464 80.328 106.464 80.916V84.5H104.504ZM115.639 84.668C114.92 84.668 114.285 84.5187 113.735 84.22C113.184 83.912 112.755 83.492 112.447 82.96C112.139 82.4187 111.985 81.798 111.985 81.098C111.985 80.3793 112.134 79.74 112.433 79.18C112.741 78.62 113.17 78.1813 113.721 77.864C114.271 77.5467 114.911 77.388 115.639 77.388C116.329 77.388 116.941 77.5373 117.473 77.836C118.005 78.1347 118.42 78.5453 118.719 79.068C119.017 79.5813 119.167 80.1693 119.167 80.832C119.167 80.9253 119.167 81.0327 119.167 81.154C119.167 81.266 119.157 81.3827 119.139 81.504H113.385V80.328H117.179C117.151 79.9173 116.992 79.5907 116.703 79.348C116.423 79.096 116.073 78.97 115.653 78.97C115.335 78.97 115.041 79.04 114.771 79.18C114.509 79.32 114.299 79.5347 114.141 79.824C113.991 80.104 113.917 80.4633 113.917 80.902V81.308C113.917 81.6627 113.987 81.9753 114.127 82.246C114.276 82.5073 114.477 82.7127 114.729 82.862C114.99 83.002 115.289 83.072 115.625 83.072C115.951 83.072 116.227 83.002 116.451 82.862C116.675 82.7127 116.847 82.5213 116.969 82.288H118.971C118.84 82.736 118.616 83.142 118.299 83.506C117.991 83.8607 117.608 84.1453 117.151 84.36C116.703 84.5653 116.199 84.668 115.639 84.668ZM119.708 84.5V77.556H121.668V78.606C121.854 78.2607 122.088 77.99 122.368 77.794C122.648 77.5887 122.965 77.486 123.32 77.486H124.174V79.222H123.124C122.778 79.222 122.498 79.3107 122.284 79.488C122.069 79.6653 121.91 79.9313 121.808 80.286C121.714 80.6313 121.668 81.056 121.668 81.56V84.5H119.708ZM129.016 84.668C128.502 84.668 128.054 84.5747 127.672 84.388C127.298 84.2013 126.99 83.94 126.748 83.604V84.5H124.788V74.42H126.748V78.508C126.972 78.2093 127.261 77.948 127.616 77.724C127.98 77.5 128.446 77.388 129.016 77.388C129.66 77.388 130.238 77.5467 130.752 77.864C131.265 78.1813 131.671 78.6153 131.97 79.166C132.268 79.7167 132.418 80.342 132.418 81.042C132.418 81.7327 132.268 82.3533 131.97 82.904C131.671 83.4547 131.265 83.8887 130.752 84.206C130.238 84.514 129.66 84.668 129.016 84.668ZM128.554 82.96C128.918 82.96 129.24 82.876 129.52 82.708C129.809 82.54 130.033 82.3113 130.192 82.022C130.35 81.7327 130.43 81.406 130.43 81.042C130.43 80.6687 130.35 80.3373 130.192 80.048C130.033 79.7493 129.809 79.516 129.52 79.348C129.24 79.18 128.918 79.096 128.554 79.096C128.19 79.096 127.868 79.18 127.588 79.348C127.308 79.516 127.088 79.7447 126.93 80.034C126.771 80.3233 126.692 80.6547 126.692 81.028C126.692 81.4013 126.771 81.7327 126.93 82.022C127.088 82.3113 127.308 82.54 127.588 82.708C127.868 82.876 128.19 82.96 128.554 82.96ZM135.187 84.668C134.674 84.668 134.23 84.5747 133.857 84.388C133.484 84.2013 133.194 83.9493 132.989 83.632C132.793 83.3147 132.695 82.9647 132.695 82.582C132.695 81.8633 132.952 81.308 133.465 80.916C133.988 80.5147 134.669 80.314 135.509 80.314C135.91 80.314 136.251 80.342 136.531 80.398C136.82 80.454 137.054 80.51 137.231 80.566V80.23C137.231 79.7727 137.096 79.4413 136.825 79.236C136.564 79.0307 136.228 78.928 135.817 78.928C135.537 78.928 135.285 78.984 135.061 79.096C134.837 79.208 134.692 79.4133 134.627 79.712H132.793C132.849 79.2173 133.012 78.7973 133.283 78.452C133.563 78.1067 133.922 77.8453 134.361 77.668C134.8 77.4813 135.285 77.388 135.817 77.388C136.862 77.388 137.684 77.6353 138.281 78.13C138.888 78.6153 139.191 79.3153 139.191 80.23V81.672C139.191 82.0267 139.21 82.2927 139.247 82.47C139.294 82.638 139.364 82.7453 139.457 82.792C139.55 82.8387 139.672 82.862 139.821 82.862H139.877V84.5H139.443C138.939 84.5 138.519 84.4393 138.183 84.318C137.847 84.1873 137.6 83.94 137.441 83.576C137.198 83.8933 136.886 84.1547 136.503 84.36C136.12 84.5653 135.682 84.668 135.187 84.668ZM135.649 83.184C135.92 83.184 136.148 83.128 136.335 83.016C136.531 82.8947 136.694 82.7313 136.825 82.526C136.956 82.3113 137.054 82.0733 137.119 81.812C136.932 81.756 136.713 81.7047 136.461 81.658C136.218 81.602 135.971 81.574 135.719 81.574C135.43 81.574 135.182 81.6487 134.977 81.798C134.772 81.938 134.669 82.1433 134.669 82.414C134.669 82.638 134.758 82.8247 134.935 82.974C135.112 83.114 135.35 83.184 135.649 83.184ZM140.25 84.5V74.42H142.21V84.5H140.25ZM150.478 84.668C149.778 84.668 149.144 84.514 148.574 84.206C148.014 83.898 147.566 83.4687 147.23 82.918C146.904 82.3673 146.74 81.7373 146.74 81.028C146.74 80.3093 146.904 79.6793 147.23 79.138C147.566 78.5873 148.019 78.158 148.588 77.85C149.158 77.542 149.788 77.388 150.478 77.388C151.178 77.388 151.808 77.542 152.368 77.85C152.938 78.158 153.386 78.5873 153.712 79.138C154.048 79.6793 154.216 80.3093 154.216 81.028C154.216 81.7373 154.048 82.3673 153.712 82.918C153.386 83.4687 152.938 83.898 152.368 84.206C151.808 84.514 151.178 84.668 150.478 84.668ZM150.478 82.974C150.796 82.974 151.085 82.904 151.346 82.764C151.608 82.6147 151.813 82.3953 151.962 82.106C152.121 81.8167 152.2 81.4573 152.2 81.028C152.2 80.5987 152.121 80.2393 151.962 79.95C151.804 79.6607 151.594 79.446 151.332 79.306C151.08 79.1567 150.8 79.082 150.492 79.082C150.175 79.082 149.886 79.1567 149.624 79.306C149.363 79.446 149.153 79.6607 148.994 79.95C148.836 80.23 148.756 80.5893 148.756 81.028C148.756 81.4573 148.831 81.8167 148.98 82.106C149.139 82.3953 149.349 82.6147 149.61 82.764C149.872 82.904 150.161 82.974 150.478 82.974ZM154.737 84.5V77.556H156.697V78.606C156.883 78.2607 157.117 77.99 157.397 77.794C157.677 77.5887 157.994 77.486 158.349 77.486H159.203V79.222H158.153C157.807 79.222 157.527 79.3107 157.313 79.488C157.098 79.6653 156.939 79.9313 156.837 80.286C156.743 80.6313 156.697 81.056 156.697 81.56V84.5H154.737ZM163.802 84.5V77.556H165.762V78.578C165.986 78.214 166.289 77.9247 166.672 77.71C167.064 77.4953 167.521 77.388 168.044 77.388C168.921 77.388 169.593 77.668 170.06 78.228C170.526 78.7787 170.76 79.5767 170.76 80.622V84.5H168.8V80.804C168.8 80.2347 168.683 79.8007 168.45 79.502C168.226 79.194 167.866 79.04 167.372 79.04C166.905 79.04 166.518 79.208 166.21 79.544C165.911 79.8707 165.762 80.328 165.762 80.916V84.5H163.802ZM173.914 84.668C173.401 84.668 172.958 84.5747 172.584 84.388C172.211 84.2013 171.922 83.9493 171.716 83.632C171.52 83.3147 171.422 82.9647 171.422 82.582C171.422 81.8633 171.679 81.308 172.192 80.916C172.715 80.5147 173.396 80.314 174.236 80.314C174.638 80.314 174.978 80.342 175.258 80.398C175.548 80.454 175.781 80.51 175.958 80.566V80.23C175.958 79.7727 175.823 79.4413 175.552 79.236C175.291 79.0307 174.955 78.928 174.544 78.928C174.264 78.928 174.012 78.984 173.788 79.096C173.564 79.208 173.42 79.4133 173.354 79.712H171.52C171.576 79.2173 171.74 78.7973 172.01 78.452C172.29 78.1067 172.65 77.8453 173.088 77.668C173.527 77.4813 174.012 77.388 174.544 77.388C175.59 77.388 176.411 77.6353 177.008 78.13C177.615 78.6153 177.918 79.3153 177.918 80.23V81.672C177.918 82.0267 177.937 82.2927 177.974 82.47C178.021 82.638 178.091 82.7453 178.184 82.792C178.278 82.8387 178.399 82.862 178.548 82.862H178.604V84.5H178.17C177.666 84.5 177.246 84.4393 176.91 84.318C176.574 84.1873 176.327 83.94 176.168 83.576C175.926 83.8933 175.613 84.1547 175.23 84.36C174.848 84.5653 174.409 84.668 173.914 84.668ZM174.376 83.184C174.647 83.184 174.876 83.128 175.062 83.016C175.258 82.8947 175.422 82.7313 175.552 82.526C175.683 82.3113 175.781 82.0733 175.846 81.812C175.66 81.756 175.44 81.7047 175.188 81.658C174.946 81.602 174.698 81.574 174.446 81.574C174.157 81.574 173.91 81.6487 173.704 81.798C173.499 81.938 173.396 82.1433 173.396 82.414C173.396 82.638 173.485 82.8247 173.662 82.974C173.84 83.114 174.078 83.184 174.376 83.184ZM181.7 84.5C181.214 84.5 180.804 84.444 180.468 84.332C180.141 84.22 179.894 84.0053 179.726 83.688C179.558 83.3613 179.474 82.8947 179.474 82.288V79.194H178.284V77.556H179.474V75.652H181.434V77.556H183.142V79.194H181.434V82.05C181.434 82.2647 181.457 82.428 181.504 82.54C181.55 82.652 181.634 82.7313 181.756 82.778C181.886 82.8153 182.059 82.834 182.274 82.834H183.1V84.5H181.7ZM185.878 84.668C185.075 84.668 184.445 84.3927 183.988 83.842C183.531 83.282 183.302 82.4793 183.302 81.434V77.556H185.248V81.252C185.248 81.8213 185.355 82.26 185.57 82.568C185.785 82.8667 186.107 83.016 186.536 83.016C187.003 83.016 187.362 82.8527 187.614 82.526C187.875 82.19 188.006 81.728 188.006 81.14V77.556H189.966V84.5H188.006V83.506C187.801 83.8607 187.521 84.1453 187.166 84.36C186.821 84.5653 186.391 84.668 185.878 84.668ZM190.695 84.5V77.556H192.655V78.606C192.842 78.2607 193.075 77.99 193.355 77.794C193.635 77.5887 193.953 77.486 194.307 77.486H195.161V79.222H194.111C193.766 79.222 193.486 79.3107 193.271 79.488C193.057 79.6653 192.898 79.9313 192.795 80.286C192.702 80.6313 192.655 81.056 192.655 81.56V84.5H190.695ZM197.855 84.668C197.342 84.668 196.898 84.5747 196.525 84.388C196.152 84.2013 195.862 83.9493 195.657 83.632C195.461 83.3147 195.363 82.9647 195.363 82.582C195.363 81.8633 195.62 81.308 196.133 80.916C196.656 80.5147 197.337 80.314 198.177 80.314C198.578 80.314 198.919 80.342 199.199 80.398C199.488 80.454 199.722 80.51 199.899 80.566V80.23C199.899 79.7727 199.764 79.4413 199.493 79.236C199.232 79.0307 198.896 78.928 198.485 78.928C198.205 78.928 197.953 78.984 197.729 79.096C197.505 79.208 197.36 79.4133 197.295 79.712H195.461C195.517 79.2173 195.68 78.7973 195.951 78.452C196.231 78.1067 196.59 77.8453 197.029 77.668C197.468 77.4813 197.953 77.388 198.485 77.388C199.53 77.388 200.352 77.6353 200.949 78.13C201.556 78.6153 201.859 79.3153 201.859 80.23V81.672C201.859 82.0267 201.878 82.2927 201.915 82.47C201.962 82.638 202.032 82.7453 202.125 82.792C202.218 82.8387 202.34 82.862 202.489 82.862H202.545V84.5H202.111C201.607 84.5 201.187 84.4393 200.851 84.318C200.515 84.1873 200.268 83.94 200.109 83.576C199.866 83.8933 199.554 84.1547 199.171 84.36C198.788 84.5653 198.35 84.668 197.855 84.668ZM198.317 83.184C198.588 83.184 198.816 83.128 199.003 83.016C199.199 82.8947 199.362 82.7313 199.493 82.526C199.624 82.3113 199.722 82.0733 199.787 81.812C199.6 81.756 199.381 81.7047 199.129 81.658C198.886 81.602 198.639 81.574 198.387 81.574C198.098 81.574 197.85 81.6487 197.645 81.798C197.44 81.938 197.337 82.1433 197.337 82.414C197.337 82.638 197.426 82.8247 197.603 82.974C197.78 83.114 198.018 83.184 198.317 83.184ZM202.919 84.5V74.42H204.879V84.5H202.919ZM209.618 84.5V77.556H211.578V84.5H209.618ZM209.702 76.45V74.63H211.522V76.45H209.702ZM212.305 84.5V77.556H214.265V78.578C214.489 78.214 214.792 77.9247 215.175 77.71C215.567 77.4953 216.024 77.388 216.547 77.388C217.424 77.388 218.096 77.668 218.563 78.228C219.03 78.7787 219.263 79.5767 219.263 80.622V84.5H217.303V80.804C217.303 80.2347 217.186 79.8007 216.953 79.502C216.729 79.194 216.37 79.04 215.875 79.04C215.408 79.04 215.021 79.208 214.713 79.544C214.414 79.8707 214.265 80.328 214.265 80.916V84.5H212.305ZM223.902 87.748C223.314 87.748 222.744 87.65 222.194 87.454C221.652 87.2673 221.19 86.964 220.808 86.544C220.425 86.124 220.196 85.578 220.122 84.906H222.068C222.142 85.2607 222.343 85.5407 222.67 85.746C223.006 85.9513 223.402 86.054 223.86 86.054C224.186 86.054 224.49 85.984 224.77 85.844C225.05 85.7133 225.274 85.508 225.442 85.228C225.61 84.9573 225.694 84.6073 225.694 84.178V83.338C225.554 83.5527 225.376 83.7487 225.162 83.926C224.947 84.1033 224.69 84.248 224.392 84.36C224.102 84.4627 223.766 84.514 223.384 84.514C222.721 84.514 222.124 84.36 221.592 84.052C221.069 83.7347 220.654 83.3053 220.346 82.764C220.047 82.2227 219.898 81.616 219.898 80.944C219.898 80.272 220.047 79.67 220.346 79.138C220.654 78.5967 221.069 78.172 221.592 77.864C222.124 77.5467 222.721 77.388 223.384 77.388C223.897 77.388 224.35 77.4907 224.742 77.696C225.143 77.9013 225.46 78.158 225.694 78.466V77.556H227.654V84.066C227.654 84.878 227.481 85.5547 227.136 86.096C226.79 86.6467 226.333 87.0573 225.764 87.328C225.194 87.608 224.574 87.748 223.902 87.748ZM223.79 82.82C224.172 82.82 224.504 82.736 224.784 82.568C225.064 82.4 225.283 82.176 225.442 81.896C225.6 81.616 225.68 81.3033 225.68 80.958C225.68 80.6033 225.6 80.286 225.442 80.006C225.283 79.726 225.064 79.5067 224.784 79.348C224.504 79.18 224.172 79.096 223.79 79.096C223.416 79.096 223.085 79.18 222.796 79.348C222.516 79.5067 222.296 79.726 222.138 80.006C221.979 80.2767 221.9 80.5893 221.9 80.944C221.9 81.2893 221.979 81.6067 222.138 81.896C222.296 82.176 222.516 82.4 222.796 82.568C223.085 82.736 223.416 82.82 223.79 82.82ZM228.397 84.5V77.556H230.357V78.606C230.544 78.2607 230.777 77.99 231.057 77.794C231.337 77.5887 231.655 77.486 232.009 77.486H232.863V79.222H231.813C231.468 79.222 231.188 79.3107 230.973 79.488C230.759 79.6653 230.6 79.9313 230.497 80.286C230.404 80.6313 230.357 81.056 230.357 81.56V84.5H228.397ZM236.196 84.668C235.478 84.668 234.843 84.5187 234.292 84.22C233.742 83.912 233.312 83.492 233.004 82.96C232.696 82.4187 232.542 81.798 232.542 81.098C232.542 80.3793 232.692 79.74 232.99 79.18C233.298 78.62 233.728 78.1813 234.278 77.864C234.829 77.5467 235.468 77.388 236.196 77.388C236.887 77.388 237.498 77.5373 238.03 77.836C238.562 78.1347 238.978 78.5453 239.276 79.068C239.575 79.5813 239.724 80.1693 239.724 80.832C239.724 80.9253 239.724 81.0327 239.724 81.154C239.724 81.266 239.715 81.3827 239.696 81.504H233.942V80.328H237.736C237.708 79.9173 237.55 79.5907 237.26 79.348C236.98 79.096 236.63 78.97 236.21 78.97C235.893 78.97 235.599 79.04 235.328 79.18C235.067 79.32 234.857 79.5347 234.698 79.824C234.549 80.104 234.474 80.4633 234.474 80.902V81.308C234.474 81.6627 234.544 81.9753 234.684 82.246C234.834 82.5073 235.034 82.7127 235.286 82.862C235.548 83.002 235.846 83.072 236.182 83.072C236.509 83.072 236.784 83.002 237.008 82.862C237.232 82.7127 237.405 82.5213 237.526 82.288H239.528C239.398 82.736 239.174 83.142 238.856 83.506C238.548 83.8607 238.166 84.1453 237.708 84.36C237.26 84.5653 236.756 84.668 236.196 84.668ZM243.443 84.668C242.799 84.668 242.216 84.5093 241.693 84.192C241.18 83.8747 240.774 83.4407 240.475 82.89C240.177 82.33 240.027 81.7047 240.027 81.014C240.027 80.314 240.177 79.6933 240.475 79.152C240.774 78.6013 241.18 78.172 241.693 77.864C242.216 77.5467 242.799 77.388 243.443 77.388C243.957 77.388 244.4 77.4813 244.773 77.668C245.156 77.8547 245.464 78.116 245.697 78.452V74.42H247.657V84.5H245.697V83.548C245.483 83.8467 245.193 84.108 244.829 84.332C244.475 84.556 244.013 84.668 243.443 84.668ZM243.891 82.96C244.255 82.96 244.577 82.876 244.857 82.708C245.137 82.54 245.357 82.3113 245.515 82.022C245.674 81.7233 245.753 81.392 245.753 81.028C245.753 80.6547 245.674 80.3233 245.515 80.034C245.357 79.7447 245.137 79.516 244.857 79.348C244.577 79.18 244.255 79.096 243.891 79.096C243.537 79.096 243.215 79.18 242.925 79.348C242.645 79.516 242.426 79.7447 242.267 80.034C242.109 80.314 242.029 80.6407 242.029 81.014C242.029 81.3873 242.109 81.7233 242.267 82.022C242.426 82.3113 242.645 82.54 242.925 82.708C243.215 82.876 243.537 82.96 243.891 82.96ZM248.407 84.5V77.556H250.367V84.5H248.407ZM248.491 76.45V74.63H250.311V76.45H248.491ZM254.538 84.668C253.819 84.668 253.185 84.5187 252.634 84.22C252.083 83.912 251.654 83.492 251.346 82.96C251.038 82.4187 250.884 81.798 250.884 81.098C250.884 80.3793 251.033 79.74 251.332 79.18C251.64 78.62 252.069 78.1813 252.62 77.864C253.171 77.5467 253.81 77.388 254.538 77.388C255.229 77.388 255.84 77.5373 256.372 77.836C256.904 78.1347 257.319 78.5453 257.618 79.068C257.917 79.5813 258.066 80.1693 258.066 80.832C258.066 80.9253 258.066 81.0327 258.066 81.154C258.066 81.266 258.057 81.3827 258.038 81.504H252.284V80.328H256.078C256.05 79.9173 255.891 79.5907 255.602 79.348C255.322 79.096 254.972 78.97 254.552 78.97C254.235 78.97 253.941 79.04 253.67 79.18C253.409 79.32 253.199 79.5347 253.04 79.824C252.891 80.104 252.816 80.4633 252.816 80.902V81.308C252.816 81.6627 252.886 81.9753 253.026 82.246C253.175 82.5073 253.376 82.7127 253.628 82.862C253.889 83.002 254.188 83.072 254.524 83.072C254.851 83.072 255.126 83.002 255.35 82.862C255.574 82.7127 255.747 82.5213 255.868 82.288H257.87C257.739 82.736 257.515 83.142 257.198 83.506C256.89 83.8607 256.507 84.1453 256.05 84.36C255.602 84.5653 255.098 84.668 254.538 84.668ZM258.607 84.5V77.556H260.567V78.578C260.791 78.214 261.094 77.9247 261.477 77.71C261.869 77.4953 262.326 77.388 262.849 77.388C263.726 77.388 264.398 77.668 264.865 78.228C265.331 78.7787 265.565 79.5767 265.565 80.622V84.5H263.605V80.804C263.605 80.2347 263.488 79.8007 263.255 79.502C263.031 79.194 262.671 79.04 262.177 79.04C261.71 79.04 261.323 79.208 261.015 79.544C260.716 79.8707 260.567 80.328 260.567 80.916V84.5H258.607ZM269.046 84.5C268.561 84.5 268.15 84.444 267.814 84.332C267.488 84.22 267.24 84.0053 267.072 83.688C266.904 83.3613 266.82 82.8947 266.82 82.288V79.194H265.63V77.556H266.82V75.652H268.78V77.556H270.488V79.194H268.78V82.05C268.78 82.2647 268.804 82.428 268.85 82.54C268.897 82.652 268.981 82.7313 269.102 82.778C269.233 82.8153 269.406 82.834 269.62 82.834H270.446V84.5H269.046ZM273.62 84.668C272.687 84.668 271.922 84.4487 271.324 84.01C270.727 83.5713 270.391 82.9973 270.316 82.288H272.318C272.384 82.5587 272.542 82.778 272.794 82.946C273.046 83.1047 273.345 83.184 273.69 83.184C274.073 83.184 274.362 83.1187 274.558 82.988C274.764 82.848 274.866 82.68 274.866 82.484C274.866 82.3253 274.792 82.1993 274.642 82.106C274.493 82.0033 274.236 81.9333 273.872 81.896C273.742 81.8773 273.56 81.8493 273.326 81.812C273.102 81.7747 272.92 81.742 272.78 81.714C272.388 81.6393 272.029 81.518 271.702 81.35C271.385 81.1727 271.133 80.944 270.946 80.664C270.76 80.3747 270.666 80.0247 270.666 79.614C270.666 78.9887 270.9 78.4613 271.366 78.032C271.833 77.6027 272.519 77.388 273.424 77.388C274.339 77.388 275.058 77.5887 275.58 77.99C276.112 78.3913 276.411 78.9467 276.476 79.656H274.586C274.558 79.404 274.432 79.2127 274.208 79.082C273.984 78.9513 273.728 78.886 273.438 78.886C273.084 78.886 272.818 78.9467 272.64 79.068C272.463 79.1893 272.374 79.3387 272.374 79.516C272.374 79.8053 272.664 80.0013 273.242 80.104C273.326 80.1133 273.443 80.132 273.592 80.16C273.751 80.1787 273.91 80.202 274.068 80.23C274.236 80.2487 274.367 80.2673 274.46 80.286C274.74 80.3233 275.011 80.3887 275.272 80.482C275.543 80.566 275.781 80.6827 275.986 80.832C276.201 80.9813 276.369 81.1773 276.49 81.42C276.612 81.6627 276.672 81.9613 276.672 82.316C276.672 82.7827 276.556 83.1933 276.322 83.548C276.089 83.9027 275.744 84.178 275.286 84.374C274.838 84.57 274.283 84.668 273.62 84.668Z" fill="url(#paint1_linear_795_22397)"/>
<defs>
<linearGradient id="paint0_linear_795_22397" x1="24" y1="40.8985" x2="95.1289" y2="45.4755" gradientUnits="userSpaceOnUse">
<stop offset="0.54933" stop-color="#1A3038"/>
<stop offset="1" stop-color="#003DA6"/>
</linearGradient>
<linearGradient id="paint1_linear_795_22397" x1="104" y1="47.5489" x2="283.789" y2="88.3802" gradientUnits="userSpaceOnUse">
<stop offset="0.54933" stop-color="#1A3038"/>
<stop offset="1" stop-color="#003DA6"/>
</linearGradient>
</defs>
</svg>
