<svg width="308" height="286" viewBox="0 0 308 286" fill="none" xmlns="http://www.w3.org/2000/svg">
<g clip-path="url(#clip0_795_22328)">
<path d="M0 16C0 7.16345 7.16344 0 16 0H292C300.837 0 308 7.16344 308 16V270C308 278.837 300.837 286 292 286H16C7.16345 286 0 278.837 0 270V16Z" fill="#F6F8FB"/>
<g opacity="0.4" clip-path="url(#clip1_795_22328)">
<path d="M165.441 268.333V101.019C165.441 85.9718 177.64 73.7734 192.687 73.7734H325.303C315.719 73.8318 307.967 81.6167 307.967 91.2137V268.332C307.967 277.964 300.159 285.772 290.527 285.772H148.001C157.633 285.772 165.441 277.964 165.441 268.332V268.333Z" fill="url(#paint0_linear_795_22328)"/>
<path d="M188.046 127.61H285.257C286.827 127.61 288.111 126.325 288.111 124.755C288.111 123.184 286.826 121.9 285.257 121.9H188.046C186.475 121.9 185.191 123.185 185.191 124.755C185.191 126.326 186.476 127.61 188.046 127.61Z" fill="white"/>
<path d="M188.046 144.305H285.257C286.827 144.305 288.111 143.02 288.111 141.45C288.111 139.88 286.826 138.596 285.257 138.596H188.046C186.475 138.596 185.191 139.881 185.191 141.45C185.191 143.021 186.476 144.305 188.046 144.305Z" fill="white"/>
<path d="M188.046 161.004H285.257C286.827 161.004 288.111 159.719 288.111 158.15C288.111 156.579 286.826 155.295 285.257 155.295H188.046C186.475 155.295 185.191 156.58 185.191 158.15C185.191 159.72 186.476 161.004 188.046 161.004Z" fill="white"/>
<path d="M285.257 171.988H188.046C186.47 171.988 185.191 173.267 185.191 174.843C185.191 176.419 186.47 177.698 188.046 177.698H285.257C286.832 177.698 288.111 176.419 288.111 174.843C288.111 173.267 286.832 171.988 285.257 171.988Z" fill="white"/>
<path d="M285.257 188.686H188.046C186.47 188.686 185.191 189.965 185.191 191.54C185.191 193.116 186.47 194.395 188.046 194.395H285.257C286.832 194.395 288.111 193.116 288.111 191.54C288.111 189.965 286.832 188.686 285.257 188.686Z" fill="white"/>
<path d="M285.257 205.381H188.046C186.47 205.381 185.191 206.66 185.191 208.236C185.191 209.811 186.47 211.09 188.046 211.09H285.257C286.832 211.09 288.111 209.811 288.111 208.236C288.111 206.66 286.832 205.381 285.257 205.381Z" fill="white"/>
<path d="M285.257 222.078H188.046C186.47 222.078 185.191 223.357 185.191 224.933C185.191 226.509 186.47 227.788 188.046 227.788H285.257C286.832 227.788 288.111 226.509 288.111 224.933C288.111 223.357 286.832 222.078 285.257 222.078Z" fill="white"/>
<path d="M188.046 244.485H285.257C286.827 244.485 288.111 243.2 288.111 241.63C288.111 240.059 286.826 238.775 285.257 238.775H188.046C186.475 238.775 185.191 240.06 185.191 241.63C185.191 243.201 186.476 244.485 188.046 244.485Z" fill="white"/>
<path d="M199.451 93.542C242.454 93.542 277.314 128.403 277.314 171.406C277.314 214.408 242.453 249.269 199.451 249.269C187.254 249.269 175.717 246.46 165.441 241.461V101.349C175.718 96.3505 187.255 93.541 199.451 93.541V93.542Z" fill="url(#paint1_linear_795_22328)" style="mix-blend-mode:multiply"/>
<path d="M208.055 269.445C208.122 269.445 208.178 269.391 208.18 269.323C208.193 268.923 208.193 268.522 208.182 268.122C208.23 267.191 208.385 266.265 208.647 265.361C208.77 264.933 209.109 264.635 209.552 264.563C209.999 264.496 210.436 264.676 210.691 265.046L213.61 269.296C213.649 269.356 213.727 269.369 213.785 269.329C213.843 269.289 213.857 269.212 213.818 269.154L210.9 264.904C210.588 264.452 210.057 264.228 209.512 264.315C208.978 264.401 208.554 264.774 208.405 265.29C208.273 265.744 208.169 266.203 208.09 266.665C208.015 265.898 207.897 265.136 207.735 264.383C207.633 263.902 207.49 263.361 207.091 263.008C206.418 262.408 205.342 262.654 204.732 263.223C204.632 263.315 204.538 263.418 204.449 263.531C204.201 263.842 203.83 264.02 203.452 263.999C203.106 263.981 202.799 263.802 202.609 263.505L202.275 262.984C201.954 262.483 201.386 262.249 200.805 262.372C200.225 262.493 199.807 262.93 199.716 263.511C199.545 264.595 199.45 265.696 199.435 266.792C199.188 266.454 198.794 266.277 198.416 266.251C197.816 266.22 197.111 266.539 196.928 267.347C196.913 267.407 196.901 267.466 196.888 267.526L196.324 266.07C196.287 265.974 196.128 265.972 196.091 266.07C195.769 266.899 194.736 267.403 193.883 267.152C193.304 266.98 192.819 266.464 192.65 265.835C192.49 265.241 191.913 264.823 191.247 264.82C190.208 264.805 189.16 264.94 188.143 265.196C188.076 265.213 188.035 265.281 188.052 265.347C188.068 265.414 188.138 265.457 188.203 265.439C189.177 265.195 190.176 265.071 191.176 265.071H191.244C191.789 265.074 192.278 265.423 192.406 265.899C192.597 266.61 193.149 267.197 193.81 267.393C194.697 267.656 195.728 267.223 196.193 266.428L196.808 268.018C196.828 268.071 196.877 268.117 196.937 268.098C196.993 268.093 197.038 268.051 197.048 267.995C197.085 267.796 197.126 267.598 197.171 267.401C197.322 266.733 197.892 266.467 198.398 266.501C198.836 266.53 199.371 266.81 199.432 267.498C199.432 267.505 199.432 267.512 199.435 267.518V267.531H199.438C199.457 267.589 199.5 267.64 199.566 267.635C199.633 267.631 199.688 267.596 199.687 267.528C199.663 266.204 199.755 264.866 199.961 263.551C200.052 262.982 200.482 262.696 200.854 262.617C201.233 262.542 201.747 262.629 202.061 263.12L202.395 263.641C202.629 264.006 203.008 264.228 203.436 264.249C203.459 264.249 203.482 264.251 203.505 264.251C203.939 264.251 204.361 264.044 204.643 263.687C204.725 263.584 204.811 263.491 204.901 263.408C205.431 262.912 206.355 262.692 206.922 263.197C207.264 263.5 207.393 263.996 207.487 264.436C207.745 265.646 207.892 266.881 207.927 268.118C207.906 268.519 207.906 268.922 207.925 269.324C207.928 269.391 207.985 269.444 208.051 269.444L208.055 269.445Z" fill="#010D21"/>
<path d="M185.19 269.443H226.738C226.807 269.443 226.863 269.386 226.863 269.317C226.863 269.248 226.807 269.191 226.738 269.191H185.19C185.121 269.191 185.065 269.248 185.065 269.317C185.065 269.386 185.121 269.443 185.19 269.443Z" fill="#010D21"/>
<path d="M276.455 272.232C272.192 272.232 268.737 268.776 268.737 264.514C268.737 260.251 272.192 256.795 276.455 256.795C280.718 256.795 284.174 260.251 284.174 264.514C284.174 268.776 280.718 272.232 276.455 272.232Z" fill="white"/>
<path d="M278.529 270.781C278.576 270.781 278.621 270.755 278.642 270.712C279.64 268.702 280.845 266.79 282.226 265.025C282.288 265.974 283.064 266.797 283.843 267.49C284.224 267.828 284.604 268.166 284.984 268.505C285.495 268.958 285.969 269.074 286.285 268.82C286.339 268.775 286.347 268.697 286.305 268.643C286.261 268.587 286.181 268.58 286.128 268.622C285.833 268.864 285.346 268.488 285.151 268.315C284.771 267.976 284.391 267.638 284.009 267.3C283.132 266.52 282.34 265.659 282.491 264.661C282.499 264.604 282.469 264.55 282.417 264.527C282.366 264.502 282.304 264.519 282.269 264.563C280.873 266.306 279.649 268.194 278.626 270.184L278.445 267.263C278.442 267.213 278.409 267.169 278.361 267.153C278.315 267.133 278.261 267.147 278.228 267.184C277.781 267.66 277.426 268.229 277.191 268.842L277.189 266.22C277.189 266.17 277.16 266.125 277.113 266.106C277.068 266.083 277.014 266.094 276.978 266.128C276.777 266.316 276.608 266.54 276.481 266.786V262.423C276.481 262.364 276.44 262.315 276.382 262.301C276.32 262.287 276.266 262.316 276.241 262.368C275.909 263.055 275.628 263.77 275.399 264.502L275.397 262.393C275.397 262.337 275.36 262.288 275.306 262.272C275.254 262.257 275.196 262.278 275.165 262.326C274.39 263.546 273.761 264.856 273.292 266.223C272.84 265.338 272.632 264.323 272.704 263.331C272.708 263.268 272.665 263.211 272.6 263.199C272.548 263.189 272.476 263.224 272.458 263.286L271.834 265.328C270.403 265.582 269.125 264.804 267.769 263.981C266.569 263.251 265.327 262.497 263.949 262.497C263.886 262.492 263.814 262.551 263.814 262.622C263.814 262.694 263.87 262.748 263.94 262.748H263.949C265.257 262.748 266.468 263.483 267.639 264.195C268.998 265.021 270.403 265.879 271.957 265.559C272.003 265.549 272.039 265.516 272.052 265.472L272.454 264.155C272.52 265.013 272.779 265.856 273.21 266.597C273.234 266.64 273.273 266.672 273.333 266.66C273.382 266.655 273.423 266.621 273.438 266.574C273.863 265.266 274.436 264.01 275.144 262.833L275.147 265.411C275.147 265.474 275.194 265.527 275.256 265.535C275.331 265.548 275.379 265.503 275.394 265.441C275.603 264.603 275.882 263.783 276.225 262.994V267.592C276.225 267.658 276.278 267.712 276.344 267.717C276.406 267.721 276.469 267.674 276.477 267.608C276.527 267.221 276.69 266.844 276.934 266.537L276.937 269.741C276.937 269.805 276.988 269.859 277.051 269.865C277.118 269.877 277.176 269.827 277.187 269.763C277.334 268.969 277.693 268.204 278.209 267.579L278.399 270.659C278.404 270.716 278.445 270.763 278.501 270.773C278.509 270.775 278.518 270.776 278.525 270.776L278.529 270.781Z" fill="#010D21"/>
</g>
<path d="M101.02 136.92V100.36H86.86V92.2L97.66 91.4C98.6733 91.2933 99.4733 90.9733 100.06 90.44C100.7 89.9067 101.02 89.1333 101.02 88.12V85H112.22V136.92H101.02ZM84.86 141V131.88H128.06V141H84.86ZM157.211 141.96C152.731 141.96 148.945 141.187 145.851 139.64C142.811 138.04 140.358 135.933 138.491 133.32C136.625 130.707 135.265 127.8 134.411 124.6C133.611 121.347 133.211 118.067 133.211 114.76C133.211 108.467 134.145 103.027 136.011 98.44C137.878 93.8533 140.571 90.3067 144.091 87.8C147.611 85.2933 151.851 84.04 156.811 84.04C161.025 84.04 164.545 84.8133 167.371 86.36C170.251 87.9067 172.491 89.9333 174.091 92.44C175.691 94.8933 176.625 97.56 176.891 100.44H166.491C165.958 98.0933 164.865 96.3067 163.211 95.08C161.558 93.8533 159.398 93.24 156.731 93.24C152.411 93.24 149.131 95.24 146.891 99.24C144.651 103.187 143.771 109.187 144.251 117.24L143.211 113.16C144.011 111.56 145.158 110.147 146.651 108.92C148.198 107.64 149.985 106.627 152.011 105.88C154.091 105.133 156.331 104.76 158.731 104.76C162.145 104.76 165.318 105.507 168.251 107C171.185 108.493 173.558 110.6 175.371 113.32C177.185 116.04 178.091 119.267 178.091 123C178.091 126.413 177.211 129.56 175.451 132.44C173.691 135.32 171.238 137.64 168.091 139.4C164.945 141.107 161.318 141.96 157.211 141.96ZM156.651 132.36C158.891 132.36 160.811 132.013 162.411 131.32C164.011 130.573 165.238 129.533 166.091 128.2C166.945 126.813 167.371 125.187 167.371 123.32C167.371 121.4 166.918 119.773 166.011 118.44C165.158 117.053 163.931 116.013 162.331 115.32C160.731 114.573 158.785 114.2 156.491 114.2C154.198 114.2 152.198 114.573 150.491 115.32C148.838 116.013 147.558 117.027 146.651 118.36C145.798 119.693 145.371 121.293 145.371 123.16C145.371 125.08 145.825 126.733 146.731 128.12C147.638 129.453 148.918 130.493 150.571 131.24C152.278 131.987 154.305 132.36 156.651 132.36ZM199.243 131.72V94.28H208.683V131.72H199.243ZM185.803 117.64V108.36H222.123V117.64H185.803Z" fill="url(#paint2_linear_795_22328)"/>
<path d="M66.504 208V185.6H75.048C76.8613 185.6 78.3547 185.909 79.528 186.528C80.7227 187.125 81.608 187.957 82.184 189.024C82.7813 190.069 83.08 191.253 83.08 192.576C83.08 193.792 82.792 194.933 82.216 196C81.6613 197.045 80.7867 197.899 79.592 198.56C78.4187 199.2 76.904 199.52 75.048 199.52H70.984V208H66.504ZM70.984 195.904H74.76C76.0827 195.904 77.0427 195.605 77.64 195.008C78.2373 194.411 78.536 193.6 78.536 192.576C78.536 191.531 78.2373 190.72 77.64 190.144C77.0427 189.547 76.0827 189.248 74.76 189.248H70.984V195.904ZM88.548 208.384C87.3747 208.384 86.3613 208.171 85.508 207.744C84.6547 207.317 83.9933 206.741 83.524 206.016C83.076 205.291 82.852 204.491 82.852 203.616C82.852 201.973 83.4387 200.704 84.612 199.808C85.8067 198.891 87.364 198.432 89.284 198.432C90.2013 198.432 90.98 198.496 91.62 198.624C92.2813 198.752 92.8147 198.88 93.22 199.008V198.24C93.22 197.195 92.9107 196.437 92.292 195.968C91.6947 195.499 90.9267 195.264 89.988 195.264C89.348 195.264 88.772 195.392 88.26 195.648C87.748 195.904 87.4173 196.373 87.268 197.056H83.076C83.204 195.925 83.5773 194.965 84.196 194.176C84.836 193.387 85.6573 192.789 86.66 192.384C87.6627 191.957 88.772 191.744 89.988 191.744C92.3773 191.744 94.2547 192.309 95.62 193.44C97.0067 194.549 97.7 196.149 97.7 198.24V201.536C97.7 202.347 97.7427 202.955 97.828 203.36C97.9347 203.744 98.0947 203.989 98.308 204.096C98.5213 204.203 98.7987 204.256 99.14 204.256H99.268V208H98.276C97.124 208 96.164 207.861 95.396 207.584C94.628 207.285 94.0627 206.72 93.7 205.888C93.1453 206.613 92.4307 207.211 91.556 207.68C90.6813 208.149 89.6787 208.384 88.548 208.384ZM89.604 204.992C90.2227 204.992 90.7453 204.864 91.172 204.608C91.62 204.331 91.9933 203.957 92.292 203.488C92.5907 202.997 92.8147 202.453 92.964 201.856C92.5373 201.728 92.036 201.611 91.46 201.504C90.9053 201.376 90.34 201.312 89.764 201.312C89.1027 201.312 88.5373 201.483 88.068 201.824C87.5987 202.144 87.364 202.613 87.364 203.232C87.364 203.744 87.5667 204.171 87.972 204.512C88.3773 204.832 88.9213 204.992 89.604 204.992ZM106.343 208C105.233 208 104.295 207.872 103.527 207.616C102.78 207.36 102.215 206.869 101.831 206.144C101.447 205.397 101.255 204.331 101.255 202.944V195.872H98.5348V192.128H101.255V187.776H105.735V192.128H109.639V195.872H105.735V202.4C105.735 202.891 105.788 203.264 105.895 203.52C106.001 203.776 106.193 203.957 106.471 204.064C106.769 204.149 107.164 204.192 107.655 204.192H109.543V208H106.343ZM117.573 208.384C115.93 208.384 114.479 208.043 113.221 207.36C111.962 206.656 110.981 205.696 110.277 204.48C109.573 203.243 109.221 201.824 109.221 200.224C109.221 198.581 109.562 197.12 110.245 195.84C110.949 194.56 111.93 193.557 113.189 192.832C114.447 192.107 115.909 191.744 117.573 191.744C119.151 191.744 120.549 192.085 121.765 192.768C122.981 193.451 123.93 194.389 124.613 195.584C125.295 196.757 125.637 198.101 125.637 199.616C125.637 199.829 125.637 200.075 125.637 200.352C125.637 200.608 125.615 200.875 125.573 201.152H112.421V198.464H121.093C121.029 197.525 120.666 196.779 120.005 196.224C119.365 195.648 118.565 195.36 117.605 195.36C116.879 195.36 116.207 195.52 115.589 195.84C114.991 196.16 114.511 196.651 114.149 197.312C113.807 197.952 113.637 198.773 113.637 199.776V200.704C113.637 201.515 113.797 202.229 114.117 202.848C114.458 203.445 114.917 203.915 115.493 204.256C116.09 204.576 116.773 204.736 117.541 204.736C118.287 204.736 118.917 204.576 119.429 204.256C119.941 203.915 120.335 203.477 120.613 202.944H125.189C124.89 203.968 124.378 204.896 123.653 205.728C122.949 206.539 122.074 207.189 121.029 207.68C120.005 208.149 118.853 208.384 117.573 208.384ZM126.873 208V192.128H131.353V194.464C131.865 193.632 132.559 192.971 133.433 192.48C134.329 191.989 135.375 191.744 136.569 191.744C138.575 191.744 140.111 192.384 141.177 193.664C142.244 194.923 142.777 196.747 142.777 199.136V208H138.297V199.552C138.297 198.251 138.031 197.259 137.497 196.576C136.985 195.872 136.164 195.52 135.033 195.52C133.967 195.52 133.081 195.904 132.377 196.672C131.695 197.419 131.353 198.464 131.353 199.808V208H126.873ZM150.735 208C149.626 208 148.687 207.872 147.919 207.616C147.173 207.36 146.607 206.869 146.223 206.144C145.839 205.397 145.647 204.331 145.647 202.944V195.872H142.927V192.128H145.647V187.776H150.127V192.128H154.031V195.872H150.127V202.4C150.127 202.891 150.181 203.264 150.287 203.52C150.394 203.776 150.586 203.957 150.863 204.064C151.162 204.149 151.557 204.192 152.047 204.192H153.935V208H150.735ZM161.19 208.384C159.056 208.384 157.307 207.883 155.942 206.88C154.576 205.877 153.808 204.565 153.638 202.944H158.214C158.363 203.563 158.726 204.064 159.302 204.448C159.878 204.811 160.56 204.992 161.35 204.992C162.224 204.992 162.886 204.843 163.334 204.544C163.803 204.224 164.038 203.84 164.038 203.392C164.038 203.029 163.867 202.741 163.526 202.528C163.184 202.293 162.598 202.133 161.766 202.048C161.467 202.005 161.051 201.941 160.518 201.856C160.006 201.771 159.59 201.696 159.27 201.632C158.374 201.461 157.552 201.184 156.806 200.8C156.08 200.395 155.504 199.872 155.078 199.232C154.651 198.571 154.438 197.771 154.438 196.832C154.438 195.403 154.971 194.197 156.038 193.216C157.104 192.235 158.672 191.744 160.742 191.744C162.832 191.744 164.475 192.203 165.67 193.12C166.886 194.037 167.568 195.307 167.718 196.928H163.398C163.334 196.352 163.046 195.915 162.534 195.616C162.022 195.317 161.435 195.168 160.774 195.168C159.963 195.168 159.355 195.307 158.95 195.584C158.544 195.861 158.342 196.203 158.342 196.608C158.342 197.269 159.003 197.717 160.326 197.952C160.518 197.973 160.784 198.016 161.126 198.08C161.488 198.123 161.851 198.176 162.214 198.24C162.598 198.283 162.896 198.325 163.11 198.368C163.75 198.453 164.368 198.603 164.966 198.816C165.584 199.008 166.128 199.275 166.598 199.616C167.088 199.957 167.472 200.405 167.75 200.96C168.027 201.515 168.166 202.197 168.166 203.008C168.166 204.075 167.899 205.013 167.366 205.824C166.832 206.635 166.043 207.264 164.998 207.712C163.974 208.16 162.704 208.384 161.19 208.384ZM179.134 208V185.6H193.822V189.216H183.614V195.008H191.774V198.528H183.614V208H179.134ZM194.892 208V192.128H199.372V208H194.892ZM195.084 189.6V185.44H199.244V189.6H195.084ZM201.033 208V184.96H205.513V208H201.033ZM215.047 208.384C213.404 208.384 211.953 208.043 210.695 207.36C209.436 206.656 208.455 205.696 207.751 204.48C207.047 203.243 206.695 201.824 206.695 200.224C206.695 198.581 207.036 197.12 207.719 195.84C208.423 194.56 209.404 193.557 210.663 192.832C211.921 192.107 213.383 191.744 215.047 191.744C216.625 191.744 218.023 192.085 219.239 192.768C220.455 193.451 221.404 194.389 222.087 195.584C222.769 196.757 223.111 198.101 223.111 199.616C223.111 199.829 223.111 200.075 223.111 200.352C223.111 200.608 223.089 200.875 223.047 201.152H209.895V198.464H218.567C218.503 197.525 218.14 196.779 217.479 196.224C216.839 195.648 216.039 195.36 215.079 195.36C214.353 195.36 213.681 195.52 213.063 195.84C212.465 196.16 211.985 196.651 211.623 197.312C211.281 197.952 211.111 198.773 211.111 199.776V200.704C211.111 201.515 211.271 202.229 211.591 202.848C211.932 203.445 212.391 203.915 212.967 204.256C213.564 204.576 214.247 204.736 215.015 204.736C215.761 204.736 216.391 204.576 216.903 204.256C217.415 203.915 217.809 203.477 218.087 202.944H222.663C222.364 203.968 221.852 204.896 221.127 205.728C220.423 206.539 219.548 207.189 218.503 207.68C217.479 208.149 216.327 208.384 215.047 208.384ZM231.611 208.384C230.139 208.384 228.806 208.021 227.611 207.296C226.438 206.571 225.51 205.579 224.827 204.32C224.144 203.04 223.803 201.611 223.803 200.032C223.803 198.432 224.144 197.013 224.827 195.776C225.51 194.517 226.438 193.536 227.611 192.832C228.806 192.107 230.139 191.744 231.611 191.744C232.784 191.744 233.798 191.957 234.651 192.384C235.526 192.811 236.23 193.408 236.763 194.176V184.96H241.243V208H236.763V205.824C236.272 206.507 235.611 207.104 234.779 207.616C233.968 208.128 232.912 208.384 231.611 208.384ZM232.635 204.48C233.467 204.48 234.203 204.288 234.843 203.904C235.483 203.52 235.984 202.997 236.347 202.336C236.71 201.653 236.891 200.896 236.891 200.064C236.891 199.211 236.71 198.453 236.347 197.792C235.984 197.131 235.483 196.608 234.843 196.224C234.203 195.84 233.467 195.648 232.635 195.648C231.824 195.648 231.088 195.84 230.427 196.224C229.787 196.608 229.286 197.131 228.923 197.792C228.56 198.432 228.379 199.179 228.379 200.032C228.379 200.885 228.56 201.653 228.923 202.336C229.286 202.997 229.787 203.52 230.427 203.904C231.088 204.288 231.824 204.48 232.635 204.48Z" fill="url(#paint3_linear_795_22328)"/>
</g>
<defs>
<linearGradient id="paint0_linear_795_22328" x1="236.651" y1="294.501" x2="236.651" y2="113.383" gradientUnits="userSpaceOnUse">
<stop stop-color="#D0DBEF"/>
<stop offset="0.37" stop-color="#D6E0F2"/>
<stop offset="0.89" stop-color="#E9F0FC"/>
<stop offset="1" stop-color="#EEF4FF"/>
</linearGradient>
<linearGradient id="paint1_linear_795_22328" x1="277.314" y1="171.406" x2="165.44" y2="171.406" gradientUnits="userSpaceOnUse">
<stop stop-color="#D0DBEF"/>
<stop offset="0.37" stop-color="#D6E0F2"/>
<stop offset="0.89" stop-color="#E9F0FC"/>
<stop offset="1" stop-color="#EEF4FF"/>
</linearGradient>
<linearGradient id="paint2_linear_795_22328" x1="79.5" y1="73.0978" x2="234.631" y2="87.6796" gradientUnits="userSpaceOnUse">
<stop offset="0.54933" stop-color="#1A3038"/>
<stop offset="1" stop-color="#003DA6"/>
</linearGradient>
<linearGradient id="paint3_linear_795_22328" x1="65" y1="177.049" x2="242.984" y2="217.021" gradientUnits="userSpaceOnUse">
<stop offset="0.54933" stop-color="#1A3038"/>
<stop offset="1" stop-color="#003DA6"/>
</linearGradient>
<clipPath id="clip0_795_22328">
<path d="M0 16C0 7.16345 7.16344 0 16 0H292C300.837 0 308 7.16344 308 16V270C308 278.837 300.837 286 292 286H16C7.16345 286 0 278.837 0 270V16Z" fill="white"/>
</clipPath>
<clipPath id="clip1_795_22328">
<rect width="209.42" height="212" fill="white" transform="matrix(-1 0 0 1 357.422 73.7734)"/>
</clipPath>
</defs>
</svg>
