<svg width="308" height="286" viewBox="0 0 308 286" fill="none" xmlns="http://www.w3.org/2000/svg">
<g clip-path="url(#clip0_795_22364)">
<path d="M0 16C0 7.16345 7.16344 0 16 0H292C300.837 0 308 7.16344 308 16V270C308 278.837 300.837 286 292 286H16C7.16345 286 0 278.837 0 270V16Z" fill="#F6F8FB"/>
<g filter="url(#filter0_f_795_22364)">
<path d="M103.05 295.919C103.05 295.919 87.3977 281.027 82.2406 260.972C80.3326 253.552 80.0152 243.426 85.7727 236.892C89.0226 233.203 94.0149 230.673 99.3712 229.536C113.349 226.569 116.661 214.675 114.464 203.816C112.627 194.735 107.762 186.165 106.549 177.014C103.562 154.509 123.662 138.406 145.476 128.032C167.924 117.356 194.722 112.807 220.425 115.843C220.682 115.874 220.939 115.905 221.196 115.936C250.038 119.416 279.23 143.582 269.919 169.073C267.99 174.353 266.994 180.869 273.44 184.424C276.094 185.887 279.248 186.573 282.316 187.304C327.563 198.088 350.533 237.745 330.999 273.09C326.064 282.018 318.7 289.983 309.182 295.92H103.05V295.919Z" fill="url(#paint0_linear_795_22364)"/>
</g>
<path d="M192.399 147V121.8H203.091C205.131 121.8 206.811 122.148 208.131 122.844C209.475 123.516 210.471 124.452 211.119 125.652C211.791 126.828 212.127 128.16 212.127 129.648C212.127 130.8 211.875 131.868 211.371 132.852C210.867 133.812 210.195 134.64 209.355 135.336C210.267 135.96 210.963 136.764 211.443 137.748C211.947 138.732 212.223 139.86 212.271 141.132L212.559 147H207.627L207.231 141.132C207.183 140.292 207.015 139.608 206.727 139.08C206.463 138.528 206.043 138.12 205.467 137.856C204.891 137.592 204.111 137.46 203.127 137.46H197.439V147H192.399ZM197.439 133.392H202.767C204.255 133.392 205.335 133.056 206.007 132.384C206.679 131.712 207.015 130.8 207.015 129.648C207.015 128.472 206.679 127.56 206.007 126.912C205.335 126.24 204.255 125.904 202.767 125.904H197.439V133.392ZM222.639 147.432C220.791 147.432 219.159 147.048 217.743 146.28C216.327 145.488 215.223 144.408 214.431 143.04C213.639 141.648 213.243 140.052 213.243 138.252C213.243 136.404 213.627 134.76 214.395 133.32C215.187 131.88 216.291 130.752 217.707 129.936C219.123 129.12 220.767 128.712 222.639 128.712C224.415 128.712 225.987 129.096 227.355 129.864C228.723 130.632 229.791 131.688 230.559 133.032C231.327 134.352 231.711 135.864 231.711 137.568C231.711 137.808 231.711 138.084 231.711 138.396C231.711 138.684 231.687 138.984 231.639 139.296H216.843V136.272H226.599C226.527 135.216 226.119 134.376 225.375 133.752C224.655 133.104 223.755 132.78 222.675 132.78C221.859 132.78 221.103 132.96 220.407 133.32C219.735 133.68 219.195 134.232 218.787 134.976C218.403 135.696 218.211 136.62 218.211 137.748V138.792C218.211 139.704 218.391 140.508 218.751 141.204C219.135 141.876 219.651 142.404 220.299 142.788C220.971 143.148 221.739 143.328 222.603 143.328C223.443 143.328 224.151 143.148 224.727 142.788C225.303 142.404 225.747 141.912 226.059 141.312H231.207C230.871 142.464 230.295 143.508 229.479 144.444C228.687 145.356 227.703 146.088 226.527 146.64C225.375 147.168 224.079 147.432 222.639 147.432ZM240.276 147C239.028 147 237.972 146.856 237.108 146.568C236.268 146.28 235.632 145.728 235.2 144.912C234.768 144.072 234.552 142.872 234.552 141.312V133.356H231.492V129.144H234.552V124.248H239.592V129.144H243.984V133.356H239.592V140.7C239.592 141.252 239.652 141.672 239.772 141.96C239.892 142.248 240.108 142.452 240.42 142.572C240.756 142.668 241.2 142.716 241.752 142.716H243.876V147H240.276ZM250.457 147.432C249.137 147.432 247.997 147.192 247.037 146.712C246.077 146.232 245.333 145.584 244.805 144.768C244.301 143.952 244.049 143.052 244.049 142.068C244.049 140.22 244.709 138.792 246.029 137.784C247.373 136.752 249.125 136.236 251.285 136.236C252.317 136.236 253.193 136.308 253.913 136.452C254.657 136.596 255.257 136.74 255.713 136.884V136.02C255.713 134.844 255.365 133.992 254.669 133.464C253.997 132.936 253.133 132.672 252.077 132.672C251.357 132.672 250.709 132.816 250.133 133.104C249.557 133.392 249.185 133.92 249.017 134.688H244.301C244.445 133.416 244.865 132.336 245.561 131.448C246.281 130.56 247.205 129.888 248.333 129.432C249.461 128.952 250.709 128.712 252.077 128.712C254.765 128.712 256.877 129.348 258.413 130.62C259.973 131.868 260.753 133.668 260.753 136.02V139.728C260.753 140.64 260.801 141.324 260.897 141.78C261.017 142.212 261.197 142.488 261.437 142.608C261.677 142.728 261.989 142.788 262.373 142.788H262.517V147H261.401C260.105 147 259.025 146.844 258.161 146.532C257.297 146.196 256.661 145.56 256.253 144.624C255.629 145.44 254.825 146.112 253.841 146.64C252.857 147.168 251.729 147.432 250.457 147.432ZM251.645 143.616C252.341 143.616 252.929 143.472 253.409 143.184C253.913 142.872 254.333 142.452 254.669 141.924C255.005 141.372 255.257 140.76 255.425 140.088C254.945 139.944 254.381 139.812 253.733 139.692C253.109 139.548 252.473 139.476 251.825 139.476C251.081 139.476 250.445 139.668 249.917 140.052C249.389 140.412 249.125 140.94 249.125 141.636C249.125 142.212 249.353 142.692 249.809 143.076C250.265 143.436 250.877 143.616 251.645 143.616ZM263.478 147V129.144H268.518V147H263.478ZM263.694 126.3V121.62H268.374V126.3H263.694ZM270.387 147V121.08H275.427V147H270.387ZM94.441 195V173.868H87.097V169.8H106.789V173.868H99.481V195H94.441ZM112.97 195.432C111.17 195.432 109.538 195.036 108.074 194.244C106.634 193.452 105.482 192.348 104.618 190.932C103.778 189.516 103.358 187.896 103.358 186.072C103.358 184.224 103.778 182.604 104.618 181.212C105.482 179.796 106.646 178.692 108.11 177.9C109.574 177.108 111.194 176.712 112.97 176.712C114.77 176.712 116.39 177.108 117.83 177.9C119.294 178.692 120.446 179.796 121.286 181.212C122.15 182.604 122.582 184.224 122.582 186.072C122.582 187.896 122.15 189.516 121.286 190.932C120.446 192.348 119.294 193.452 117.83 194.244C116.39 195.036 114.77 195.432 112.97 195.432ZM112.97 191.076C113.786 191.076 114.53 190.896 115.202 190.536C115.874 190.152 116.402 189.588 116.786 188.844C117.194 188.1 117.398 187.176 117.398 186.072C117.398 184.968 117.194 184.044 116.786 183.3C116.378 182.556 115.838 182.004 115.166 181.644C114.518 181.26 113.798 181.068 113.006 181.068C112.19 181.068 111.446 181.26 110.774 181.644C110.102 182.004 109.562 182.556 109.154 183.3C108.746 184.02 108.542 184.944 108.542 186.072C108.542 187.176 108.734 188.1 109.118 188.844C109.526 189.588 110.066 190.152 110.738 190.536C111.41 190.896 112.154 191.076 112.97 191.076ZM130.185 195.432C128.121 195.432 126.501 194.724 125.325 193.308C124.149 191.868 123.561 189.804 123.561 187.116V177.144H128.565V186.648C128.565 188.112 128.841 189.24 129.393 190.032C129.945 190.8 130.773 191.184 131.877 191.184C133.077 191.184 134.001 190.764 134.649 189.924C135.321 189.06 135.657 187.872 135.657 186.36V177.144H140.697V195H135.657V192.444C135.129 193.356 134.409 194.088 133.497 194.64C132.609 195.168 131.505 195.432 130.185 195.432ZM151.392 195.432C149.544 195.432 147.912 195.036 146.496 194.244C145.08 193.428 143.964 192.324 143.148 190.932C142.356 189.516 141.96 187.896 141.96 186.072C141.96 184.248 142.356 182.64 143.148 181.248C143.964 179.832 145.08 178.728 146.496 177.936C147.912 177.12 149.544 176.712 151.392 176.712C153.696 176.712 155.64 177.324 157.224 178.548C158.808 179.748 159.828 181.416 160.284 183.552H154.956C154.74 182.784 154.308 182.172 153.66 181.716C153.012 181.26 152.244 181.032 151.356 181.032C150.564 181.032 149.844 181.236 149.196 181.644C148.548 182.052 148.032 182.628 147.648 183.372C147.288 184.116 147.108 185.016 147.108 186.072C147.108 187.104 147.288 188.004 147.648 188.772C148.032 189.54 148.548 190.128 149.196 190.536C149.844 190.944 150.564 191.148 151.356 191.148C152.244 191.148 153.012 190.932 153.66 190.5C154.308 190.044 154.74 189.408 154.956 188.592H160.284C159.852 190.656 158.832 192.312 157.224 193.56C155.64 194.808 153.696 195.432 151.392 195.432ZM161.574 195V169.08H166.614V179.772C167.19 178.836 167.982 178.092 168.99 177.54C170.022 176.988 171.198 176.712 172.518 176.712C174.75 176.712 176.466 177.432 177.666 178.872C178.866 180.288 179.466 182.34 179.466 185.028V195H174.462V185.496C174.462 184.032 174.174 182.916 173.598 182.148C173.022 181.356 172.098 180.96 170.826 180.96C169.602 180.96 168.594 181.392 167.802 182.256C167.01 183.096 166.614 184.272 166.614 185.784V195H161.574ZM181.422 202.92V177.144H186.462V179.592C187.038 178.824 187.782 178.152 188.694 177.576C189.63 177 190.83 176.712 192.294 176.712C193.95 176.712 195.438 177.12 196.758 177.936C198.078 178.752 199.122 179.868 199.89 181.284C200.658 182.7 201.042 184.308 201.042 186.108C201.042 187.884 200.658 189.48 199.89 190.896C199.122 192.312 198.078 193.428 196.758 194.244C195.438 195.036 193.95 195.432 192.294 195.432C190.974 195.432 189.822 195.192 188.838 194.712C187.878 194.232 187.086 193.56 186.462 192.696V202.92H181.422ZM191.106 191.04C192.042 191.04 192.87 190.824 193.59 190.392C194.334 189.96 194.91 189.372 195.318 188.628C195.726 187.884 195.93 187.044 195.93 186.108C195.93 185.148 195.726 184.296 195.318 183.552C194.91 182.784 194.334 182.184 193.59 181.752C192.87 181.32 192.042 181.104 191.106 181.104C190.17 181.104 189.342 181.32 188.622 181.752C187.902 182.184 187.338 182.772 186.93 183.516C186.522 184.26 186.318 185.112 186.318 186.072C186.318 187.032 186.522 187.884 186.93 188.628C187.338 189.372 187.902 189.96 188.622 190.392C189.342 190.824 190.17 191.04 191.106 191.04ZM211.359 195.432C209.559 195.432 207.927 195.036 206.463 194.244C205.023 193.452 203.871 192.348 203.007 190.932C202.167 189.516 201.747 187.896 201.747 186.072C201.747 184.224 202.167 182.604 203.007 181.212C203.871 179.796 205.035 178.692 206.499 177.9C207.963 177.108 209.583 176.712 211.359 176.712C213.159 176.712 214.779 177.108 216.219 177.9C217.683 178.692 218.835 179.796 219.675 181.212C220.539 182.604 220.971 184.224 220.971 186.072C220.971 187.896 220.539 189.516 219.675 190.932C218.835 192.348 217.683 193.452 216.219 194.244C214.779 195.036 213.159 195.432 211.359 195.432ZM211.359 191.076C212.175 191.076 212.919 190.896 213.591 190.536C214.263 190.152 214.791 189.588 215.175 188.844C215.583 188.1 215.787 187.176 215.787 186.072C215.787 184.968 215.583 184.044 215.175 183.3C214.767 182.556 214.227 182.004 213.555 181.644C212.907 181.26 212.187 181.068 211.395 181.068C210.579 181.068 209.835 181.26 209.163 181.644C208.491 182.004 207.951 182.556 207.543 183.3C207.135 184.02 206.931 184.944 206.931 186.072C206.931 187.176 207.123 188.1 207.507 188.844C207.915 189.588 208.455 190.152 209.127 190.536C209.799 190.896 210.543 191.076 211.359 191.076ZM222.309 195V177.144H227.349V195H222.309ZM222.525 174.3V169.62H227.205V174.3H222.525ZM229.218 195V177.144H234.258V179.772C234.834 178.836 235.614 178.092 236.598 177.54C237.606 176.988 238.782 176.712 240.126 176.712C242.382 176.712 244.11 177.432 245.31 178.872C246.51 180.288 247.11 182.34 247.11 185.028V195H242.07V185.496C242.07 184.032 241.77 182.916 241.17 182.148C240.594 181.356 239.67 180.96 238.398 180.96C237.198 180.96 236.202 181.392 235.41 182.256C234.642 183.096 234.258 184.272 234.258 185.784V195H229.218ZM256.062 195C254.814 195 253.758 194.856 252.894 194.568C252.054 194.28 251.418 193.728 250.986 192.912C250.554 192.072 250.338 190.872 250.338 189.312V181.356H247.278V177.144H250.338V172.248H255.378V177.144H259.77V181.356H255.378V188.7C255.378 189.252 255.438 189.672 255.558 189.96C255.678 190.248 255.894 190.452 256.206 190.572C256.542 190.668 256.986 190.716 257.538 190.716H259.662V195H256.062ZM267.824 195.432C265.424 195.432 263.456 194.868 261.92 193.74C260.384 192.612 259.52 191.136 259.328 189.312H264.476C264.644 190.008 265.052 190.572 265.7 191.004C266.348 191.412 267.116 191.616 268.004 191.616C268.988 191.616 269.732 191.448 270.236 191.112C270.764 190.752 271.028 190.32 271.028 189.816C271.028 189.408 270.836 189.084 270.452 188.844C270.068 188.58 269.408 188.4 268.472 188.304C268.136 188.256 267.668 188.184 267.068 188.088C266.492 187.992 266.024 187.908 265.664 187.836C264.656 187.644 263.732 187.332 262.892 186.9C262.076 186.444 261.428 185.856 260.948 185.136C260.468 184.392 260.228 183.492 260.228 182.436C260.228 180.828 260.828 179.472 262.028 178.368C263.228 177.264 264.992 176.712 267.32 176.712C269.672 176.712 271.52 177.228 272.864 178.26C274.232 179.292 275 180.72 275.168 182.544H270.308C270.236 181.896 269.912 181.404 269.336 181.068C268.76 180.732 268.1 180.564 267.356 180.564C266.444 180.564 265.76 180.72 265.304 181.032C264.848 181.344 264.62 181.728 264.62 182.184C264.62 182.928 265.364 183.432 266.852 183.696C267.068 183.72 267.368 183.768 267.752 183.84C268.16 183.888 268.568 183.948 268.976 184.02C269.408 184.068 269.744 184.116 269.984 184.164C270.704 184.26 271.4 184.428 272.072 184.668C272.768 184.884 273.38 185.184 273.908 185.568C274.46 185.952 274.892 186.456 275.204 187.08C275.516 187.704 275.672 188.472 275.672 189.384C275.672 190.584 275.372 191.64 274.772 192.552C274.172 193.464 273.284 194.172 272.108 194.676C270.956 195.18 269.528 195.432 267.824 195.432ZM162.963 243.432C160.203 243.432 157.851 242.904 155.907 241.848C153.963 240.768 152.475 239.268 151.443 237.348C150.435 235.404 149.931 233.148 149.931 230.58C149.931 227.988 150.435 225.696 151.443 223.704C152.475 221.712 153.939 220.164 155.835 219.06C157.731 217.932 159.987 217.368 162.603 217.368C165.603 217.368 168.075 218.088 170.019 219.528C171.987 220.944 173.259 222.912 173.835 225.432H168.219C167.835 224.352 167.175 223.512 166.239 222.912C165.303 222.312 164.091 222.012 162.603 222.012C160.995 222.012 159.627 222.36 158.499 223.056C157.371 223.752 156.507 224.748 155.907 226.044C155.331 227.316 155.043 228.84 155.043 230.616C155.043 232.368 155.343 233.868 155.943 235.116C156.567 236.364 157.467 237.324 158.643 237.996C159.819 238.644 161.271 238.968 162.999 238.968C164.991 238.968 166.563 238.428 167.715 237.348C168.867 236.244 169.443 234.72 169.443 232.776H162.603V229.032H174.555V231.228C174.555 233.916 174.051 236.172 173.043 237.996C172.035 239.796 170.655 241.152 168.903 242.064C167.175 242.976 165.195 243.432 162.963 243.432ZM175.901 243V217.08H180.941V243H175.901ZM191.882 243.432C190.082 243.432 188.45 243.036 186.986 242.244C185.546 241.452 184.394 240.348 183.53 238.932C182.69 237.516 182.27 235.896 182.27 234.072C182.27 232.224 182.69 230.604 183.53 229.212C184.394 227.796 185.558 226.692 187.022 225.9C188.486 225.108 190.106 224.712 191.882 224.712C193.682 224.712 195.302 225.108 196.742 225.9C198.206 226.692 199.358 227.796 200.198 229.212C201.062 230.604 201.494 232.224 201.494 234.072C201.494 235.896 201.062 237.516 200.198 238.932C199.358 240.348 198.206 241.452 196.742 242.244C195.302 243.036 193.682 243.432 191.882 243.432ZM191.882 239.076C192.698 239.076 193.442 238.896 194.114 238.536C194.786 238.152 195.314 237.588 195.698 236.844C196.106 236.1 196.31 235.176 196.31 234.072C196.31 232.968 196.106 232.044 195.698 231.3C195.29 230.556 194.75 230.004 194.078 229.644C193.43 229.26 192.71 229.068 191.918 229.068C191.102 229.068 190.358 229.26 189.686 229.644C189.014 230.004 188.474 230.556 188.066 231.3C187.658 232.02 187.454 232.944 187.454 234.072C187.454 235.176 187.646 236.1 188.03 236.844C188.438 237.588 188.978 238.152 189.65 238.536C190.322 238.896 191.066 239.076 191.882 239.076ZM213.776 243.432C212.456 243.432 211.304 243.192 210.32 242.712C209.36 242.232 208.568 241.56 207.944 240.696V243H202.904V217.08H207.944V227.592C208.52 226.824 209.264 226.152 210.176 225.576C211.112 225 212.312 224.712 213.776 224.712C215.432 224.712 216.92 225.12 218.24 225.936C219.56 226.752 220.604 227.868 221.372 229.284C222.14 230.7 222.524 232.308 222.524 234.108C222.524 235.884 222.14 237.48 221.372 238.896C220.604 240.312 219.56 241.428 218.24 242.244C216.92 243.036 215.432 243.432 213.776 243.432ZM212.588 239.04C213.524 239.04 214.352 238.824 215.072 238.392C215.816 237.96 216.392 237.372 216.8 236.628C217.208 235.884 217.412 235.044 217.412 234.108C217.412 233.148 217.208 232.296 216.8 231.552C216.392 230.784 215.816 230.184 215.072 229.752C214.352 229.32 213.524 229.104 212.588 229.104C211.652 229.104 210.824 229.32 210.104 229.752C209.384 230.184 208.82 230.772 208.412 231.516C208.004 232.26 207.8 233.112 207.8 234.072C207.8 235.032 208.004 235.884 208.412 236.628C208.82 237.372 209.384 237.96 210.104 238.392C210.824 238.824 211.652 239.04 212.588 239.04ZM229.645 243.432C228.325 243.432 227.185 243.192 226.225 242.712C225.265 242.232 224.521 241.584 223.993 240.768C223.489 239.952 223.237 239.052 223.237 238.068C223.237 236.22 223.897 234.792 225.217 233.784C226.561 232.752 228.313 232.236 230.473 232.236C231.505 232.236 232.381 232.308 233.101 232.452C233.845 232.596 234.445 232.74 234.901 232.884V232.02C234.901 230.844 234.553 229.992 233.857 229.464C233.185 228.936 232.321 228.672 231.265 228.672C230.545 228.672 229.897 228.816 229.321 229.104C228.745 229.392 228.373 229.92 228.205 230.688H223.489C223.633 229.416 224.053 228.336 224.749 227.448C225.469 226.56 226.393 225.888 227.521 225.432C228.649 224.952 229.897 224.712 231.265 224.712C233.953 224.712 236.065 225.348 237.601 226.62C239.161 227.868 239.941 229.668 239.941 232.02V235.728C239.941 236.64 239.989 237.324 240.085 237.78C240.205 238.212 240.385 238.488 240.625 238.608C240.865 238.728 241.177 238.788 241.561 238.788H241.705V243H240.589C239.293 243 238.213 242.844 237.349 242.532C236.485 242.196 235.849 241.56 235.441 240.624C234.817 241.44 234.013 242.112 233.029 242.64C232.045 243.168 230.917 243.432 229.645 243.432ZM230.833 239.616C231.529 239.616 232.117 239.472 232.597 239.184C233.101 238.872 233.521 238.452 233.857 237.924C234.193 237.372 234.445 236.76 234.613 236.088C234.133 235.944 233.569 235.812 232.921 235.692C232.297 235.548 231.661 235.476 231.013 235.476C230.269 235.476 229.633 235.668 229.105 236.052C228.577 236.412 228.313 236.94 228.313 237.636C228.313 238.212 228.541 238.692 228.997 239.076C229.453 239.436 230.065 239.616 230.833 239.616ZM242.666 243V217.08H247.706V243H242.666ZM249.575 243V217.08H254.615V243H249.575ZM255.774 250.92V246.96H259.662C260.022 246.96 260.322 246.912 260.562 246.816C260.802 246.744 261.03 246.576 261.246 246.312C261.462 246.048 261.69 245.628 261.93 245.052L263.334 241.956L263.118 244.116L255.342 225.144H260.814L265.566 237.312L270.498 225.144H275.898L266.43 246.852C266.046 247.716 265.71 248.412 265.422 248.94C265.134 249.492 264.834 249.9 264.522 250.164C264.234 250.452 263.886 250.644 263.478 250.74C263.07 250.86 262.554 250.92 261.93 250.92H255.774Z" fill="white"/>
<path d="M104.112 80.7557V51.6846H92.8524V45.196L101.44 44.5599C102.246 44.4751 102.882 44.2206 103.349 43.7965C103.857 43.3724 104.112 42.7575 104.112 41.9518V39.4708H113.018V80.7557H104.112ZM91.2621 84V76.7481H125.613V84H91.2621ZM130.027 84V73.8219H140.969V84H130.027ZM163.973 84.7634C160.369 84.7634 157.273 84.1908 154.686 83.0458C152.099 81.8584 150.084 80.268 148.643 78.2748C147.243 76.2392 146.437 73.9279 146.225 71.341H154.877C155.258 73.0373 156.255 74.4368 157.866 75.5395C159.52 76.6421 161.408 77.1934 163.528 77.1934C165.352 77.1934 166.921 76.8329 168.235 76.112C169.592 75.391 170.631 74.3944 171.352 73.1222C172.073 71.8075 172.434 70.3232 172.434 68.6692C172.434 66.2944 171.628 64.3648 170.017 62.8805C168.447 61.3537 166.285 60.5904 163.528 60.5904C161.704 60.5904 160.008 60.9721 158.439 61.7354C156.87 62.4988 155.746 63.4954 155.067 64.7252H146.989L150.869 39.4708H177.841V47.2953H157.485L154.94 60.0815L154.177 57.6006C155.152 56.4979 156.531 55.5225 158.312 54.6744C160.093 53.8262 162.404 53.4021 165.246 53.4021C168.681 53.4021 171.564 54.1231 173.897 55.565C176.272 57.0069 178.053 58.894 179.24 61.2265C180.47 63.5166 181.085 65.9763 181.085 68.6056C181.085 71.7439 180.343 74.5429 178.859 77.0026C177.417 79.4199 175.402 81.3283 172.816 82.7277C170.271 84.0848 167.324 84.7634 163.973 84.7634ZM186.962 84V39.4708H197.649L213.107 76.7481L209.354 77.257L224.749 39.4708H235.372V84H226.466V46.3411L229.456 48.5675L214.761 84H207.637L192.879 48.5675L195.868 46.3411V84H186.962ZM253.404 76.6209V46.85H260.911V76.6209H253.404ZM242.717 65.425V58.0459H271.598V65.425H242.717Z" fill="url(#paint1_linear_795_22364)"/>
</g>
<defs>
<filter id="filter0_f_795_22364" x="-19" y="14.9199" width="457" height="381" filterUnits="userSpaceOnUse" color-interpolation-filters="sRGB">
<feFlood flood-opacity="0" result="BackgroundImageFix"/>
<feBlend mode="normal" in="SourceGraphic" in2="BackgroundImageFix" result="shape"/>
<feGaussianBlur stdDeviation="50" result="effect1_foregroundBlur_795_22364"/>
</filter>
<linearGradient id="paint0_linear_795_22364" x1="128.104" y1="135.456" x2="256.334" y2="311.517" gradientUnits="userSpaceOnUse">
<stop stop-color="#DD315F" stop-opacity="0.5"/>
<stop offset="1" stop-color="#771A33"/>
</linearGradient>
<linearGradient id="paint1_linear_795_22364" x1="87" y1="34.2855" x2="278.369" y2="81.0099" gradientUnits="userSpaceOnUse">
<stop stop-color="#FF7AA0"/>
<stop offset="1" stop-color="#85263F"/>
</linearGradient>
<clipPath id="clip0_795_22364">
<path d="M0 16C0 7.16345 7.16344 0 16 0H292C300.837 0 308 7.16344 308 16V270C308 278.837 300.837 286 292 286H16C7.16345 286 0 278.837 0 270V16Z" fill="white"/>
</clipPath>
</defs>
</svg>
