<svg width="308" height="135" viewBox="0 0 308 135" fill="none" xmlns="http://www.w3.org/2000/svg">
<path d="M0 16C0 7.16345 7.16344 0 16 0H292C300.837 0 308 7.16344 308 16V119C308 127.837 300.837 135 292 135H16C7.16345 135 0 127.837 0 119V16Z" fill="#F6F8FB"/>
<path d="M35.3929 68.84V49.4847H27.8965V45.1647L33.6141 44.7412C34.1506 44.6847 34.5741 44.5153 34.8847 44.2329C35.2235 43.9506 35.3929 43.5412 35.3929 43.0047V41.3529H41.3224V68.84H35.3929ZM26.8376 71V66.1718H49.7082V71H26.8376ZM63.9977 71.5082C61.7954 71.5082 59.9318 71.0988 58.4071 70.28C56.8824 69.4612 55.6965 68.3882 54.8495 67.0612C54.0307 65.7341 53.5365 64.3224 53.3671 62.8259H58.873C59.1554 64.04 59.7342 64.9859 60.6095 65.6635C61.513 66.3129 62.6565 66.6376 64.0401 66.6376C66.3271 66.6376 68.0636 65.5929 69.2495 63.5035C70.4354 61.3859 70.9012 58.1953 70.6471 53.9318L71.1977 56.0918C70.7742 56.9106 70.153 57.6588 69.3342 58.3365C68.5436 59.0141 67.6118 59.5506 66.5389 59.9459C65.466 60.3412 64.2801 60.5388 62.9812 60.5388C61.1742 60.5388 59.4942 60.1435 57.9412 59.3529C56.3883 58.5624 55.1318 57.4471 54.1718 56.0071C53.2118 54.5671 52.7318 52.8588 52.7318 50.8824C52.7318 49.0753 53.1977 47.4094 54.1295 45.8847C55.0612 44.36 56.3601 43.1459 58.026 42.2424C59.6918 41.3106 61.6118 40.8447 63.786 40.8447C66.1577 40.8447 68.1483 41.2682 69.7577 42.1153C71.3954 42.9341 72.7083 44.0353 73.6965 45.4188C74.6848 46.8024 75.3907 48.3553 75.8142 50.0776C76.266 51.7718 76.4918 53.4941 76.4918 55.2447C76.4918 58.5482 75.9977 61.4282 75.0095 63.8847C74.0212 66.3129 72.5954 68.1906 70.7318 69.5176C68.8683 70.8447 66.6236 71.5082 63.9977 71.5082ZM64.1671 55.5412C65.4095 55.5412 66.4683 55.3576 67.3436 54.9906C68.2189 54.5953 68.8824 54.0447 69.3342 53.3388C69.8142 52.6329 70.0542 51.7859 70.0542 50.7976C70.0542 49.7812 69.8142 48.9059 69.3342 48.1718C68.8542 47.4376 68.1624 46.8871 67.2589 46.52C66.3836 46.1247 65.3248 45.9271 64.0824 45.9271C62.8965 45.9271 61.8801 46.1247 61.033 46.52C60.186 46.8871 59.5365 47.4235 59.0848 48.1294C58.633 48.8353 58.4071 49.6965 58.4071 50.7129C58.4071 51.7294 58.633 52.6047 59.0848 53.3388C59.5648 54.0447 60.2283 54.5953 61.0754 54.9906C61.9507 55.3576 62.9812 55.5412 64.1671 55.5412ZM79.3884 71V41.3529H86.5037L96.7954 66.1718L94.2966 66.5106L104.546 41.3529H111.619V71H105.69V45.9271L107.68 47.4094L97.8966 71H93.1531L83.3272 47.4094L85.3178 45.9271V71H79.3884ZM122.778 66.0871V46.2659H127.775V66.0871H122.778ZM115.662 58.6329V53.72H134.891V58.6329H115.662Z" fill="url(#paint0_linear_795_22400)"/>
<path d="M32.856 107.288C31.16 107.288 29.696 106.928 28.464 106.208C27.248 105.472 26.312 104.456 25.656 103.16C25 101.848 24.672 100.336 24.672 98.624C24.672 96.912 25 95.4 25.656 94.088C26.312 92.776 27.248 91.752 28.464 91.016C29.696 90.28 31.16 89.912 32.856 89.912C34.904 89.912 36.584 90.424 37.896 91.448C39.208 92.472 40.016 93.912 40.32 95.768H36.624C36.432 94.872 36.008 94.184 35.352 93.704C34.712 93.208 33.864 92.96 32.808 92.96C31.816 92.96 30.968 93.192 30.264 93.656C29.56 94.104 29.016 94.752 28.632 95.6C28.264 96.448 28.08 97.456 28.08 98.624C28.08 99.792 28.264 100.8 28.632 101.648C29.016 102.48 29.56 103.128 30.264 103.592C30.968 104.04 31.816 104.264 32.808 104.264C33.864 104.264 34.712 104.04 35.352 103.592C35.992 103.128 36.408 102.472 36.6 101.624H40.296C39.992 103.4 39.184 104.792 37.872 105.8C36.576 106.792 34.904 107.288 32.856 107.288ZM52.1539 107V90.2H55.5139V107H52.1539ZM41.5699 107V90.2H44.9299V107H41.5699ZM44.4979 99.776V97.064H52.7059V99.776H44.4979ZM57.2852 107V90.2H60.6452V107H57.2852ZM62.4302 107V90.2H65.7902V96.752L71.7902 90.2H75.9182L69.7502 96.848L76.1102 107H72.0062L67.3502 99.44L65.7902 101.12V107H62.4302ZM90.2347 107.288C89.4667 107.288 88.6987 107.184 87.9307 106.976C87.1627 106.752 86.4507 106.408 85.7947 105.944C85.1547 105.464 84.6187 104.848 84.1867 104.096C83.7547 103.328 83.4907 102.408 83.3947 101.336H86.4667C86.6107 102.152 86.8827 102.784 87.2827 103.232C87.6987 103.664 88.1787 103.968 88.7227 104.144C89.2667 104.32 89.7947 104.408 90.3067 104.408C90.8987 104.408 91.4187 104.312 91.8667 104.12C92.3307 103.928 92.6907 103.664 92.9467 103.328C93.2187 102.992 93.3547 102.616 93.3547 102.2C93.3547 101.736 93.2267 101.32 92.9707 100.952C92.7147 100.584 92.1467 100.32 91.2667 100.16L88.5547 99.656C87.1307 99.384 86.0267 98.824 85.2427 97.976C84.4587 97.112 84.0667 96.096 84.0667 94.928C84.0667 93.872 84.3307 92.976 84.8587 92.24C85.3867 91.488 86.0987 90.912 86.9947 90.512C87.8907 90.112 88.8827 89.912 89.9707 89.912C91.1067 89.912 92.1227 90.104 93.0187 90.488C93.9307 90.872 94.6667 91.472 95.2267 92.288C95.8027 93.088 96.1467 94.128 96.2587 95.408H93.1387C93.0267 94.688 92.8107 94.144 92.4907 93.776C92.1707 93.392 91.7947 93.128 91.3627 92.984C90.9307 92.84 90.4987 92.768 90.0667 92.768C89.6667 92.768 89.2347 92.832 88.7707 92.96C88.3227 93.088 87.9387 93.304 87.6187 93.608C87.3147 93.912 87.1627 94.336 87.1627 94.88C87.1627 95.328 87.3227 95.728 87.6427 96.08C87.9787 96.432 88.5467 96.68 89.3467 96.824L91.8427 97.28C93.2667 97.536 94.3947 98.04 95.2267 98.792C96.0587 99.528 96.4747 100.632 96.4747 102.104C96.4747 102.936 96.2907 103.672 95.9227 104.312C95.5707 104.952 95.0907 105.496 94.4827 105.944C93.8907 106.376 93.2267 106.712 92.4907 106.952C91.7547 107.176 91.0027 107.288 90.2347 107.288ZM101.534 107.288C100.654 107.288 99.8944 107.128 99.2544 106.808C98.6144 106.488 98.1184 106.056 97.7664 105.512C97.4304 104.968 97.2624 104.368 97.2624 103.712C97.2624 102.48 97.7024 101.528 98.5824 100.856C99.4784 100.168 100.646 99.824 102.086 99.824C102.774 99.824 103.358 99.872 103.838 99.968C104.334 100.064 104.734 100.16 105.038 100.256V99.68C105.038 98.896 104.806 98.328 104.342 97.976C103.894 97.624 103.318 97.448 102.614 97.448C102.134 97.448 101.702 97.544 101.318 97.736C100.934 97.928 100.686 98.28 100.574 98.792H97.4304C97.5264 97.944 97.8064 97.224 98.2704 96.632C98.7504 96.04 99.3664 95.592 100.118 95.288C100.87 94.968 101.702 94.808 102.614 94.808C104.406 94.808 105.814 95.232 106.838 96.08C107.878 96.912 108.398 98.112 108.398 99.68V102.152C108.398 102.76 108.43 103.216 108.494 103.52C108.574 103.808 108.694 103.992 108.854 104.072C109.014 104.152 109.222 104.192 109.478 104.192H109.574V107H108.83C107.966 107 107.246 106.896 106.67 106.688C106.094 106.464 105.67 106.04 105.398 105.416C104.982 105.96 104.446 106.408 103.79 106.76C103.134 107.112 102.382 107.288 101.534 107.288ZM102.326 104.744C102.79 104.744 103.182 104.648 103.502 104.456C103.838 104.248 104.118 103.968 104.342 103.616C104.566 103.248 104.734 102.84 104.846 102.392C104.526 102.296 104.15 102.208 103.718 102.128C103.302 102.032 102.878 101.984 102.446 101.984C101.95 101.984 101.526 102.112 101.174 102.368C100.822 102.608 100.646 102.96 100.646 103.424C100.646 103.808 100.798 104.128 101.102 104.384C101.406 104.624 101.814 104.744 102.326 104.744ZM115.978 107.288C114.746 107.288 113.658 107.024 112.714 106.496C111.77 105.952 111.026 105.216 110.482 104.288C109.954 103.344 109.69 102.264 109.69 101.048C109.69 99.832 109.954 98.76 110.482 97.832C111.026 96.888 111.77 96.152 112.714 95.624C113.658 95.08 114.746 94.808 115.978 94.808C117.514 94.808 118.81 95.216 119.866 96.032C120.922 96.832 121.602 97.944 121.906 99.368H118.354C118.21 98.856 117.922 98.448 117.49 98.144C117.058 97.84 116.546 97.688 115.954 97.688C115.426 97.688 114.946 97.824 114.514 98.096C114.082 98.368 113.738 98.752 113.482 99.248C113.242 99.744 113.122 100.344 113.122 101.048C113.122 101.736 113.242 102.336 113.482 102.848C113.738 103.36 114.082 103.752 114.514 104.024C114.946 104.296 115.426 104.432 115.954 104.432C116.546 104.432 117.058 104.288 117.49 104C117.922 103.696 118.21 103.272 118.354 102.728H121.906C121.618 104.104 120.938 105.208 119.866 106.04C118.81 106.872 117.514 107.288 115.978 107.288ZM122.766 107V89.72H126.126V96.848C126.51 96.224 127.038 95.728 127.71 95.36C128.398 94.992 129.182 94.808 130.062 94.808C131.55 94.808 132.694 95.288 133.494 96.248C134.294 97.192 134.694 98.56 134.694 100.352V107H131.358V100.664C131.358 99.688 131.166 98.944 130.782 98.432C130.398 97.904 129.782 97.64 128.934 97.64C128.118 97.64 127.446 97.928 126.918 98.504C126.39 99.064 126.126 99.848 126.126 100.856V107H122.766ZM141.854 107.288C140.622 107.288 139.534 107.032 138.59 106.52C137.646 105.992 136.91 105.272 136.382 104.36C135.854 103.432 135.59 102.368 135.59 101.168C135.59 99.936 135.846 98.84 136.358 97.88C136.886 96.92 137.622 96.168 138.566 95.624C139.51 95.08 140.606 94.808 141.854 94.808C143.038 94.808 144.086 95.064 144.998 95.576C145.91 96.088 146.622 96.792 147.134 97.688C147.646 98.568 147.902 99.576 147.902 100.712C147.902 100.872 147.902 101.056 147.902 101.264C147.902 101.456 147.886 101.656 147.854 101.864H137.99V99.848H144.494C144.446 99.144 144.174 98.584 143.678 98.168C143.198 97.736 142.598 97.52 141.878 97.52C141.334 97.52 140.83 97.64 140.366 97.88C139.918 98.12 139.558 98.488 139.286 98.984C139.03 99.464 138.902 100.08 138.902 100.832V101.528C138.902 102.136 139.022 102.672 139.262 103.136C139.518 103.584 139.862 103.936 140.294 104.192C140.742 104.432 141.254 104.552 141.83 104.552C142.39 104.552 142.862 104.432 143.246 104.192C143.63 103.936 143.926 103.608 144.134 103.208H147.566C147.342 103.976 146.958 104.672 146.414 105.296C145.886 105.904 145.23 106.392 144.446 106.76C143.678 107.112 142.814 107.288 141.854 107.288ZM153.612 107C152.78 107 152.076 106.904 151.5 106.712C150.94 106.52 150.516 106.152 150.228 105.608C149.94 105.048 149.796 104.248 149.796 103.208V97.904H147.756V95.096H149.796V91.832H153.156V95.096H156.084V97.904H153.156V102.8C153.156 103.168 153.196 103.448 153.276 103.64C153.356 103.832 153.5 103.968 153.708 104.048C153.932 104.112 154.228 104.144 154.596 104.144H156.012V107H153.612ZM161.453 107.288C159.853 107.288 158.541 106.912 157.517 106.16C156.493 105.408 155.917 104.424 155.789 103.208H159.221C159.333 103.672 159.605 104.048 160.037 104.336C160.469 104.608 160.981 104.744 161.573 104.744C162.229 104.744 162.725 104.632 163.061 104.408C163.413 104.168 163.589 103.88 163.589 103.544C163.589 103.272 163.461 103.056 163.205 102.896C162.949 102.72 162.509 102.6 161.885 102.536C161.661 102.504 161.349 102.456 160.949 102.392C160.565 102.328 160.253 102.272 160.013 102.224C159.341 102.096 158.725 101.888 158.165 101.6C157.621 101.296 157.189 100.904 156.869 100.424C156.549 99.928 156.389 99.328 156.389 98.624C156.389 97.552 156.789 96.648 157.589 95.912C158.389 95.176 159.565 94.808 161.117 94.808C162.685 94.808 163.917 95.152 164.813 95.84C165.725 96.528 166.237 97.48 166.349 98.696H163.109C163.061 98.264 162.845 97.936 162.461 97.712C162.077 97.488 161.637 97.376 161.141 97.376C160.533 97.376 160.077 97.48 159.773 97.688C159.469 97.896 159.317 98.152 159.317 98.456C159.317 98.952 159.813 99.288 160.805 99.464C160.949 99.48 161.149 99.512 161.405 99.56C161.677 99.592 161.949 99.632 162.221 99.68C162.509 99.712 162.733 99.744 162.893 99.776C163.373 99.84 163.837 99.952 164.285 100.112C164.749 100.256 165.157 100.456 165.509 100.712C165.877 100.968 166.165 101.304 166.373 101.72C166.581 102.136 166.685 102.648 166.685 103.256C166.685 104.056 166.485 104.76 166.085 105.368C165.685 105.976 165.093 106.448 164.309 106.784C163.541 107.12 162.589 107.288 161.453 107.288ZM165.992 109.784L173.864 88.256H177.128L169.232 109.784H165.992ZM176.476 107V95.096H179.836V96.512C180.22 95.984 180.716 95.568 181.324 95.264C181.948 94.96 182.66 94.808 183.46 94.808C184.356 94.808 185.124 94.984 185.764 95.336C186.42 95.688 186.94 96.2 187.324 96.872C187.772 96.232 188.356 95.728 189.076 95.36C189.796 94.992 190.596 94.808 191.476 94.808C193.06 94.808 194.26 95.288 195.076 96.248C195.908 97.192 196.324 98.56 196.324 100.352V107H192.988V100.664C192.988 99.688 192.804 98.944 192.436 98.432C192.068 97.904 191.484 97.64 190.684 97.64C189.9 97.64 189.268 97.928 188.788 98.504C188.324 99.064 188.092 99.848 188.092 100.856V107H184.756V100.664C184.756 99.688 184.564 98.944 184.18 98.432C183.796 97.904 183.204 97.64 182.404 97.64C181.636 97.64 181.012 97.928 180.532 98.504C180.068 99.064 179.836 99.848 179.836 100.856V107H176.476ZM203.629 107.288C202.429 107.288 201.341 107.024 200.365 106.496C199.405 105.968 198.637 105.232 198.061 104.288C197.501 103.344 197.221 102.264 197.221 101.048C197.221 99.816 197.501 98.736 198.061 97.808C198.637 96.864 199.413 96.128 200.389 95.6C201.365 95.072 202.445 94.808 203.629 94.808C204.829 94.808 205.909 95.072 206.869 95.6C207.845 96.128 208.613 96.864 209.174 97.808C209.749 98.736 210.037 99.816 210.037 101.048C210.037 102.264 209.749 103.344 209.174 104.288C208.613 105.232 207.845 105.968 206.869 106.496C205.909 107.024 204.829 107.288 203.629 107.288ZM203.629 104.384C204.173 104.384 204.669 104.264 205.117 104.024C205.565 103.768 205.917 103.392 206.173 102.896C206.445 102.4 206.581 101.784 206.581 101.048C206.581 100.312 206.445 99.696 206.173 99.2C205.901 98.704 205.541 98.336 205.093 98.096C204.661 97.84 204.181 97.712 203.653 97.712C203.109 97.712 202.613 97.84 202.165 98.096C201.717 98.336 201.357 98.704 201.085 99.2C200.813 99.68 200.677 100.296 200.677 101.048C200.677 101.784 200.805 102.4 201.061 102.896C201.333 103.392 201.693 103.768 202.141 104.024C202.589 104.264 203.085 104.384 203.629 104.384Z" fill="url(#paint1_linear_795_22400)"/>
<defs>
<linearGradient id="paint0_linear_795_22400" x1="24" y1="29.3985" x2="142.362" y2="42.1669" gradientUnits="userSpaceOnUse">
<stop offset="0.54933" stop-color="#1A3038"/>
<stop offset="1" stop-color="#003DA6"/>
</linearGradient>
<linearGradient id="paint1_linear_795_22400" x1="24" y1="76.555" x2="275.689" y2="149.946" gradientUnits="userSpaceOnUse">
<stop offset="0.54933" stop-color="#1A3038"/>
<stop offset="1" stop-color="#003DA6"/>
</linearGradient>
</defs>
</svg>
