<svg width="308" height="437" viewBox="0 0 308 437" fill="none" xmlns="http://www.w3.org/2000/svg">
<g clip-path="url(#clip0_795_22371)">
<path d="M0 16C0 7.16345 7.16344 0 16 0H292C300.837 0 308 7.16344 308 16V421C308 429.837 300.837 437 292 437H16C7.16345 437 0 429.837 0 421V16Z" fill="#F6F8FB"/>
<path d="M59.216 264V255.072H34.304V247.008L58.064 213.6H68.36V246.288H74.84V255.072H68.36V264H59.216ZM59.576 250.824V220.152L62.024 220.872L42.152 250.104L40.496 246.288H63.464L59.576 250.824ZM104.604 264V255.072H79.6921V247.008L103.452 213.6H113.748V246.288H120.228V255.072H113.748V264H104.604ZM104.964 250.824V220.152L107.412 220.872L87.5401 250.104L85.8841 246.288H108.852L104.964 250.824ZM134.584 264L162.736 213.6H172.528L144.376 264H134.584ZM136.816 238.728C134.464 238.728 132.328 238.224 130.408 237.216C128.536 236.16 127.024 234.672 125.872 232.752C124.768 230.784 124.216 228.456 124.216 225.768C124.216 223.032 124.768 220.704 125.872 218.784C127.024 216.816 128.56 215.328 130.48 214.32C132.4 213.264 134.536 212.736 136.888 212.736C139.24 212.736 141.352 213.264 143.224 214.32C145.144 215.328 146.656 216.816 147.76 218.784C148.864 220.704 149.416 223.032 149.416 225.768C149.416 228.456 148.864 230.784 147.76 232.752C146.656 234.672 145.144 236.16 143.224 237.216C141.352 238.224 139.216 238.728 136.816 238.728ZM136.816 231.888C138.208 231.888 139.336 231.36 140.2 230.304C141.112 229.248 141.568 227.736 141.568 225.768C141.568 223.704 141.112 222.144 140.2 221.088C139.336 220.032 138.208 219.504 136.816 219.504C135.472 219.504 134.344 220.032 133.432 221.088C132.52 222.144 132.064 223.704 132.064 225.768C132.064 227.736 132.52 229.248 133.432 230.304C134.344 231.36 135.472 231.888 136.816 231.888ZM170.584 264.864C168.232 264.864 166.096 264.36 164.176 263.352C162.304 262.296 160.792 260.808 159.64 258.888C158.536 256.92 157.984 254.592 157.984 251.904C157.984 249.216 158.536 246.912 159.64 244.992C160.792 243.024 162.304 241.536 164.176 240.528C166.096 239.472 168.232 238.944 170.584 238.944C172.984 238.944 175.12 239.472 176.992 240.528C178.912 241.536 180.424 243.024 181.528 244.992C182.632 246.912 183.184 249.216 183.184 251.904C183.184 254.592 182.608 256.92 181.456 258.888C180.352 260.808 178.84 262.296 176.92 263.352C175.048 264.36 172.936 264.864 170.584 264.864ZM170.512 258.024C171.904 258.024 173.056 257.496 173.968 256.44C174.88 255.384 175.336 253.872 175.336 251.904C175.336 249.84 174.88 248.304 173.968 247.296C173.104 246.24 171.976 245.712 170.584 245.712C169.24 245.712 168.112 246.24 167.2 247.296C166.288 248.304 165.832 249.84 165.832 251.904C165.832 253.872 166.264 255.384 167.128 256.44C168.04 257.496 169.168 258.024 170.512 258.024Z" fill="url(#paint0_linear_795_22371)"/>
<path d="M41.888 327.384C40.864 327.384 39.84 327.245 38.816 326.968C37.792 326.669 36.8427 326.211 35.968 325.592C35.1147 324.952 34.4 324.131 33.824 323.128C33.248 322.104 32.896 320.877 32.768 319.448H36.864C37.056 320.536 37.4187 321.379 37.952 321.976C38.5067 322.552 39.1467 322.957 39.872 323.192C40.5973 323.427 41.3013 323.544 41.984 323.544C42.7733 323.544 43.4667 323.416 44.064 323.16C44.6827 322.904 45.1627 322.552 45.504 322.104C45.8667 321.656 46.048 321.155 46.048 320.6C46.048 319.981 45.8773 319.427 45.536 318.936C45.1947 318.445 44.4373 318.093 43.264 317.88L39.648 317.208C37.7493 316.845 36.2773 316.099 35.232 314.968C34.1867 313.816 33.664 312.461 33.664 310.904C33.664 309.496 34.016 308.301 34.72 307.32C35.424 306.317 36.3733 305.549 37.568 305.016C38.7627 304.483 40.0853 304.216 41.536 304.216C43.0507 304.216 44.4053 304.472 45.6 304.984C46.816 305.496 47.7973 306.296 48.544 307.384C49.312 308.451 49.7707 309.837 49.92 311.544H45.76C45.6107 310.584 45.3227 309.859 44.896 309.368C44.4693 308.856 43.968 308.504 43.392 308.312C42.816 308.12 42.24 308.024 41.664 308.024C41.1307 308.024 40.5547 308.109 39.936 308.28C39.3387 308.451 38.8267 308.739 38.4 309.144C37.9947 309.549 37.792 310.115 37.792 310.84C37.792 311.437 38.0053 311.971 38.432 312.44C38.88 312.909 39.6373 313.24 40.704 313.432L44.032 314.04C45.9307 314.381 47.4347 315.053 48.544 316.056C49.6533 317.037 50.208 318.509 50.208 320.472C50.208 321.581 49.9627 322.563 49.472 323.416C49.0027 324.269 48.3627 324.995 47.552 325.592C46.7627 326.168 45.8773 326.616 44.896 326.936C43.9147 327.235 42.912 327.384 41.888 327.384ZM57.205 327.384C55.3703 327.384 53.9303 326.755 52.885 325.496C51.8397 324.216 51.317 322.381 51.317 319.992V311.128H55.765V319.576C55.765 320.877 56.0103 321.88 56.501 322.584C56.9917 323.267 57.7277 323.608 58.709 323.608C59.7757 323.608 60.597 323.235 61.173 322.488C61.7703 321.72 62.069 320.664 62.069 319.32V311.128H66.549V327H62.069V324.728C61.5997 325.539 60.9597 326.189 60.149 326.68C59.3597 327.149 58.3783 327.384 57.205 327.384ZM74.8435 327.384C72.7102 327.384 70.9608 326.883 69.5955 325.88C68.2302 324.877 67.4622 323.565 67.2915 321.944H71.8675C72.0168 322.563 72.3795 323.064 72.9555 323.448C73.5315 323.811 74.2142 323.992 75.0035 323.992C75.8782 323.992 76.5395 323.843 76.9875 323.544C77.4568 323.224 77.6915 322.84 77.6915 322.392C77.6915 322.029 77.5208 321.741 77.1795 321.528C76.8382 321.293 76.2515 321.133 75.4195 321.048C75.1208 321.005 74.7048 320.941 74.1715 320.856C73.6595 320.771 73.2435 320.696 72.9235 320.632C72.0275 320.461 71.2062 320.184 70.4595 319.8C69.7342 319.395 69.1582 318.872 68.7315 318.232C68.3048 317.571 68.0915 316.771 68.0915 315.832C68.0915 314.403 68.6248 313.197 69.6915 312.216C70.7582 311.235 72.3262 310.744 74.3955 310.744C76.4862 310.744 78.1288 311.203 79.3235 312.12C80.5395 313.037 81.2222 314.307 81.3715 315.928H77.0515C76.9875 315.352 76.6995 314.915 76.1875 314.616C75.6755 314.317 75.0888 314.168 74.4275 314.168C73.6168 314.168 73.0088 314.307 72.6035 314.584C72.1982 314.861 71.9955 315.203 71.9955 315.608C71.9955 316.269 72.6568 316.717 73.9795 316.952C74.1715 316.973 74.4382 317.016 74.7795 317.08C75.1422 317.123 75.5048 317.176 75.8675 317.24C76.2515 317.283 76.5502 317.325 76.7635 317.368C77.4035 317.453 78.0222 317.603 78.6195 317.816C79.2382 318.008 79.7822 318.275 80.2515 318.616C80.7422 318.957 81.1262 319.405 81.4035 319.96C81.6808 320.515 81.8195 321.197 81.8195 322.008C81.8195 323.075 81.5528 324.013 81.0195 324.824C80.4862 325.635 79.6968 326.264 78.6515 326.712C77.6275 327.16 76.3582 327.384 74.8435 327.384ZM89.484 327C88.3747 327 87.436 326.872 86.668 326.616C85.9213 326.36 85.356 325.869 84.972 325.144C84.588 324.397 84.396 323.331 84.396 321.944V314.872H81.676V311.128H84.396V306.776H88.876V311.128H92.78V314.872H88.876V321.4C88.876 321.891 88.9293 322.264 89.036 322.52C89.1427 322.776 89.3347 322.957 89.612 323.064C89.9107 323.149 90.3053 323.192 90.796 323.192H92.684V327H89.484ZM98.5342 327.384C97.3609 327.384 96.3476 327.171 95.4942 326.744C94.6409 326.317 93.9796 325.741 93.5102 325.016C93.0622 324.291 92.8382 323.491 92.8382 322.616C92.8382 320.973 93.4249 319.704 94.5982 318.808C95.7929 317.891 97.3502 317.432 99.2702 317.432C100.188 317.432 100.966 317.496 101.606 317.624C102.268 317.752 102.801 317.88 103.206 318.008V317.24C103.206 316.195 102.897 315.437 102.278 314.968C101.681 314.499 100.913 314.264 99.9742 314.264C99.3342 314.264 98.7582 314.392 98.2462 314.648C97.7342 314.904 97.4036 315.373 97.2542 316.056H93.0622C93.1902 314.925 93.5636 313.965 94.1822 313.176C94.8222 312.387 95.6436 311.789 96.6462 311.384C97.6489 310.957 98.7582 310.744 99.9742 310.744C102.364 310.744 104.241 311.309 105.606 312.44C106.993 313.549 107.686 315.149 107.686 317.24V320.536C107.686 321.347 107.729 321.955 107.814 322.36C107.921 322.744 108.081 322.989 108.294 323.096C108.508 323.203 108.785 323.256 109.126 323.256H109.254V327H108.262C107.11 327 106.15 326.861 105.382 326.584C104.614 326.285 104.049 325.72 103.686 324.888C103.132 325.613 102.417 326.211 101.542 326.68C100.668 327.149 99.6649 327.384 98.5342 327.384ZM99.5902 323.992C100.209 323.992 100.732 323.864 101.158 323.608C101.606 323.331 101.98 322.957 102.278 322.488C102.577 321.997 102.801 321.453 102.95 320.856C102.524 320.728 102.022 320.611 101.446 320.504C100.892 320.376 100.326 320.312 99.7502 320.312C99.0889 320.312 98.5236 320.483 98.0542 320.824C97.5849 321.144 97.3502 321.613 97.3502 322.232C97.3502 322.744 97.5529 323.171 97.9582 323.512C98.3636 323.832 98.9076 323.992 99.5902 323.992ZM110.108 327V311.128H114.588V327H110.108ZM110.3 308.6V304.44H114.46V308.6H110.3ZM116.25 327V311.128H120.73V313.464C121.242 312.632 121.935 311.971 122.81 311.48C123.706 310.989 124.751 310.744 125.946 310.744C127.951 310.744 129.487 311.384 130.554 312.664C131.62 313.923 132.154 315.747 132.154 318.136V327H127.674V318.552C127.674 317.251 127.407 316.259 126.874 315.576C126.362 314.872 125.54 314.52 124.41 314.52C123.343 314.52 122.458 314.904 121.754 315.672C121.071 316.419 120.73 317.464 120.73 318.808V327H116.25ZM139.364 327.384C138.191 327.384 137.178 327.171 136.324 326.744C135.471 326.317 134.81 325.741 134.34 325.016C133.892 324.291 133.668 323.491 133.668 322.616C133.668 320.973 134.255 319.704 135.428 318.808C136.623 317.891 138.18 317.432 140.1 317.432C141.018 317.432 141.796 317.496 142.436 317.624C143.098 317.752 143.631 317.88 144.036 318.008V317.24C144.036 316.195 143.727 315.437 143.108 314.968C142.511 314.499 141.743 314.264 140.804 314.264C140.164 314.264 139.588 314.392 139.076 314.648C138.564 314.904 138.234 315.373 138.084 316.056H133.892C134.02 314.925 134.394 313.965 135.012 313.176C135.652 312.387 136.474 311.789 137.476 311.384C138.479 310.957 139.588 310.744 140.804 310.744C143.194 310.744 145.071 311.309 146.436 312.44C147.823 313.549 148.516 315.149 148.516 317.24V320.536C148.516 321.347 148.559 321.955 148.644 322.36C148.751 322.744 148.911 322.989 149.124 323.096C149.338 323.203 149.615 323.256 149.956 323.256H150.084V327H149.092C147.94 327 146.98 326.861 146.212 326.584C145.444 326.285 144.879 325.72 144.516 324.888C143.962 325.613 143.247 326.211 142.372 326.68C141.498 327.149 140.495 327.384 139.364 327.384ZM140.42 323.992C141.039 323.992 141.562 323.864 141.988 323.608C142.436 323.331 142.81 322.957 143.108 322.488C143.407 321.997 143.631 321.453 143.78 320.856C143.354 320.728 142.852 320.611 142.276 320.504C141.722 320.376 141.156 320.312 140.58 320.312C139.919 320.312 139.354 320.483 138.884 320.824C138.415 321.144 138.18 321.613 138.18 322.232C138.18 322.744 138.383 323.171 138.788 323.512C139.194 323.832 139.738 323.992 140.42 323.992ZM160.666 327.384C159.493 327.384 158.469 327.171 157.594 326.744C156.741 326.317 156.037 325.72 155.482 324.952V327H151.002V303.96H155.482V313.304C155.994 312.621 156.656 312.024 157.466 311.512C158.298 311 159.365 310.744 160.666 310.744C162.138 310.744 163.461 311.107 164.634 311.832C165.808 312.557 166.736 313.549 167.418 314.808C168.101 316.067 168.442 317.496 168.442 319.096C168.442 320.675 168.101 322.093 167.418 323.352C166.736 324.611 165.808 325.603 164.634 326.328C163.461 327.032 162.138 327.384 160.666 327.384ZM159.61 323.48C160.442 323.48 161.178 323.288 161.818 322.904C162.48 322.52 162.992 321.997 163.354 321.336C163.717 320.675 163.898 319.928 163.898 319.096C163.898 318.243 163.717 317.485 163.354 316.824C162.992 316.141 162.48 315.608 161.818 315.224C161.178 314.84 160.442 314.648 159.61 314.648C158.778 314.648 158.042 314.84 157.402 315.224C156.762 315.608 156.261 316.131 155.898 316.792C155.536 317.453 155.354 318.211 155.354 319.064C155.354 319.917 155.536 320.675 155.898 321.336C156.261 321.997 156.762 322.52 157.402 322.904C158.042 323.288 158.778 323.48 159.61 323.48ZM169.548 327V303.96H174.028V327H169.548ZM183.562 327.384C181.919 327.384 180.468 327.043 179.21 326.36C177.951 325.656 176.97 324.696 176.266 323.48C175.562 322.243 175.21 320.824 175.21 319.224C175.21 317.581 175.551 316.12 176.234 314.84C176.938 313.56 177.919 312.557 179.178 311.832C180.436 311.107 181.898 310.744 183.562 310.744C185.14 310.744 186.538 311.085 187.754 311.768C188.97 312.451 189.919 313.389 190.602 314.584C191.284 315.757 191.626 317.101 191.626 318.616C191.626 318.829 191.626 319.075 191.626 319.352C191.626 319.608 191.604 319.875 191.562 320.152H178.41V317.464H187.082C187.018 316.525 186.655 315.779 185.994 315.224C185.354 314.648 184.554 314.36 183.594 314.36C182.868 314.36 182.196 314.52 181.578 314.84C180.98 315.16 180.5 315.651 180.138 316.312C179.796 316.952 179.626 317.773 179.626 318.776V319.704C179.626 320.515 179.786 321.229 180.106 321.848C180.447 322.445 180.906 322.915 181.482 323.256C182.079 323.576 182.762 323.736 183.53 323.736C184.276 323.736 184.906 323.576 185.418 323.256C185.93 322.915 186.324 322.477 186.602 321.944H191.178C190.879 322.968 190.367 323.896 189.642 324.728C188.938 325.539 188.063 326.189 187.018 326.68C185.994 327.149 184.842 327.384 183.562 327.384ZM33.504 381V358.6H42.048C43.8613 358.6 45.3547 358.909 46.528 359.528C47.7227 360.125 48.608 360.957 49.184 362.024C49.7813 363.069 50.08 364.253 50.08 365.576C50.08 366.792 49.792 367.933 49.216 369C48.6613 370.045 47.7867 370.899 46.592 371.56C45.4187 372.2 43.904 372.52 42.048 372.52H37.984V381H33.504ZM37.984 368.904H41.76C43.0827 368.904 44.0427 368.605 44.64 368.008C45.2373 367.411 45.536 366.6 45.536 365.576C45.536 364.531 45.2373 363.72 44.64 363.144C44.0427 362.547 43.0827 362.248 41.76 362.248H37.984V368.904ZM55.548 381.384C54.3747 381.384 53.3613 381.171 52.508 380.744C51.6547 380.317 50.9933 379.741 50.524 379.016C50.076 378.291 49.852 377.491 49.852 376.616C49.852 374.973 50.4387 373.704 51.612 372.808C52.8067 371.891 54.364 371.432 56.284 371.432C57.2013 371.432 57.98 371.496 58.62 371.624C59.2813 371.752 59.8147 371.88 60.22 372.008V371.24C60.22 370.195 59.9107 369.437 59.292 368.968C58.6947 368.499 57.9267 368.264 56.988 368.264C56.348 368.264 55.772 368.392 55.26 368.648C54.748 368.904 54.4173 369.373 54.268 370.056H50.076C50.204 368.925 50.5773 367.965 51.196 367.176C51.836 366.387 52.6573 365.789 53.66 365.384C54.6627 364.957 55.772 364.744 56.988 364.744C59.3773 364.744 61.2547 365.309 62.62 366.44C64.0067 367.549 64.7 369.149 64.7 371.24V374.536C64.7 375.347 64.7427 375.955 64.828 376.36C64.9347 376.744 65.0947 376.989 65.308 377.096C65.5213 377.203 65.7987 377.256 66.14 377.256H66.268V381H65.276C64.124 381 63.164 380.861 62.396 380.584C61.628 380.285 61.0627 379.72 60.7 378.888C60.1453 379.613 59.4307 380.211 58.556 380.68C57.6813 381.149 56.6787 381.384 55.548 381.384ZM56.604 377.992C57.2227 377.992 57.7453 377.864 58.172 377.608C58.62 377.331 58.9933 376.957 59.292 376.488C59.5907 375.997 59.8147 375.453 59.964 374.856C59.5373 374.728 59.036 374.611 58.46 374.504C57.9053 374.376 57.34 374.312 56.764 374.312C56.1027 374.312 55.5373 374.483 55.068 374.824C54.5987 375.144 54.364 375.613 54.364 376.232C54.364 376.744 54.5667 377.171 54.972 377.512C55.3773 377.832 55.9213 377.992 56.604 377.992ZM74.8058 381.384C73.1631 381.384 71.7124 381.032 70.4538 380.328C69.1951 379.603 68.2031 378.621 67.4778 377.384C66.7738 376.125 66.4218 374.685 66.4218 373.064C66.4218 371.443 66.7738 370.013 67.4778 368.776C68.2031 367.517 69.1951 366.536 70.4538 365.832C71.7124 365.107 73.1631 364.744 74.8058 364.744C76.8538 364.744 78.5818 365.288 79.9898 366.376C81.3978 367.443 82.3044 368.925 82.7098 370.824H77.9738C77.7818 370.141 77.3978 369.597 76.8218 369.192C76.2458 368.787 75.5631 368.584 74.7738 368.584C74.0698 368.584 73.4298 368.765 72.8538 369.128C72.2778 369.491 71.8191 370.003 71.4778 370.664C71.1578 371.325 70.9978 372.125 70.9978 373.064C70.9978 373.981 71.1578 374.781 71.4778 375.464C71.8191 376.147 72.2778 376.669 72.8538 377.032C73.4298 377.395 74.0698 377.576 74.7738 377.576C75.5631 377.576 76.2458 377.384 76.8218 377C77.3978 376.595 77.7818 376.029 77.9738 375.304H82.7098C82.3258 377.139 81.4191 378.611 79.9898 379.72C78.5818 380.829 76.8538 381.384 74.8058 381.384ZM88.113 376.68L85.937 374.12L93.745 365.128H98.961L88.113 376.68ZM83.857 381V357.96H88.337V381H83.857ZM94.641 381L88.657 373.224L91.345 370.568L100.113 381H94.641ZM105.003 381.384C103.83 381.384 102.816 381.171 101.963 380.744C101.11 380.317 100.448 379.741 99.979 379.016C99.531 378.291 99.307 377.491 99.307 376.616C99.307 374.973 99.8937 373.704 101.067 372.808C102.262 371.891 103.819 371.432 105.739 371.432C106.656 371.432 107.435 371.496 108.075 371.624C108.736 371.752 109.27 371.88 109.675 372.008V371.24C109.675 370.195 109.366 369.437 108.747 368.968C108.15 368.499 107.382 368.264 106.443 368.264C105.803 368.264 105.227 368.392 104.715 368.648C104.203 368.904 103.872 369.373 103.723 370.056H99.531C99.659 368.925 100.032 367.965 100.651 367.176C101.291 366.387 102.112 365.789 103.115 365.384C104.118 364.957 105.227 364.744 106.443 364.744C108.832 364.744 110.71 365.309 112.075 366.44C113.462 367.549 114.155 369.149 114.155 371.24V374.536C114.155 375.347 114.198 375.955 114.283 376.36C114.39 376.744 114.55 376.989 114.763 377.096C114.976 377.203 115.254 377.256 115.595 377.256H115.723V381H114.731C113.579 381 112.619 380.861 111.851 380.584C111.083 380.285 110.518 379.72 110.155 378.888C109.6 379.613 108.886 380.211 108.011 380.68C107.136 381.149 106.134 381.384 105.003 381.384ZM106.059 377.992C106.678 377.992 107.2 377.864 107.627 377.608C108.075 377.331 108.448 376.957 108.747 376.488C109.046 375.997 109.27 375.453 109.419 374.856C108.992 374.728 108.491 374.611 107.915 374.504C107.36 374.376 106.795 374.312 106.219 374.312C105.558 374.312 104.992 374.483 104.523 374.824C104.054 375.144 103.819 375.613 103.819 376.232C103.819 376.744 104.022 377.171 104.427 377.512C104.832 377.832 105.376 377.992 106.059 377.992ZM125.505 388.424C124.161 388.424 122.86 388.2 121.601 387.752C120.364 387.325 119.308 386.632 118.433 385.672C117.558 384.712 117.036 383.464 116.865 381.928H121.313C121.484 382.739 121.942 383.379 122.689 383.848C123.457 384.317 124.364 384.552 125.409 384.552C126.156 384.552 126.849 384.392 127.489 384.072C128.129 383.773 128.641 383.304 129.025 382.664C129.409 382.045 129.601 381.245 129.601 380.264V378.344C129.281 378.835 128.876 379.283 128.385 379.688C127.894 380.093 127.308 380.424 126.625 380.68C125.964 380.915 125.196 381.032 124.321 381.032C122.806 381.032 121.441 380.68 120.225 379.976C119.03 379.251 118.081 378.269 117.377 377.032C116.694 375.795 116.353 374.408 116.353 372.872C116.353 371.336 116.694 369.96 117.377 368.744C118.081 367.507 119.03 366.536 120.225 365.832C121.441 365.107 122.806 364.744 124.321 364.744C125.494 364.744 126.529 364.979 127.425 365.448C128.342 365.917 129.068 366.504 129.601 367.208V365.128H134.081V380.008C134.081 381.864 133.686 383.411 132.897 384.648C132.108 385.907 131.062 386.845 129.761 387.464C128.46 388.104 127.041 388.424 125.505 388.424ZM125.249 377.16C126.124 377.16 126.881 376.968 127.521 376.584C128.161 376.2 128.662 375.688 129.025 375.048C129.388 374.408 129.569 373.693 129.569 372.904C129.569 372.093 129.388 371.368 129.025 370.728C128.662 370.088 128.161 369.587 127.521 369.224C126.881 368.84 126.124 368.648 125.249 368.648C124.396 368.648 123.638 368.84 122.977 369.224C122.337 369.587 121.836 370.088 121.473 370.728C121.11 371.347 120.929 372.061 120.929 372.872C120.929 373.661 121.11 374.387 121.473 375.048C121.836 375.688 122.337 376.2 122.977 376.584C123.638 376.968 124.396 377.16 125.249 377.16ZM135.781 381V365.128H140.261V381H135.781ZM135.973 362.6V358.44H140.133V362.6H135.973ZM141.922 381V365.128H146.402V367.464C146.914 366.632 147.607 365.971 148.482 365.48C149.378 364.989 150.423 364.744 151.618 364.744C153.623 364.744 155.159 365.384 156.226 366.664C157.293 367.923 157.826 369.747 157.826 372.136V381H153.346V372.552C153.346 371.251 153.079 370.259 152.546 369.576C152.034 368.872 151.213 368.52 150.082 368.52C149.015 368.52 148.13 368.904 147.426 369.672C146.743 370.419 146.402 371.464 146.402 372.808V381H141.922ZM168.429 388.424C167.085 388.424 165.783 388.2 164.525 387.752C163.287 387.325 162.231 386.632 161.357 385.672C160.482 384.712 159.959 383.464 159.789 381.928H164.237C164.407 382.739 164.866 383.379 165.613 383.848C166.381 384.317 167.287 384.552 168.333 384.552C169.079 384.552 169.773 384.392 170.413 384.072C171.053 383.773 171.565 383.304 171.949 382.664C172.333 382.045 172.525 381.245 172.525 380.264V378.344C172.205 378.835 171.799 379.283 171.309 379.688C170.818 380.093 170.231 380.424 169.549 380.68C168.887 380.915 168.119 381.032 167.245 381.032C165.73 381.032 164.365 380.68 163.149 379.976C161.954 379.251 161.005 378.269 160.301 377.032C159.618 375.795 159.277 374.408 159.277 372.872C159.277 371.336 159.618 369.96 160.301 368.744C161.005 367.507 161.954 366.536 163.149 365.832C164.365 365.107 165.73 364.744 167.245 364.744C168.418 364.744 169.453 364.979 170.349 365.448C171.266 365.917 171.991 366.504 172.525 367.208V365.128H177.005V380.008C177.005 381.864 176.61 383.411 175.821 384.648C175.031 385.907 173.986 386.845 172.685 387.464C171.383 388.104 169.965 388.424 168.429 388.424ZM168.173 377.16C169.047 377.16 169.805 376.968 170.445 376.584C171.085 376.2 171.586 375.688 171.949 375.048C172.311 374.408 172.493 373.693 172.493 372.904C172.493 372.093 172.311 371.368 171.949 370.728C171.586 370.088 171.085 369.587 170.445 369.224C169.805 368.84 169.047 368.648 168.173 368.648C167.319 368.648 166.562 368.84 165.901 369.224C165.261 369.587 164.759 370.088 164.397 370.728C164.034 371.347 163.853 372.061 163.853 372.872C163.853 373.661 164.034 374.387 164.397 375.048C164.759 375.688 165.261 376.2 165.901 376.584C166.562 376.968 167.319 377.16 168.173 377.16ZM188.229 381V358.6H197.733C199.546 358.6 201.04 358.909 202.213 359.528C203.408 360.125 204.293 360.957 204.869 362.024C205.466 363.069 205.765 364.253 205.765 365.576C205.765 366.6 205.541 367.549 205.093 368.424C204.645 369.277 204.048 370.013 203.301 370.632C204.112 371.187 204.73 371.901 205.157 372.776C205.605 373.651 205.85 374.653 205.893 375.784L206.149 381H201.765L201.413 375.784C201.37 375.037 201.221 374.429 200.965 373.96C200.73 373.469 200.357 373.107 199.845 372.872C199.333 372.637 198.64 372.52 197.765 372.52H192.709V381H188.229ZM192.709 368.904H197.445C198.768 368.904 199.728 368.605 200.325 368.008C200.922 367.411 201.221 366.6 201.221 365.576C201.221 364.531 200.922 363.72 200.325 363.144C199.728 362.547 198.768 362.248 197.445 362.248H192.709V368.904ZM212.929 381.384C211.756 381.384 210.743 381.171 209.889 380.744C209.036 380.317 208.375 379.741 207.905 379.016C207.457 378.291 207.233 377.491 207.233 376.616C207.233 374.973 207.82 373.704 208.993 372.808C210.188 371.891 211.745 371.432 213.665 371.432C214.583 371.432 215.361 371.496 216.001 371.624C216.663 371.752 217.196 371.88 217.601 372.008V371.24C217.601 370.195 217.292 369.437 216.673 368.968C216.076 368.499 215.308 368.264 214.369 368.264C213.729 368.264 213.153 368.392 212.641 368.648C212.129 368.904 211.799 369.373 211.649 370.056H207.457C207.585 368.925 207.959 367.965 208.577 367.176C209.217 366.387 210.039 365.789 211.041 365.384C212.044 364.957 213.153 364.744 214.369 364.744C216.759 364.744 218.636 365.309 220.001 366.44C221.388 367.549 222.081 369.149 222.081 371.24V374.536C222.081 375.347 222.124 375.955 222.209 376.36C222.316 376.744 222.476 376.989 222.689 377.096C222.903 377.203 223.18 377.256 223.521 377.256H223.649V381H222.657C221.505 381 220.545 380.861 219.777 380.584C219.009 380.285 218.444 379.72 218.081 378.888C217.527 379.613 216.812 380.211 215.937 380.68C215.063 381.149 214.06 381.384 212.929 381.384ZM213.985 377.992C214.604 377.992 215.127 377.864 215.553 377.608C216.001 377.331 216.375 376.957 216.673 376.488C216.972 375.997 217.196 375.453 217.345 374.856C216.919 374.728 216.417 374.611 215.841 374.504C215.287 374.376 214.721 374.312 214.145 374.312C213.484 374.312 212.919 374.483 212.449 374.824C211.98 375.144 211.745 375.613 211.745 376.232C211.745 376.744 211.948 377.171 212.353 377.512C212.759 377.832 213.303 377.992 213.985 377.992ZM230.724 381C229.615 381 228.676 380.872 227.908 380.616C227.161 380.36 226.596 379.869 226.212 379.144C225.828 378.397 225.636 377.331 225.636 375.944V368.872H222.916V365.128H225.636V360.776H230.116V365.128H234.02V368.872H230.116V375.4C230.116 375.891 230.169 376.264 230.276 376.52C230.383 376.776 230.575 376.957 230.852 377.064C231.151 377.149 231.545 377.192 232.036 377.192H233.924V381H230.724ZM241.954 381.384C240.311 381.384 238.861 381.043 237.602 380.36C236.343 379.656 235.362 378.696 234.658 377.48C233.954 376.243 233.602 374.824 233.602 373.224C233.602 371.581 233.943 370.12 234.626 368.84C235.33 367.56 236.311 366.557 237.57 365.832C238.829 365.107 240.29 364.744 241.954 364.744C243.533 364.744 244.93 365.085 246.146 365.768C247.362 366.451 248.311 367.389 248.994 368.584C249.677 369.757 250.018 371.101 250.018 372.616C250.018 372.829 250.018 373.075 250.018 373.352C250.018 373.608 249.997 373.875 249.954 374.152H236.802V371.464H245.474C245.41 370.525 245.047 369.779 244.386 369.224C243.746 368.648 242.946 368.36 241.986 368.36C241.261 368.36 240.589 368.52 239.97 368.84C239.373 369.16 238.893 369.651 238.53 370.312C238.189 370.952 238.018 371.773 238.018 372.776V373.704C238.018 374.515 238.178 375.229 238.498 375.848C238.839 376.445 239.298 376.915 239.874 377.256C240.471 377.576 241.154 377.736 241.922 377.736C242.669 377.736 243.298 377.576 243.81 377.256C244.322 376.915 244.717 376.477 244.994 375.944H249.57C249.271 376.968 248.759 377.896 248.034 378.728C247.33 379.539 246.455 380.189 245.41 380.68C244.386 381.149 243.234 381.384 241.954 381.384Z" fill="url(#paint1_linear_795_22371)"/>
<g opacity="0.3">
<g filter="url(#filter0_d_795_22371)">
<path d="M184.608 83.8161C176.226 73.4114 177.901 60.6165 178.547 57.0842C184.525 70.9722 191.464 76.0695 196.847 78.0981C201.869 79.9879 206.715 79.6497 210.958 84.2463C213.645 87.158 214.959 90.8258 219.229 92.2246C221.279 92.8956 223.156 92.7651 223.817 92.9607C209.119 98.4311 193.252 94.5395 184.612 83.8139L184.608 83.8161Z" fill="url(#paint2_linear_795_22371)"/>
<path d="M209.775 101.175C204.01 105.637 192.575 102.411 187.213 99.0666C176.8 92.5733 172.577 75.2176 178.411 56.7883C178.459 56.8878 178.502 56.9895 178.545 57.0912C177.899 60.6234 176.222 73.4138 184.605 83.8231C193.246 94.5486 209.112 98.4402 223.81 92.9698C223.959 93.015 224.048 93.0727 224.06 93.1671C224.143 93.8773 219.392 94.1813 214.398 97.3473C211.816 98.9815 211.075 100.175 209.772 101.181L209.775 101.175Z" fill="white"/>
<path d="M209.775 101.175C204.01 105.637 192.575 102.411 187.213 99.0666C176.8 92.5733 172.577 75.2176 178.411 56.7883C178.459 56.8878 178.502 56.9895 178.545 57.0912C177.899 60.6234 176.222 73.4138 184.605 83.8231C193.246 94.5486 209.112 98.4402 223.81 92.9698C223.959 93.015 224.048 93.0727 224.06 93.1671C224.143 93.8773 219.392 94.1813 214.398 97.3473C211.816 98.9815 211.075 100.175 209.772 101.181L209.775 101.175Z" fill="url(#paint3_linear_795_22371)"/>
<path d="M178.494 56.9711C178.163 58.4186 177.933 59.8903 177.806 61.3795C177.672 62.8664 177.63 64.3594 177.688 65.8541C177.806 68.8437 178.276 71.8372 179.194 74.7108C180.092 77.5885 181.47 80.32 183.213 82.7933C184.969 85.2556 187.101 87.4599 189.511 89.2923C194.386 92.8863 200.227 95.1293 206.221 95.6817C209.21 95.97 212.23 95.9158 215.194 95.4883C218.149 95.0202 221.041 94.2325 223.799 93.1307C220.947 93.9662 218.049 94.5788 215.119 94.8679C212.185 95.148 209.238 95.0622 206.34 94.6969C205.615 94.5764 204.892 94.5053 204.172 94.3491L202.034 93.8761C200.631 93.4745 199.227 93.0729 197.882 92.5041C195.174 91.4312 192.606 90.0244 190.278 88.2809C185.636 84.7807 182.064 79.9134 180.134 74.4C179.163 71.6466 178.568 68.7517 178.312 65.8226C178.168 64.3577 178.134 62.8791 178.162 61.4038C178.19 59.9285 178.299 58.4479 178.496 56.9756L178.494 56.9711Z" fill="white"/>
</g>
<g filter="url(#filter1_d_795_22371)">
<path d="M146.93 43.6674C143.785 28.875 131.199 21.3373 127.594 19.4192C135.581 34.5326 135.064 44.2952 132.945 50.5077C130.967 56.3053 127.139 60.3679 128.137 67.3835C128.769 71.8282 131.067 75.5866 129.205 80.3669C128.313 82.6612 126.83 84.2379 126.521 84.9601C142.081 75.7583 150.178 58.9129 146.936 43.6697L146.93 43.6674Z" fill="url(#paint4_linear_795_22371)"/>
<path d="M144.053 78.5194C152.114 76.6053 157.423 64.1797 158.294 57.0494C159.981 43.1984 147.639 27.0672 127.16 19.0726C127.219 19.1835 127.277 19.2944 127.336 19.4054C130.919 21.355 143.436 29.0046 146.661 43.8532C149.985 59.1543 142.098 75.975 126.764 85.0788C126.694 85.2458 126.685 85.3668 126.76 85.4421C127.331 86.0196 130.994 82.0339 137.355 79.8767C140.64 78.7618 142.227 78.9536 144.049 78.5215L144.053 78.5194Z" fill="white"/>
<path d="M144.053 78.5194C152.114 76.6053 157.423 64.1797 158.294 57.0494C159.981 43.1984 147.639 27.0672 127.16 19.0726C127.219 19.1835 127.277 19.2944 127.336 19.4054C130.919 21.355 143.436 29.0046 146.661 43.8532C149.985 59.1543 142.098 75.975 126.764 85.0788C126.694 85.2458 126.685 85.3668 126.76 85.4421C127.331 86.0196 130.994 82.0339 137.355 79.8767C140.64 78.7618 142.227 78.9536 144.049 78.5215L144.053 78.5194Z" fill="url(#paint5_linear_795_22371)"/>
<path d="M127.276 19.2793C130.153 21.0437 132.849 23.0786 135.234 25.4286C137.64 27.7522 139.779 30.3423 141.523 33.1655C145.023 38.8121 146.779 45.4483 146.563 52.0541C146.446 55.3557 145.854 58.64 144.874 61.7985L144.495 62.9805L144.305 63.5715L144.068 64.1459C143.75 64.9096 143.453 65.6848 143.121 66.4438L142.014 68.6738C141.642 69.4185 141.186 70.1147 140.776 70.8386C140.375 71.5694 139.886 72.2426 139.414 72.9295L138.705 73.9576C138.47 74.3034 138.191 74.6147 137.938 74.9466C137.406 75.5899 136.921 76.2721 136.358 76.8857L134.662 78.7307C132.325 81.1318 129.699 83.2429 126.927 85.1743C129.874 83.5264 132.621 81.5071 135.157 79.2441C137.654 76.9332 139.856 74.2965 141.737 71.441C145.531 65.7418 147.719 58.9713 148.016 52.0932C148.115 48.65 147.685 45.1929 146.756 41.8795C145.815 38.5726 144.377 35.4028 142.474 32.5499C138.679 26.833 133.305 22.2882 127.276 19.2681L127.276 19.2793Z" fill="white"/>
</g>
<g filter="url(#filter2_d_795_22371)">
<path d="M193.757 28.7129C179.586 23.0547 166.182 29.1738 162.544 31.063C179.711 32.9321 187.606 38.7955 191.623 43.9892C195.374 48.8373 196.625 54.2422 203.067 57.3256C207.148 59.2818 211.595 59.4905 214.553 63.6787C215.975 65.6887 216.461 67.7854 216.895 68.439C217.936 50.5619 208.364 34.5402 193.759 28.7062L193.757 28.7129Z" fill="url(#paint6_linear_795_22371)"/>
<path d="M221.15 50.3665C224.085 42.5774 216.728 31.1771 211.281 26.4448C200.698 17.2593 180.334 18.4691 162.174 31.0195C162.301 31.0307 162.422 31.0508 162.55 31.062C166.188 29.1729 179.591 23.0538 193.762 28.7119C208.368 34.546 217.937 50.5631 216.899 68.4448C216.999 68.5968 217.094 68.668 217.198 68.6519C217.999 68.5024 216.742 63.2117 218.517 56.7052C219.438 53.3416 220.486 52.1288 221.152 50.371L221.15 50.3665Z" fill="white"/>
<path d="M221.15 50.3665C224.085 42.5774 216.728 31.1771 211.281 26.4448C200.698 17.2593 180.334 18.4691 162.174 31.0195C162.301 31.0307 162.422 31.0508 162.55 31.062C166.188 29.1729 179.591 23.0538 193.762 28.7119C208.368 34.546 217.937 50.5631 216.899 68.4448C216.999 68.5968 217.094 68.668 217.198 68.6519C217.999 68.5024 216.742 63.2117 218.517 56.7052C219.438 53.3416 220.486 52.1288 221.152 50.371L221.15 50.3665Z" fill="url(#paint7_linear_795_22371)"/>
<path d="M162.406 31.0403C165.492 29.637 168.701 28.5365 172 27.8704C175.285 27.1727 178.644 26.8508 181.977 26.986C188.642 27.2452 195.151 29.5135 200.53 33.4058C203.214 35.3574 205.615 37.6943 207.695 40.2902L208.47 41.2705L208.853 41.7595L209.201 42.277C209.66 42.9692 210.139 43.6573 210.586 44.3604L211.821 46.5377C212.23 47.2648 212.555 48.0376 212.928 48.7821C213.312 49.5268 213.598 50.3124 213.903 51.0893L214.362 52.2592C214.519 52.6455 214.62 53.0532 214.754 53.4504C214.993 54.253 215.286 55.041 215.483 55.8586L216.065 58.3091C216.752 61.6048 217.035 64.9763 217.083 68.366C217.367 64.9844 217.228 61.5661 216.772 58.1825C216.251 54.8024 215.295 51.4907 213.974 48.3207C211.362 41.9609 206.953 36.3319 201.397 32.2189C198.582 30.2022 195.467 28.6175 192.188 27.5233C188.905 26.4469 185.457 25.8611 182.015 25.8451C175.123 25.7882 168.321 27.7066 162.419 31.0338L162.406 31.0403Z" fill="white"/>
</g>
<g filter="url(#filter3_d_795_22371)">
<path d="M155.749 96.5719C146.983 93.0705 138.696 96.8601 136.446 98.0247C147.059 99.1813 151.943 102.805 154.429 106.018C156.747 109.017 157.52 112.355 161.507 114.267C164.032 115.477 166.781 115.602 168.611 118.196C169.488 119.438 169.79 120.733 170.057 121.14C170.701 110.083 164.782 100.179 155.749 96.5719Z" fill="url(#paint8_linear_795_22371)"/>
<path d="M172.688 109.964C174.505 105.149 169.955 98.0979 166.582 95.1696C160.037 89.4894 147.444 90.2355 136.216 97.999C136.292 98.007 136.368 98.0151 136.446 98.0277C138.694 96.8586 146.983 93.0735 155.749 96.5749C164.782 100.182 170.701 110.086 170.057 121.143C170.118 121.236 170.178 121.279 170.241 121.271C170.736 121.179 169.957 117.911 171.06 113.882C171.628 111.804 172.281 111.053 172.688 109.964Z" fill="white"/>
<path d="M172.688 109.964C174.505 105.149 169.955 98.0979 166.582 95.1696C160.037 89.4894 147.444 90.2355 136.216 97.999C136.292 98.007 136.368 98.0151 136.446 98.0277C138.694 96.8586 146.983 93.0735 155.749 96.5749C164.782 100.182 170.701 110.086 170.057 121.143C170.118 121.236 170.178 121.279 170.241 121.271C170.736 121.179 169.957 117.911 171.06 113.882C171.628 111.804 172.281 111.053 172.688 109.964Z" fill="url(#paint9_linear_795_22371)"/>
<path d="M136.362 98.0112C138.27 97.1434 140.256 96.4608 142.295 96.0528C144.326 95.6155 146.404 95.4055 148.462 95.5002C152.583 95.6696 156.607 97.064 159.937 99.4734C161.598 100.68 163.08 102.128 164.368 103.73C165.029 104.52 165.593 105.385 166.156 106.249L166.917 107.597C167.171 108.048 167.376 108.522 167.603 108.986C168.463 110.865 169.125 112.844 169.538 114.881C169.962 116.918 170.136 119.003 170.166 121.1C170.344 119.009 170.256 116.894 169.972 114.801C169.641 112.714 169.043 110.671 168.236 108.706C166.633 104.771 163.898 101.293 160.464 98.7493C156.991 96.2522 152.744 94.8201 148.478 94.8142C144.217 94.7949 140.007 95.9517 136.36 98.0179L136.362 98.0112Z" fill="white"/>
</g>
<g filter="url(#filter4_d_795_22371)">
<path d="M266.222 149.303C259.107 151.521 253.25 150.814 247.144 150.087C227.688 147.767 208.457 143.755 189.005 141.384C188.774 141.355 187.986 141.265 187.021 140.898C185.428 140.298 184.072 139.251 183.104 137.924C182.852 137.583 180.882 134.74 181.69 131.292C182.512 127.78 185.884 125.068 190.062 124.727C204.827 124.921 219.588 125.117 234.354 125.311C234.45 126.243 235.106 131.765 239.439 134.19C241.084 135.11 242.621 135.231 243.306 135.27C251.044 135.773 257.927 126.268 258.737 125.125L289.328 89.5635C290.564 88.0558 289.985 85.787 288.174 85.0574L288.105 85.0293C286.887 84.539 285.517 84.8938 284.703 85.8999C279.294 92.5708 257.682 118.176 249.33 128.689C248.601 129.604 245.705 131.15 242.846 130.471C242.721 130.442 240.711 129.936 239.453 128.187C237.651 125.674 238.103 121.562 240.752 118.117C251.933 103.14 263.112 88.1578 274.293 73.1805C275.817 71.2899 278.133 68.5542 281.158 65.4521C287.398 59.056 292.873 54.9879 295.973 52.7057C300.49 49.3788 308.282 43.7032 318.633 36.3145C327.045 54.13 331.167 72.879 331.412 91.3867C304.452 119.082 284.663 138.097 277.305 143.549C275.671 144.758 271.858 147.537 266.222 149.292L266.222 149.303Z" fill="url(#paint10_linear_795_22371)"/>
</g>
</g>
</g>
<defs>
<filter id="filter0_d_795_22371" x="170.119" y="49.2553" width="78.4262" height="76.7055" filterUnits="userSpaceOnUse" color-interpolation-filters="sRGB">
<feFlood flood-opacity="0" result="BackgroundImageFix"/>
<feColorMatrix in="SourceAlpha" type="matrix" values="0 0 0 0 0 0 0 0 0 0 0 0 0 0 0 0 0 0 127 0" result="hardAlpha"/>
<feOffset dx="9.41725" dy="7.5338"/>
<feGaussianBlur stdDeviation="7.5338"/>
<feComposite in2="hardAlpha" operator="out"/>
<feColorMatrix type="matrix" values="0 0 0 0 0.101961 0 0 0 0 0.188235 0 0 0 0 0.219608 0 0 0 0.4 0"/>
<feBlend mode="normal" in2="BackgroundImageFix" result="effect1_dropShadow_795_22371"/>
<feBlend mode="normal" in="SourceGraphic" in2="effect1_dropShadow_795_22371" result="shape"/>
</filter>
<filter id="filter1_d_795_22371" x="120.871" y="11.5385" width="62.061" height="96.561" filterUnits="userSpaceOnUse" color-interpolation-filters="sRGB">
<feFlood flood-opacity="0" result="BackgroundImageFix"/>
<feColorMatrix in="SourceAlpha" type="matrix" values="0 0 0 0 0 0 0 0 0 0 0 0 0 0 0 0 0 0 127 0" result="hardAlpha"/>
<feOffset dx="9.41725" dy="7.5338"/>
<feGaussianBlur stdDeviation="7.5338"/>
<feComposite in2="hardAlpha" operator="out"/>
<feColorMatrix type="matrix" values="0 0 0 0 0.101961 0 0 0 0 0.188235 0 0 0 0 0.219608 0 0 0 0.4 0"/>
<feBlend mode="normal" in2="BackgroundImageFix" result="effect1_dropShadow_795_22371"/>
<feBlend mode="normal" in="SourceGraphic" in2="effect1_dropShadow_795_22371" result="shape"/>
</filter>
<filter id="filter2_d_795_22371" x="156.523" y="12.9037" width="89.7797" height="78.352" filterUnits="userSpaceOnUse" color-interpolation-filters="sRGB">
<feFlood flood-opacity="0" result="BackgroundImageFix"/>
<feColorMatrix in="SourceAlpha" type="matrix" values="0 0 0 0 0 0 0 0 0 0 0 0 0 0 0 0 0 0 127 0" result="hardAlpha"/>
<feOffset dx="9.41725" dy="7.5338"/>
<feGaussianBlur stdDeviation="7.5338"/>
<feComposite in2="hardAlpha" operator="out"/>
<feColorMatrix type="matrix" values="0 0 0 0 0.101961 0 0 0 0 0.188235 0 0 0 0 0.219608 0 0 0 0.4 0"/>
<feBlend mode="normal" in2="BackgroundImageFix" result="effect1_dropShadow_795_22371"/>
<feBlend mode="normal" in="SourceGraphic" in2="effect1_dropShadow_795_22371" result="shape"/>
</filter>
<filter id="filter3_d_795_22371" x="130.566" y="83.9193" width="67.02" height="59.9536" filterUnits="userSpaceOnUse" color-interpolation-filters="sRGB">
<feFlood flood-opacity="0" result="BackgroundImageFix"/>
<feColorMatrix in="SourceAlpha" type="matrix" values="0 0 0 0 0 0 0 0 0 0 0 0 0 0 0 0 0 0 127 0" result="hardAlpha"/>
<feOffset dx="9.41725" dy="7.5338"/>
<feGaussianBlur stdDeviation="7.5338"/>
<feComposite in2="hardAlpha" operator="out"/>
<feColorMatrix type="matrix" values="0 0 0 0 0.101961 0 0 0 0 0.188235 0 0 0 0 0.219608 0 0 0 0.4 0"/>
<feBlend mode="normal" in2="BackgroundImageFix" result="effect1_dropShadow_795_22371"/>
<feBlend mode="normal" in="SourceGraphic" in2="effect1_dropShadow_795_22371" result="shape"/>
</filter>
<filter id="filter4_d_795_22371" x="175.846" y="28.7807" width="180.051" height="144.62" filterUnits="userSpaceOnUse" color-interpolation-filters="sRGB">
<feFlood flood-opacity="0" result="BackgroundImageFix"/>
<feColorMatrix in="SourceAlpha" type="matrix" values="0 0 0 0 0 0 0 0 0 0 0 0 0 0 0 0 0 0 127 0" result="hardAlpha"/>
<feOffset dx="9.41725" dy="7.5338"/>
<feGaussianBlur stdDeviation="7.5338"/>
<feComposite in2="hardAlpha" operator="out"/>
<feColorMatrix type="matrix" values="0 0 0 0 0.101961 0 0 0 0 0.188235 0 0 0 0 0.219608 0 0 0 0.4 0"/>
<feBlend mode="normal" in2="BackgroundImageFix" result="effect1_dropShadow_795_22371"/>
<feBlend mode="normal" in="SourceGraphic" in2="effect1_dropShadow_795_22371" result="shape"/>
</filter>
<linearGradient id="paint0_linear_795_22371" x1="32" y1="190.785" x2="284.192" y2="222.911" gradientUnits="userSpaceOnUse">
<stop offset="0.54933" stop-color="#1A3038"/>
<stop offset="1" stop-color="#003DA6"/>
</linearGradient>
<linearGradient id="paint1_linear_795_22371" x1="32" y1="298.11" x2="283.574" y2="332.532" gradientUnits="userSpaceOnUse">
<stop offset="0.54933" stop-color="#1A3038"/>
<stop offset="1" stop-color="#003DA6"/>
</linearGradient>
<linearGradient id="paint2_linear_795_22371" x1="203.322" y1="50.0918" x2="173.403" y2="65.802" gradientUnits="userSpaceOnUse">
<stop offset="0.54933" stop-color="#1A2538"/>
<stop offset="1" stop-color="#003DA6"/>
</linearGradient>
<linearGradient id="paint3_linear_795_22371" x1="203.374" y1="49.8811" x2="167.267" y2="69.1334" gradientUnits="userSpaceOnUse">
<stop offset="0.54933" stop-color="#1A2538"/>
<stop offset="1" stop-color="#003DA6"/>
</linearGradient>
<linearGradient id="paint4_linear_795_22371" x1="136.828" y1="20.4901" x2="102.36" y2="38.6209" gradientUnits="userSpaceOnUse">
<stop offset="0.54933" stop-color="#1A2538"/>
<stop offset="1" stop-color="#003DA6"/>
</linearGradient>
<linearGradient id="paint5_linear_795_22371" x1="143.23" y1="17.1062" x2="102.17" y2="38.9995" gradientUnits="userSpaceOnUse">
<stop offset="0.54933" stop-color="#1A2538"/>
<stop offset="1" stop-color="#003DA6"/>
</linearGradient>
<linearGradient id="paint6_linear_795_22371" x1="199.289" y1="18.8205" x2="163.638" y2="37.6828" gradientUnits="userSpaceOnUse">
<stop offset="0.54933" stop-color="#1A2538"/>
<stop offset="1" stop-color="#003DA6"/>
</linearGradient>
<linearGradient id="paint7_linear_795_22371" x1="208.059" y1="13.6224" x2="162.956" y2="38.0588" gradientUnits="userSpaceOnUse">
<stop offset="0.54933" stop-color="#1A2538"/>
<stop offset="1" stop-color="#003DA6"/>
</linearGradient>
<linearGradient id="paint8_linear_795_22371" x1="159.169" y1="90.4548" x2="137.123" y2="102.119" gradientUnits="userSpaceOnUse">
<stop offset="0.54933" stop-color="#1A2538"/>
<stop offset="1" stop-color="#003DA6"/>
</linearGradient>
<linearGradient id="paint9_linear_795_22371" x1="164.592" y1="87.2391" x2="136.699" y2="102.351" gradientUnits="userSpaceOnUse">
<stop offset="0.54933" stop-color="#1A2538"/>
<stop offset="1" stop-color="#003DA6"/>
</linearGradient>
<linearGradient id="paint10_linear_795_22371" x1="321.532" y1="42.3785" x2="175.858" y2="136.086" gradientUnits="userSpaceOnUse">
<stop offset="0.54933" stop-color="#B9CAE8"/>
<stop offset="1" stop-color="#003DA6"/>
</linearGradient>
<clipPath id="clip0_795_22371">
<path d="M0 16C0 7.16345 7.16344 0 16 0H292C300.837 0 308 7.16344 308 16V421C308 429.837 300.837 437 292 437H16C7.16345 437 0 429.837 0 421V16Z" fill="white"/>
</clipPath>
</defs>
</svg>
